<?xml version="1.0" encoding="UTF-8" standalone="no"?>
<svg
   version="1.1"
   viewBox="0 0 512 512"
   enable-background="new 0 0 512 512"
   id="svg16"
   sodipodi:docname="beauty.svg"
   inkscape:version="1.3 (0e150ed6c4, 2023-07-21)"
   xmlns:inkscape="http://www.inkscape.org/namespaces/inkscape"
   xmlns:sodipodi="http://sodipodi.sourceforge.net/DTD/sodipodi-0.dtd"
   xmlns="http://www.w3.org/2000/svg"
   xmlns:svg="http://www.w3.org/2000/svg">
  <defs
     id="defs20" />
  <sodipodi:namedview
     id="namedview18"
     pagecolor="#ffffff"
     bordercolor="#666666"
     borderopacity="1.0"
     inkscape:pageshadow="2"
     inkscape:pageopacity="0.0"
     inkscape:pagecheckerboard="0"
     showgrid="false"
     inkscape:zoom="0.5"
     inkscape:cx="-42"
     inkscape:cy="207"
     inkscape:window-width="1920"
     inkscape:window-height="1017"
     inkscape:window-x="-8"
     inkscape:window-y="-8"
     inkscape:window-maximized="1"
     inkscape:current-layer="svg16"
     inkscape:showpageshadow="2"
     inkscape:deskcolor="#d1d1d1" />
  <circle
     style="fill:#f8bb3a;fill-opacity:1;stroke:#000000;stroke-width:10.8951"
     id="path859"
     cx="256"
     cy="256"
     r="250.5479" />
  <g
     id="g6"
     transform="translate(263.38116,111.8151)" />
  <g
     id="g8"
     transform="translate(263.38116,111.8151)" />
  <g
     id="g10"
     transform="translate(263.38116,111.8151)" />
  <g
     id="g12"
     transform="translate(263.38116,111.8151)" />
  <g
     id="g14"
     transform="translate(263.38116,111.8151)" />
  <g
     id="g16"
     transform="translate(263.38116,111.8151)" />
  <g
     id="g18"
     transform="translate(263.38116,111.8151)" />
  <g
     id="g20"
     transform="translate(263.38116,111.8151)" />
  <g
     id="g22"
     transform="translate(263.38116,111.8151)" />
  <g
     id="g24"
     transform="translate(263.38116,111.8151)" />
  <g
     id="g26"
     transform="translate(263.38116,111.8151)" />
  <g
     id="g28"
     transform="translate(263.38116,111.8151)" />
  <g
     id="g30"
     transform="translate(263.38116,111.8151)" />
  <g
     id="g32"
     transform="translate(263.38116,111.8151)" />
  <g
     id="g34"
     transform="translate(263.38116,111.8151)" />
  <path
     class="clr-i-outline clr-i-outline-path-1"
     d="M 300.58719,222.56056 323.54315,97.917079 a 9.7415792,9.7415792 0 0 0 -9.82372,-11.50029 l -26.80504,0.769166 a 34.777437,34.777437 0 0 0 -32.51223,26.128665 l -34.25824,135.05063 -40.13789,-0.36635 a 53.091605,53.091605 0 1 0 2.659,19.62486 l 32.10926,0.0983 -12.59735,51.73856 a 53.383853,53.383853 0 1 0 19.93511,0.6515 l 51.09826,-201.98984 a 15.294279,15.294279 0 0 1 14.29704,-11.45605 l 14.72723,-0.41125 -24.56219,133.80941 135.35966,12.25975 -4.36573,14.07128 a 15.294279,15.294279 0 0 1 -14.88576,10.67991 l -122.3538,-3.17322 -3.55783,19.32744 125.17723,2.86559 a 34.777437,34.777437 0 0 0 34.00278,-24.32478 l 7.96596,-25.60559 a 9.7415792,9.7415792 0 0 0 -8.42668,-12.55998 z m -150.34598,69.5353 a 33.705863,33.705863 0 1 1 6.40698,-47.16528 33.705863,33.705863 0 0 1 -6.40698,47.16528 z m 80.77264,106.48611 a 33.705863,33.705863 0 1 1 6.40699,-47.16527 33.705863,33.705863 0 0 1 -6.40699,47.16527 z"
     id="path1"
     style="stroke-width:9.74156" />
</svg>
