<?xml version="1.0" encoding="UTF-8" standalone="no"?>
<!-- Generator: Adobe Illustrator 18.0.0, SVG Export Plug-In . SVG Version: 6.00 Build 0)  -->

<svg
   version="1.1"
   id="Capa_1"
   x="0px"
   y="0px"
   viewBox="0 0 345.021 345.021"
   style="enable-background:new 0 0 345.021 345.021;"
   xml:space="preserve"
   sodipodi:docname="car.svg"
   inkscape:version="1.3 (0e150ed6c4, 2023-07-21)"
   xmlns:inkscape="http://www.inkscape.org/namespaces/inkscape"
   xmlns:sodipodi="http://sodipodi.sourceforge.net/DTD/sodipodi-0.dtd"
   xmlns="http://www.w3.org/2000/svg"
   xmlns:svg="http://www.w3.org/2000/svg"><defs
   id="defs41" /><sodipodi:namedview
   id="namedview39"
   pagecolor="#ffffff"
   bordercolor="#666666"
   borderopacity="1.0"
   inkscape:pageshadow="2"
   inkscape:pageopacity="0.0"
   inkscape:pagecheckerboard="0"
   showgrid="false"
   inkscape:zoom="0.60213727"
   inkscape:cx="235.82662"
   inkscape:cy="166.90546"
   inkscape:window-width="1920"
   inkscape:window-height="1017"
   inkscape:window-x="-8"
   inkscape:window-y="-8"
   inkscape:window-maximized="1"
   inkscape:current-layer="Capa_1"
   inkscape:showpageshadow="2"
   inkscape:deskcolor="#d1d1d1" />&#10;<circle
   style="fill:#175dff;fill-opacity:1;stroke:#000000;stroke-width:7.3414"
   id="path859"
   cx="172.5105"
   cy="172.5105"
   r="168.82565" />&#10;<g
   id="g8">&#10;</g>&#10;<g
   id="g10">&#10;</g>&#10;<g
   id="g12">&#10;</g>&#10;<g
   id="g14">&#10;</g>&#10;<g
   id="g16">&#10;</g>&#10;<g
   id="g18">&#10;</g>&#10;<g
   id="g20">&#10;</g>&#10;<g
   id="g22">&#10;</g>&#10;<g
   id="g24">&#10;</g>&#10;<g
   id="g26">&#10;</g>&#10;<g
   id="g28">&#10;</g>&#10;<g
   id="g30">&#10;</g>&#10;<g
   id="g32">&#10;</g>&#10;<g
   id="g34">&#10;</g>&#10;<g
   id="g36">&#10;</g>&#10;<path
   stroke="#000000"
   stroke-linecap="round"
   stroke-linejoin="round"
   stroke-width="24.8158"
   d="m 234.54986,160.0969 h 24.81575 a 24.815747,24.815747 0 0 1 24.81575,24.81575 v 24.81574 a 12.407873,12.407873 0 0 1 -12.40787,12.40787 H 253.16167 M 234.54986,160.0969 h -80.65117 m 80.65117,0 -29.98983,-49.99132 a 24.815747,24.815747 0 0 0 -21.2795,-12.048046 h -29.38184 m 0,0 V 160.0969 m 0,-62.039366 H 118.41217 A 24.815747,24.815747 0 0 0 94.067921,118.00939 l -8.412534,42.08751 m 68.243303,0 H 85.655387 m 6.203934,62.03936 H 73.247511 A 12.407873,12.407873 0 0 1 60.839639,209.72839 V 184.91265 A 24.815747,24.815747 0 0 1 85.655387,160.0969 v 0 m 6.203934,62.03936 a 24.81575,24.81575 0 1 0 49.631499,0 m -49.631499,0 a 24.815749,24.815749 0 1 1 49.631499,0 m 0,0 h 62.03936 m 0,0 a 24.815747,24.815747 0 1 0 49.63149,0 m -49.63149,0 a 24.815747,24.815747 0 1 1 49.63149,0"
   id="path1"
   style="fill:none" /></svg>
