<?xml version="1.0" encoding="UTF-8" standalone="no"?>
<!-- Generator: Adobe Illustrator 19.0.0, SVG Export Plug-In . SVG Version: 6.00 Build 0)  -->

<svg
   version="1.1"
   id="Layer_1"
   x="0px"
   y="0px"
   viewBox="0 0 463 463"
   style="enable-background:new 0 0 463 463;"
   xml:space="preserve"
   sodipodi:docname="cellar.svg"
   inkscape:version="1.3 (0e150ed6c4, 2023-07-21)"
   xmlns:inkscape="http://www.inkscape.org/namespaces/inkscape"
   xmlns:sodipodi="http://sodipodi.sourceforge.net/DTD/sodipodi-0.dtd"
   xmlns="http://www.w3.org/2000/svg"
   xmlns:svg="http://www.w3.org/2000/svg"><defs
   id="defs41" /><sodipodi:namedview
   id="namedview39"
   pagecolor="#ffffff"
   bordercolor="#666666"
   borderopacity="1.0"
   inkscape:pageshadow="2"
   inkscape:pageopacity="0.0"
   inkscape:pagecheckerboard="0"
   showgrid="false"
   inkscape:zoom="0.63456345"
   inkscape:cx="379.78866"
   inkscape:cy="290.75107"
   inkscape:window-width="1920"
   inkscape:window-height="1017"
   inkscape:window-x="-8"
   inkscape:window-y="-8"
   inkscape:window-maximized="1"
   inkscape:current-layer="Layer_1"
   inkscape:showpageshadow="2"
   inkscape:deskcolor="#d1d1d1" />&#10;<circle
   style="fill:#ce5eff;fill-opacity:1;stroke:#000000;stroke-width:9.82943"
   id="path859"
   cx="231.5"
   cy="231.5"
   r="226.04228" />&#10;<g
   id="g8">&#10;</g>&#10;<g
   id="g10">&#10;</g>&#10;<g
   id="g12">&#10;</g>&#10;<g
   id="g14">&#10;</g>&#10;<g
   id="g16">&#10;</g>&#10;<g
   id="g18">&#10;</g>&#10;<g
   id="g20">&#10;</g>&#10;<g
   id="g22">&#10;</g>&#10;<g
   id="g24">&#10;</g>&#10;<g
   id="g26">&#10;</g>&#10;<g
   id="g28">&#10;</g>&#10;<g
   id="g30">&#10;</g>&#10;<g
   id="g32">&#10;</g>&#10;<g
   id="g34">&#10;</g>&#10;<g
   id="g36">&#10;</g>&#10;<path
   d="m 323.7433,101.55792 c -1.53193,-3.24147 -4.79527,-5.308942 -8.37918,-5.308942 H 147.63657 c -3.58393,0 -6.84725,2.067472 -8.37828,5.308942 -47.598307,100.79701 -47.598307,159.08697 0,259.88398 1.53194,3.24147 4.79526,5.30712 8.37828,5.30712 h 51.14033 c 0.009,0 0.0182,0.002 0.0264,0.002 0.0109,0 0.0218,-0.002 0.0328,-0.002 h 65.32574 c 0.0118,0 0.0237,0.002 0.0346,0.002 0.009,0 0.0182,-0.002 0.0255,-0.002 h 51.14125 c 3.58392,0 6.84725,-2.06565 8.37827,-5.30803 47.59831,-100.7961 47.59831,-159.08606 0.002,-259.88307 z M 204.69879,348.2201 c -6.3791,-13.79833 -11.78368,-26.70045 -16.22191,-38.98141 h 86.04692 c -4.43823,12.28005 -9.84372,25.18218 -16.22101,38.98141 z m -22.31048,-57.50943 c -12.36111,-42.11085 -12.17987,-77.99288 0.55194,-120.29226 h 97.11927 c 12.73181,42.29938 12.91305,78.18141 0.55193,120.29226 z M 131.78079,170.41841 h 31.8928 c -11.75727,41.87404 -11.92394,78.57122 -0.51186,120.29226 h -31.93652 c -12.36202,-42.11268 -12.17805,-77.99197 0.55558,-120.29226 z m 126.52382,-55.6396 c 6.05305,13.09703 11.23539,25.39257 15.54157,37.11159 h -84.69259 c 4.30617,-11.71902 9.49034,-24.01456 15.54247,-37.11159 z m 41.02248,55.6396 h 31.89281 c 12.73453,42.30029 12.91942,78.1805 0.55648,120.29226 h -31.93835 c 11.413,-41.72195 11.24814,-78.41913 -0.51094,-120.29226 z m 25.67764,-18.52801 h -31.51392 c -4.0967,-11.81374 -9.03859,-24.11657 -14.83662,-37.11159 h 30.81079 c 6.0567,13.09976 11.23358,25.39075 15.53975,37.11159 z M 153.53569,114.77881 h 30.80989 c -5.79712,12.99502 -10.73902,25.29785 -14.83571,37.11159 h -31.51483 c 4.30799,-11.72084 9.48214,-24.01183 15.54065,-37.11159 z m -16.22373,194.46078 h 31.55126 c 4.21873,12.38571 9.37922,25.29967 15.48145,38.98142 h -30.80898 c -6.38184,-13.79924 -11.78277,-26.70045 -16.22373,-38.98142 z M 309.46589,348.2201 H 278.6551 c 6.10223,-13.68084 11.26362,-26.59571 15.48145,-38.98141 h 31.55126 c -4.43914,12.28187 -9.84098,25.18308 -16.22192,38.98141 z"
   id="path1"
   style="stroke-width:0.910778" /></svg>
