<?xml version="1.0" encoding="UTF-8" standalone="no"?>
<svg
   version="1.1"
   viewBox="0 0 512 512"
   enable-background="new 0 0 512 512"
   id="svg16"
   sodipodi:docname="grocery.svg"
   inkscape:version="1.3 (0e150ed6c4, 2023-07-21)"
   xmlns:inkscape="http://www.inkscape.org/namespaces/inkscape"
   xmlns:sodipodi="http://sodipodi.sourceforge.net/DTD/sodipodi-0.dtd"
   xmlns="http://www.w3.org/2000/svg"
   xmlns:svg="http://www.w3.org/2000/svg">
  <defs
     id="defs20" />
  <sodipodi:namedview
     id="namedview18"
     pagecolor="#ffffff"
     bordercolor="#666666"
     borderopacity="1.0"
     inkscape:pageshadow="2"
     inkscape:pageopacity="0.0"
     inkscape:pagecheckerboard="0"
     showgrid="false"
     inkscape:zoom="0.5"
     inkscape:cx="-42"
     inkscape:cy="209"
     inkscape:window-width="1920"
     inkscape:window-height="1017"
     inkscape:window-x="-8"
     inkscape:window-y="-8"
     inkscape:window-maximized="1"
     inkscape:current-layer="svg16"
     inkscape:showpageshadow="2"
     inkscape:deskcolor="#d1d1d1" />
  <circle
     style="fill:#f8bb3a;fill-opacity:1;stroke:#000000;stroke-width:10.8951"
     id="path859"
     cx="256"
     cy="256"
     r="250.5479" />
  <g
     id="g6"
     transform="translate(263.38116,111.8151)" />
  <g
     id="g8"
     transform="translate(263.38116,111.8151)" />
  <g
     id="g10"
     transform="translate(263.38116,111.8151)" />
  <g
     id="g12"
     transform="translate(263.38116,111.8151)" />
  <g
     id="g14"
     transform="translate(263.38116,111.8151)" />
  <g
     id="g16"
     transform="translate(263.38116,111.8151)" />
  <g
     id="g18"
     transform="translate(263.38116,111.8151)" />
  <g
     id="g20"
     transform="translate(263.38116,111.8151)" />
  <g
     id="g22"
     transform="translate(263.38116,111.8151)" />
  <g
     id="g24"
     transform="translate(263.38116,111.8151)" />
  <g
     id="g26"
     transform="translate(263.38116,111.8151)" />
  <g
     id="g28"
     transform="translate(263.38116,111.8151)" />
  <g
     id="g30"
     transform="translate(263.38116,111.8151)" />
  <g
     id="g32"
     transform="translate(263.38116,111.8151)" />
  <g
     id="g34"
     transform="translate(263.38116,111.8151)" />
  <path
     d="M 326.30263,169.66666 H 144.99979 L 169.66646,256 H 313.02037 M 157.33312,305.33333 H 305.33313 L 329.9998,145 h 37 m -74.00001,209.66667 c 0,6.8117 5.52189,12.33333 12.33334,12.33333 6.81145,0 12.33333,-5.52163 12.33333,-12.33333 0,-6.81169 -5.52188,-12.33334 -12.33333,-12.33334 -6.81145,0 -12.33334,5.52164 -12.33334,12.33334 z m -135.66667,0 c 0,6.8117 5.52163,12.33333 12.33334,12.33333 6.8117,0 12.33333,-5.52163 12.33333,-12.33333 0,-6.81169 -5.52163,-12.33334 -12.33333,-12.33334 -6.81171,0 -12.33334,5.52164 -12.33334,12.33334 z"
     stroke="#000000"
     stroke-width="24.6667"
     stroke-linecap="round"
     stroke-linejoin="round"
     id="path1"
     style="fill:none" />
</svg>
