<?xml version="1.0" encoding="UTF-8" standalone="no"?>
<!-- Generator: Adobe Illustrator 19.0.0, SVG Export Plug-In . SVG Version: 6.00 Build 0)  -->

<svg
   version="1.1"
   id="Layer_1"
   x="0px"
   y="0px"
   viewBox="0 0 512 512"
   style="enable-background:new 0 0 512 512;"
   xml:space="preserve"
   sodipodi:docname="landmark.svg"
   inkscape:version="1.2.2 (b0a8486541, 2022-12-01)"
   xmlns:inkscape="http://www.inkscape.org/namespaces/inkscape"
   xmlns:sodipodi="http://sodipodi.sourceforge.net/DTD/sodipodi-0.dtd"
   xmlns="http://www.w3.org/2000/svg"
   xmlns:svg="http://www.w3.org/2000/svg"><defs
   id="defs59" /><sodipodi:namedview
   id="namedview57"
   pagecolor="#ffffff"
   bordercolor="#666666"
   borderopacity="1.0"
   inkscape:pageshadow="2"
   inkscape:pageopacity="0.0"
   inkscape:pagecheckerboard="0"
   showgrid="false"
   inkscape:zoom="0.81152344"
   inkscape:cx="-50.522262"
   inkscape:cy="131.85078"
   inkscape:window-width="1920"
   inkscape:window-height="1017"
   inkscape:window-x="-8"
   inkscape:window-y="-8"
   inkscape:window-maximized="1"
   inkscape:current-layer="Layer_1"
   inkscape:showpageshadow="2"
   inkscape:deskcolor="#d1d1d1" />
<circle
   style="fill:#8cfccb;fill-opacity:1;stroke:#000000;stroke-width:10.8899"
   id="path859"
   cx="255.89067"
   cy="256.04471"
   r="250.42706" />



<g
   id="g26">
</g>
<g
   id="g28">
</g>
<g
   id="g30">
</g>
<g
   id="g32">
</g>
<g
   id="g34">
</g>
<g
   id="g36">
</g>
<g
   id="g38">
</g>
<g
   id="g40">
</g>
<g
   id="g42">
</g>
<g
   id="g44">
</g>
<g
   id="g46">
</g>
<g
   id="g48">
</g>
<g
   id="g50">
</g>
<g
   id="g52">
</g>
<g
   id="g54">
</g>
<g
   id="Layer_2"
   data-name="Layer 2"
   transform="matrix(7.6301643,0,0,7.6301643,73.184103,76.88086)"><g
     id="invisible_box"
     data-name="invisible box"><rect
       width="48"
       height="48"
       fill="none"
       id="rect4"
       x="0"
       y="0" /></g><g
     id="icons_Q2"
     data-name="icons Q2"><path
       d="m 24,6 c 7.4,0 13,6 13,14 0,8 -8.6,16.7 -13,21.2 C 19.6,36.7 11,27.5 11,20 11,12.5 16.6,6 24,6 M 24,2 C 14.1,2 7,10.1 7,20 7,29.9 18.5,41.3 22.6,45.4 a 1.9,1.9 0 0 0 2.8,0 C 29.5,41.3 41,30.1 41,20 41,9.9 33.9,2 24,2 Z"
       id="path7" /><path
       d="m 29.1,16.9 -2.9,-0.4 -1.3,-2.9 a 1,1 0 0 0 -1.8,0 l -1.3,2.9 -2.9,0.4 a 1.1,1.1 0 0 0 -0.6,1.8 l 2.1,2 -0.5,3.1 a 1.1,1.1 0 0 0 1.5,1.1 L 24,23 l 2.6,1.9 a 1.1,1.1 0 0 0 1.5,-1.1 l -0.5,-3.1 2.1,-2 a 1.1,1.1 0 0 0 -0.6,-1.8 z"
       id="path9" /></g></g></svg>
