<?xml version="1.0" encoding="UTF-8" standalone="no"?>
<!-- Generator: Adobe Illustrator 19.0.0, SVG Export Plug-In . SVG Version: 6.00 Build 0)  -->

<svg
   version="1.1"
   id="Layer_1"
   x="0px"
   y="0px"
   viewBox="0 0 344.99271 344.99271"
   xml:space="preserve"
   sodipodi:docname="music.svg"
   width="344.99271"
   height="344.99271"
   inkscape:version="1.3 (0e150ed6c4, 2023-07-21)"
   xmlns:inkscape="http://www.inkscape.org/namespaces/inkscape"
   xmlns:sodipodi="http://sodipodi.sourceforge.net/DTD/sodipodi-0.dtd"
   xmlns="http://www.w3.org/2000/svg"
   xmlns:svg="http://www.w3.org/2000/svg"><defs
   id="defs71" /><sodipodi:namedview
   id="namedview69"
   pagecolor="#ffffff"
   bordercolor="#666666"
   borderopacity="1.0"
   inkscape:pageshadow="2"
   inkscape:pageopacity="0.0"
   inkscape:pagecheckerboard="0"
   showgrid="false"
   fit-margin-top="0"
   fit-margin-left="0"
   fit-margin-right="0"
   fit-margin-bottom="0"
   inkscape:zoom="0.5783521"
   inkscape:cx="-319.87435"
   inkscape:cy="142.64667"
   inkscape:window-width="1920"
   inkscape:window-height="1017"
   inkscape:window-x="-8"
   inkscape:window-y="-8"
   inkscape:window-maximized="1"
   inkscape:current-layer="Layer_1"
   inkscape:showpageshadow="2"
   inkscape:deskcolor="#d1d1d1" />&#10;&#10;&#10;&#10;&#10;&#10;<circle
   style="fill:#fbec65;fill-opacity:1;stroke:#000000;stroke-width:7.3414"
   id="path859"
   cx="172.49635"
   cy="172.49635"
   r="168.82565" />&#10;<g
   id="g38"
   transform="translate(-86.633987,-76.759933)">&#10;</g>&#10;<g
   id="g40"
   transform="translate(-86.633987,-76.759933)">&#10;</g>&#10;<g
   id="g42"
   transform="translate(-86.633987,-76.759933)">&#10;</g>&#10;<g
   id="g44"
   transform="translate(-86.633987,-76.759933)">&#10;</g>&#10;<g
   id="g46"
   transform="translate(-86.633987,-76.759933)">&#10;</g>&#10;<g
   id="g48"
   transform="translate(-86.633987,-76.759933)">&#10;</g>&#10;<g
   id="g50"
   transform="translate(-86.633987,-76.759933)">&#10;</g>&#10;<g
   id="g52"
   transform="translate(-86.633987,-76.759933)">&#10;</g>&#10;<g
   id="g54"
   transform="translate(-86.633987,-76.759933)">&#10;</g>&#10;<g
   id="g56"
   transform="translate(-86.633987,-76.759933)">&#10;</g>&#10;<g
   id="g58"
   transform="translate(-86.633987,-76.759933)">&#10;</g>&#10;<g
   id="g60"
   transform="translate(-86.633987,-76.759933)">&#10;</g>&#10;<g
   id="g62"
   transform="translate(-86.633987,-76.759933)">&#10;</g>&#10;<g
   id="g64"
   transform="translate(-86.633987,-76.759933)">&#10;</g>&#10;<g
   id="g66"
   transform="translate(-86.633987,-76.759933)">&#10;</g>&#10;<path
   d="m 140.96675,246.06533 c 0,11.6092 -14.11633,21.01974 -31.5296,21.01974 -17.413277,0 -31.529607,-9.41054 -31.529607,-21.01974 0,-11.6092 14.11633,-21.01973 31.529607,-21.01973 17.41327,0 31.5296,9.41053 31.5296,21.01973 z m 0,0 V 98.927188 L 267.08516,77.907448 V 225.0456 m 0,0 c 0,11.6092 -14.1158,21.01973 -31.5296,21.01973 -17.4138,0 -31.52961,-9.41053 -31.52961,-21.01973 0,-11.6092 14.11581,-21.01974 31.52961,-21.01974 17.4138,0 31.5296,9.41054 31.5296,21.01974 z M 140.96675,140.96666 267.08516,119.94692"
   stroke="#000000"
   stroke-width="21.0197"
   stroke-linecap="round"
   stroke-linejoin="round"
   id="path1"
   style="fill:none" /></svg>
