<?xml version="1.0" encoding="UTF-8" standalone="no"?>
<!-- Uploaded to SVGRepo https://www.svgrepo.com -->

<svg
   version="1.1"
   id="Layer_1"
   x="0px"
   y="0px"
   viewBox="0 0 32 32"
   style="enable-background:new 0 0 32 32;"
   xml:space="preserve"
   sodipodi:docname="recycle.svg"
   inkscape:version="1.3 (0e150ed6c4, 2023-07-21)"
   xmlns:inkscape="http://www.inkscape.org/namespaces/inkscape"
   xmlns:sodipodi="http://sodipodi.sourceforge.net/DTD/sodipodi-0.dtd"
   xmlns="http://www.w3.org/2000/svg"
   xmlns:svg="http://www.w3.org/2000/svg"><defs
   id="defs7" /><sodipodi:namedview
   id="namedview5"
   pagecolor="#ffffff"
   bordercolor="#666666"
   borderopacity="1.0"
   inkscape:pageshadow="2"
   inkscape:pageopacity="0.0"
   inkscape:pagecheckerboard="0"
   showgrid="false"
   inkscape:zoom="11.313709"
   inkscape:cx="17.942834"
   inkscape:cy="4.7287764"
   inkscape:window-width="1920"
   inkscape:window-height="1017"
   inkscape:window-x="-8"
   inkscape:window-y="-8"
   inkscape:window-maximized="1"
   inkscape:current-layer="Layer_1"
   inkscape:showpageshadow="2"
   inkscape:deskcolor="#d1d1d1" />&#10;<circle
   style="fill:#4dff6a;fill-opacity:1;stroke:#000000;stroke-width:0.680808"
   id="path859"
   cx="16"
   cy="16"
   r="15.656123" />&#10;<rect
   id="_Transparent_Rectangle"
   style="fill:none;"
   width="32"
   height="32" />&#10;<g
   id="g5"
   transform="matrix(0.04292004,0.00570875,-0.00570875,0.04292004,6.4329522,3.173798)">&#10;	<g
   id="g4">&#10;		<g
   id="g3">&#10;			<path
   d="m 282.917,358.115 c -0.32,-2.987 -1.92,-5.547 -4.267,-7.253 -2.347,-1.706 -5.227,-2.347 -8,-1.813 l -128.533,21.333 c 6.613,-16 14.4,-31.573 23.147,-46.613 l 36.907,-6.08 c 5.76,-0.96 9.707,-6.4 8.747,-12.267 -0.427,-2.347 -1.493,-4.48 -3.2,-6.08 l -74.667,-70.08 c -2.453,-2.24 -5.76,-3.307 -9.067,-2.773 L 8.997,245.582 c -5.867,0.96 -9.813,6.4 -8.853,12.16 0.64,3.733 3.093,6.827 6.613,8.213 l 20.8,8.427 c -5.547,9.28 -10.667,23.573 -7.787,43.093 3.2,21.76 32.533,66.027 73.493,126.08 7.253,10.667 14.4,21.013 20.8,30.72 1.067,1.92 2.347,3.733 3.733,5.44 0.427,0.427 0.96,0.853 1.493,1.173 0.427,1.6 1.067,2.987 2.133,4.267 5.76,6.72 30.827,26.667 48.213,26.667 1.067,0 2.133,-0.107 3.307,-0.213 l 119.147,-19.84 c 5.76,-0.96 9.6,-6.293 8.853,-12.053 z m -177.067,65.6 c -27.733,-40.64 -62.4,-92.267 -64.96,-109.76 -3.627,-24.213 10.027,-35.52 10.56,-35.947 4.693,-3.627 5.547,-10.24 1.92,-14.933 -0.96,-1.28 -2.24,-2.347 -3.733,-3.093 l 72.533,-12.053 55.04,51.733 -20.48,3.413 c -3.093,0.533 -5.867,2.347 -7.467,5.12 -30.079,50.987 -41.066,88.64 -43.413,115.52 z m 63.787,66.667 c -5.333,0 -25.6,-11.733 -32,-19.307 -0.533,-0.427 -1.067,-0.853 -1.6,-1.28 -0.213,-1.067 -0.747,-2.133 -1.28,-3.093 l -1.707,-2.56 c -3.2,-5.867 -11.947,-27.307 0.96,-70.827 l 129.493,-21.44 14.933,100.587 z"
   id="path1" />&#10;			<path
   d="m 498.277,216.782 -82.24,-95.573 c -3.84,-4.48 -10.56,-5.013 -15.04,-1.173 -0.32,0.213 -0.533,0.533 -0.747,0.747 l -75.2,79.68 c -3.84,4.053 -3.84,10.347 -0.107,14.507 l 83.093,91.627 c -13.227,2.453 -26.56,3.84 -40,4.373 l -4.267,-24 c -0.853,-4.693 -4.693,-8.32 -9.493,-8.747 -4.8,-0.427 -9.173,2.347 -10.987,6.827 l -41.067,107.2 c -1.387,3.52 -0.747,7.573 1.707,10.56 l 82.24,101.867 c 3.733,4.587 10.453,5.333 15.04,1.6 2.987,-2.453 4.48,-6.293 3.84,-10.133 l -5.547,-31.253 c 15.893,-0.213 31.147,-6.613 42.453,-17.813 14.72,-14.507 32.747,-70.187 56.533,-147.2 4.16,-13.44 8.107,-26.24 11.733,-37.44 0.853,-2.24 1.6,-4.48 2.133,-6.827 2.136,-12.482 -2.557,-25.389 -14.077,-38.829 z M 426.81,431.715 c -16.213,16 -36.8,11.093 -37.653,10.88 -5.653,-1.493 -11.52,1.92 -13.013,7.573 -0.427,1.493 -0.427,2.987 -0.213,4.587 l 0.747,4.267 -52.48,-64.96 25.6,-66.773 c 1.92,3.307 5.547,5.227 9.28,5.227 57.067,-0.747 93.013,-13.76 115.627,-28.907 -15.468,49.813 -36.695,117.013 -47.895,128.106 z m 64.32,-180.586 -1.493,4.587 c -3.947,9.6 -17.387,31.787 -58.24,45.013 l -84.16,-92.8 60.267,-63.893 74.56,86.613 c 6.72,7.893 9.92,15.04 9.066,20.48 z"
   id="path2" />&#10;			<path
   d="m 59.664,185.102 103.36,32.64 c 1.067,0.32 2.133,0.533 3.2,0.533 4.8,0 9.067,-3.2 10.24,-7.893 l 30.08,-110.613 c 10.773,13.76 20.8,28.16 29.867,43.093 -6.4,7.253 -8.96,9.813 -9.92,10.773 -4.907,3.2 -6.4,9.813 -3.2,14.72 1.387,2.133 3.52,3.733 5.973,4.48 1.173,0.32 2.347,0.533 3.52,0.64 1.067,0 2.133,-0.213 3.093,-0.64 l 113.28,-18.987 c 3.947,-0.64 7.253,-3.52 8.427,-7.36 L 393.85,30.115 c 1.707,-5.653 -1.493,-11.627 -7.147,-13.333 -2.667,-0.747 -5.547,-0.533 -8,0.747 L 349.05,32.995 C 341.797,18.595 328.89,7.715 313.317,3.235 281.85,-6.258 151.61,17.742 125.584,22.649 h -0.107 l -0.747,0.213 c -0.747,0.213 -1.493,0.64 -2.24,1.067 -2.027,-0.747 -4.16,-0.747 -6.187,-0.213 -12.267,3.733 -27.84,16.64 -31.68,30.933 l -32,117.44 c -1.493,5.546 1.601,11.2 7.041,13.013 z M 307.13,23.395 c 12.587,3.627 22.4,13.76 25.707,26.453 1.067,5.76 6.72,9.6 12.48,8.533 1.067,-0.213 2.027,-0.533 2.987,-1.067 l 17.493,-9.173 -26.667,85.547 -79.253,13.12 c 0.853,-2.88 0.533,-6.08 -1.067,-8.64 C 224.037,79.821 193.743,50.488 170.703,35.981 232.677,25.635 292.09,18.809 307.13,23.395 Z M 105.21,59.982 c 1.6,-5.867 10.347,-13.867 17.387,-16 0.64,-0.213 1.28,-0.64 1.813,-0.96 1.6,0.533 3.307,0.747 5.013,0.533 1.067,-0.107 24.107,-1.707 60.907,36.907 -0.427,0.64 -0.747,1.28 -0.96,1.92 l -30.293,111.36 -82.987,-26.24 z"
   id="path3" />&#10;		</g>&#10;	</g>&#10;</g></svg>
