<?xml version="1.0" encoding="UTF-8" standalone="no"?>
<svg
   version="1.1"
   viewBox="0 0 512 512"
   enable-background="new 0 0 512 512"
   id="svg16"
   sodipodi:docname="tobacco.svg"
   inkscape:version="1.3 (0e150ed6c4, 2023-07-21)"
   xmlns:inkscape="http://www.inkscape.org/namespaces/inkscape"
   xmlns:sodipodi="http://sodipodi.sourceforge.net/DTD/sodipodi-0.dtd"
   xmlns="http://www.w3.org/2000/svg"
   xmlns:svg="http://www.w3.org/2000/svg">
  <defs
     id="defs20" />
  <sodipodi:namedview
     id="namedview18"
     pagecolor="#ffffff"
     bordercolor="#666666"
     borderopacity="1.0"
     inkscape:pageshadow="2"
     inkscape:pageopacity="0.0"
     inkscape:pagecheckerboard="0"
     showgrid="false"
     inkscape:zoom="0.5"
     inkscape:cx="-42"
     inkscape:cy="215"
     inkscape:window-width="1920"
     inkscape:window-height="1017"
     inkscape:window-x="-8"
     inkscape:window-y="-8"
     inkscape:window-maximized="1"
     inkscape:current-layer="svg16"
     inkscape:showpageshadow="2"
     inkscape:deskcolor="#d1d1d1" />
  <circle
     style="fill:#ce5eff;fill-opacity:1;stroke:#000000;stroke-width:10.8951"
     id="path859"
     cx="256"
     cy="256"
     r="250.5479" />
  <g
     id="g6"
     transform="translate(263.38116,111.8151)" />
  <g
     id="g8"
     transform="translate(263.38116,111.8151)" />
  <g
     id="g10"
     transform="translate(263.38116,111.8151)" />
  <g
     id="g12"
     transform="translate(263.38116,111.8151)" />
  <g
     id="g14"
     transform="translate(263.38116,111.8151)" />
  <g
     id="g16"
     transform="translate(263.38116,111.8151)" />
  <g
     id="g18"
     transform="translate(263.38116,111.8151)" />
  <g
     id="g20"
     transform="translate(263.38116,111.8151)" />
  <g
     id="g22"
     transform="translate(263.38116,111.8151)" />
  <g
     id="g24"
     transform="translate(263.38116,111.8151)" />
  <g
     id="g26"
     transform="translate(263.38116,111.8151)" />
  <g
     id="g28"
     transform="translate(263.38116,111.8151)" />
  <g
     id="g30"
     transform="translate(263.38116,111.8151)" />
  <g
     id="g32"
     transform="translate(263.38116,111.8151)" />
  <g
     id="g34"
     transform="translate(263.38116,111.8151)" />
  <g
     id="g3"
     transform="matrix(0.51633142,0.36620636,-0.36620636,0.51633142,208.48586,11.746222)">
    <path
       fill="var(--ci-primary-color, #000000)"
       d="M 16,240 V 360 H 360 V 240 Z m 312,88 H 48 v -56 h 280 z"
       class="ci-primary"
       id="path1" />
    <rect
       width="32"
       height="120"
       x="384"
       y="240"
       fill="var(--ci-primary-color, #000000)"
       class="ci-primary"
       id="rect1" />
    <rect
       width="32"
       height="120"
       x="440"
       y="240"
       fill="var(--ci-primary-color, #000000)"
       class="ci-primary"
       id="rect2" />
    <path
       fill="var(--ci-primary-color, #000000)"
       d="m 385.428,173.3 a 31.982,31.982 0 0 1 2.32,-38.418 63.745,63.745 0 0 0 3.479,-78.69 L 385.377,48 H 348.8 l -1.82,1.3 18.207,25.49 a 31.807,31.807 0 0 1 -1.736,39.265 64.1,64.1 0 0 0 -4.649,76.993 L 364.77,200 h 38.46 z"
       class="ci-primary"
       id="path2" />
    <path
       fill="var(--ci-primary-color, #000000)"
       d="m 457.428,173.3 a 31.982,31.982 0 0 1 2.32,-38.418 63.745,63.745 0 0 0 3.479,-78.69 L 457.377,48 H 420.8 l -1.82,1.3 18.207,25.49 a 31.807,31.807 0 0 1 -1.736,39.265 64.1,64.1 0 0 0 -4.649,76.993 L 436.77,200 h 38.46 z"
       class="ci-primary"
       id="path3" />
  </g>
</svg>
