<?xml version="1.0" encoding="UTF-8" standalone="no"?>
<!-- Generator: Adobe Illustrator 16.0.0, SVG Export Plug-In . SVG Version: 6.00 Build 0)  -->

<svg
   version="1.1"
   id="Capa_1"
   x="0px"
   y="0px"
   width="369.949px"
   height="369.949px"
   viewBox="0 0 369.949 369.949"
   style="enable-background:new 0 0 369.949 369.949;"
   xml:space="preserve"
   sodipodi:docname="user.svg"
   inkscape:version="1.1.2 (b8e25be833, 2022-02-05)"
   xmlns:inkscape="http://www.inkscape.org/namespaces/inkscape"
   xmlns:sodipodi="http://sodipodi.sourceforge.net/DTD/sodipodi-0.dtd"
   xmlns="http://www.w3.org/2000/svg"
   xmlns:svg="http://www.w3.org/2000/svg"><defs
   id="defs43">







	









		
		
	</defs><sodipodi:namedview
   id="namedview41"
   pagecolor="#ffffff"
   bordercolor="#666666"
   borderopacity="1.0"
   inkscape:pageshadow="2"
   inkscape:pageopacity="0.0"
   inkscape:pagecheckerboard="0"
   showgrid="false"
   inkscape:zoom="1.5883425"
   inkscape:cx="165.89621"
   inkscape:cy="195.8016"
   inkscape:window-width="1920"
   inkscape:window-height="1017"
   inkscape:window-x="-1928"
   inkscape:window-y="-8"
   inkscape:window-maximized="1"
   inkscape:current-layer="Capa_1" />
<circle
   style="fill:#ddf7ff;fill-opacity:1;stroke:none;stroke-width:8.31843;stroke-opacity:1"
   id="path2568"
   cx="185.72821"
   cy="185.72821"
   r="151.7305" /><path
   d="M 184.972,0.003 C 82.821,0.003 0,82.821 0,184.975 0,287.129 82.821,369.947 184.972,369.947 287.132,369.947 369.95,287.129 369.95,184.975 369.95,82.821 287.132,0.003 184.972,0.003 Z m 0,353.509 c -92.927,0 -168.536,-75.606 -168.536,-168.537 0,-92.93 75.609,-168.536 168.536,-168.536 92.931,0 168.537,75.606 168.537,168.536 0,92.93 -75.601,168.537 -168.537,168.537 z"
   id="path2"
   style="fill:#ddf7ff;fill-opacity:1" />















<path
   fill="#000000"
   d="m 182.58046,95.418767 c -28.2294,0 -51.1141,22.884703 -51.1141,51.114093 0.0205,8.66676 2.24478,17.18702 4.3166,20.97243 l 46.7975,106.01399 44.72493,-102.2282 h -0.0235 c 4.20104,-7.57605 6.40706,-16.09593 6.41228,-24.75822 3.7e-4,-28.22939 -22.88434,-51.114093 -51.11373,-51.114093 z m 0,25.556673 a 25.556678,25.556678 0 0 1 25.55668,25.55742 25.556678,25.556678 0 0 1 -25.55668,25.55668 25.556678,25.556678 0 0 1 -25.55668,-25.55668 25.556678,25.556678 0 0 1 25.55668,-25.55667 z"
   id="path2-7"
   style="fill:#000000;fill-opacity:1;stroke-width:0.372764" /></svg>
