<?xml version="1.0" encoding="UTF-8" standalone="no"?>
<!-- Generator: Adobe Illustrator 16.0.0, SVG Export Plug-In . SVG Version: 6.00 Build 0)  -->

<svg
   version="1.1"
   id="Capa_1"
   x="0px"
   y="0px"
   width="206.274px"
   height="206.274px"
   viewBox="0 0 206.274 206.274"
   style="enable-background:new 0 0 206.274 206.274;"
   xml:space="preserve"
   sodipodi:docname="administration.svg"
   inkscape:version="1.3 (0e150ed6c4, 2023-07-21)"
   xmlns:inkscape="http://www.inkscape.org/namespaces/inkscape"
   xmlns:sodipodi="http://sodipodi.sourceforge.net/DTD/sodipodi-0.dtd"
   xmlns="http://www.w3.org/2000/svg"
   xmlns:svg="http://www.w3.org/2000/svg"><defs
   id="defs53" /><sodipodi:namedview
   id="namedview51"
   pagecolor="#ffffff"
   bordercolor="#666666"
   borderopacity="1.0"
   inkscape:pageshadow="2"
   inkscape:pageopacity="0.0"
   inkscape:pagecheckerboard="0"
   showgrid="false"
   inkscape:zoom="1.424333"
   inkscape:cx="-63.187472"
   inkscape:cy="109.87599"
   inkscape:window-width="1920"
   inkscape:window-height="1017"
   inkscape:window-x="-8"
   inkscape:window-y="-8"
   inkscape:window-maximized="1"
   inkscape:current-layer="Capa_1"
   inkscape:showpageshadow="2"
   inkscape:deskcolor="#d1d1d1" />&#10;<circle
   style="fill:#fbec65;fill-opacity:1;stroke:#000000;stroke-width:4.38777"
   id="path859"
   cx="103.137"
   cy="103.137"
   r="100.90275" />&#10;<g
   id="g20">&#10;</g>&#10;<g
   id="g22">&#10;</g>&#10;<g
   id="g24">&#10;</g>&#10;<g
   id="g26">&#10;</g>&#10;<g
   id="g28">&#10;</g>&#10;<g
   id="g30">&#10;</g>&#10;<g
   id="g32">&#10;</g>&#10;<g
   id="g34">&#10;</g>&#10;<g
   id="g36">&#10;</g>&#10;<g
   id="g38">&#10;</g>&#10;<g
   id="g40">&#10;</g>&#10;<g
   id="g42">&#10;</g>&#10;<g
   id="g44">&#10;</g>&#10;<g
   id="g46">&#10;</g>&#10;<g
   id="g48">&#10;</g>&#10;<g
   id="g3"
   transform="matrix(0.23653518,0,0,0.23653518,42.584113,42.583995)">&#10;	<g
   id="g2">&#10;		<path
   style="fill:#010101"
   d="M 490.259,233.172 H 379.38 v -36.96 h 6.522 c 11.958,0 21.741,-9.783 21.741,-21.741 0,-11.958 -9.784,-21.741 -21.741,-21.741 H 327.201 V 96.204 c 0,-31.022 -21.956,-57.149 -51.091,-63.652 V 22.284 c 0,-11.958 -9.783,-21.741 -21.741,-21.741 -11.958,0 -21.741,9.783 -21.741,21.741 v 10.519 c -28.593,6.904 -50.004,32.765 -50.004,63.4 V 152.73 H 125.01 c -11.958,0 -21.741,9.783 -21.741,21.741 0,11.958 9.783,21.741 21.741,21.741 h 7.609 v 36.96 H 21.741 C 9.783,233.172 0,242.955 0,254.913 c 0,11.958 9.783,21.741 21.741,21.741 h 29.35 v 213.062 c 0,11.958 9.783,21.741 21.741,21.741 H 192.407 318.505 438.08 c 11.958,0 20.654,-9.783 20.654,-20.654 V 276.654 h 30.437 c 11.958,0 21.741,-8.696 22.828,-21.741 10e-4,-11.958 -9.782,-21.741 -21.74,-21.741 z M 223.932,96.204 c 0,-13.045 10.87,-22.828 22.828,-22.828 h 0.853 c 2.13,0.702 4.4,1.087 6.756,1.087 2.362,0 4.594,-0.387 6.668,-1.083 12.971,0.081 22.682,10.912 22.682,22.824 v 56.527 H 223.931 V 96.204 Z m -48.917,100.008 h 29.35 101.096 29.35 v 36.96 H 175.015 Z m 39.134,272.85 V 364.705 h 82.616 v 104.357 z m 202.191,0 H 339.16 V 342.964 c 0,-11.958 -9.783,-21.741 -21.741,-21.741 H 192.408 c -11.958,0 -21.741,9.783 -21.741,21.741 V 469.062 H 94.573 V 276.654 h 59.788 202.191 59.788 z"
   id="path1" />&#10;	</g>&#10;</g></svg>
