<?xml version="1.0" encoding="UTF-8" standalone="no"?>
<!-- Generator: Adobe Illustrator 16.0.0, SVG Export Plug-In . SVG Version: 6.00 Build 0)  -->

<svg
   version="1.1"
   id="Capa_1"
   x="0px"
   y="0px"
   width="206.274px"
   height="206.274px"
   viewBox="0 0 206.274 206.274"
   style="enable-background:new 0 0 206.274 206.274;"
   xml:space="preserve"
   sodipodi:docname="administration.svg"
   inkscape:version="1.1.2 (b8e25be833, 2022-02-05)"
   xmlns:inkscape="http://www.inkscape.org/namespaces/inkscape"
   xmlns:sodipodi="http://sodipodi.sourceforge.net/DTD/sodipodi-0.dtd"
   xmlns="http://www.w3.org/2000/svg"
   xmlns:svg="http://www.w3.org/2000/svg"><defs
   id="defs53" /><sodipodi:namedview
   id="namedview51"
   pagecolor="#ffffff"
   bordercolor="#666666"
   borderopacity="1.0"
   inkscape:pageshadow="2"
   inkscape:pageopacity="0.0"
   inkscape:pagecheckerboard="0"
   showgrid="false"
   inkscape:zoom="1.0071555"
   inkscape:cx="-42.198051"
   inkscape:cy="-22.836592"
   inkscape:window-width="1920"
   inkscape:window-height="1017"
   inkscape:window-x="-8"
   inkscape:window-y="-8"
   inkscape:window-maximized="1"
   inkscape:current-layer="Capa_1" />
<circle
   style="fill:#ffab00;fill-opacity:1;stroke:#000000;stroke-width:4.38777"
   id="path859"
   cx="103.17789"
   cy="103.11582"
   r="100.90275" /><g
   id="g18"
   transform="matrix(0.62600275,0,0,0.62600275,38.572787,38.573001)">
	<g
   id="g16">
		<path
   d="m 43.765,155.421 c 1.935,0 3.504,-1.57 3.504,-3.504 V 84.1 c 0,-1.935 -1.569,-3.504 -3.504,-3.504 H 26.811 c -1.934,0 -3.504,1.569 -3.504,3.504 v 67.817 c 0,1.934 1.57,3.504 3.504,3.504 H 43.765 Z M 30.315,87.604 h 9.945 v 60.809 H 30.315 V 87.604 Z"
   id="path2" />
		<path
   d="m 111.577,155.421 c 1.937,0 3.504,-1.57 3.504,-3.504 V 84.1 c 0,-1.935 -1.567,-3.504 -3.504,-3.504 H 94.623 c -1.934,0 -3.504,1.569 -3.504,3.504 v 67.817 c 0,1.934 1.571,3.504 3.504,3.504 h 16.954 z M 98.127,87.604 h 9.944 v 60.809 h -9.944 z"
   id="path4" />
		<path
   d="m 179.393,155.421 c 1.934,0 3.505,-1.57 3.505,-3.504 V 84.1 c 0,-1.935 -1.571,-3.504 -3.505,-3.504 H 162.44 c -1.937,0 -3.504,1.569 -3.504,3.504 v 67.817 c 0,1.934 1.567,3.504 3.504,3.504 h 16.953 z M 165.944,87.604 h 9.945 v 60.809 h -9.945 z"
   id="path6" />
		<path
   d="M 204.019,68.204 104.795,13.312 c -1.054,-0.585 -2.337,-0.585 -3.392,0 L 1.809,68.415 c -1.398,0.775 -2.096,2.397 -1.698,3.942 0.4,1.545 1.795,2.628 3.393,2.628 h 199.193 c 0.028,-0.003 0.049,0 0.072,0 1.934,0 3.504,-1.569 3.504,-3.504 0.001,-1.496 -0.933,-2.772 -2.254,-3.277 z m -186.938,-0.227 86.02,-47.592 86.022,47.592 z"
   id="path8" />
		<path
   d="m 14.837,162.434 v 8.477 c 0,1.934 1.571,3.504 3.504,3.504 H 187.86 c 1.934,0 3.504,-1.57 3.504,-3.504 v -8.477 c 0,-1.934 -1.57,-3.505 -3.504,-3.505 H 18.341 c -1.933,0 -3.504,1.564 -3.504,3.505 z m 7.009,3.504 h 162.51 v 1.468 H 21.846 Z"
   id="path10" />
		<path
   d="M 195.635,177.915 H 10.566 c -1.936,0 -3.504,1.571 -3.504,3.505 v 8.477 c 0,1.934 1.569,3.504 3.504,3.504 h 185.069 c 1.934,0 3.504,-1.57 3.504,-3.504 v -8.477 c 0,-1.934 -1.57,-3.505 -3.504,-3.505 z m -3.505,8.477 H 14.07 v -1.468 h 178.06 z"
   id="path12" />
		<path
   d="m 89.083,48.749 c 0,7.731 6.287,14.018 14.018,14.018 7.73,0 14.017,-6.287 14.017,-14.018 0,-7.73 -6.286,-14.017 -14.017,-14.017 -7.732,0 -14.018,6.287 -14.018,14.017 z m 21.025,0 c 0,3.865 -3.141,7.009 -7.008,7.009 -3.866,0 -7.009,-3.144 -7.009,-7.009 0,-3.865 3.143,-7.008 7.009,-7.008 3.867,0 7.008,3.143 7.008,7.008 z"
   id="path14" />
	</g>
</g>
<g
   id="g20">
</g>
<g
   id="g22">
</g>
<g
   id="g24">
</g>
<g
   id="g26">
</g>
<g
   id="g28">
</g>
<g
   id="g30">
</g>
<g
   id="g32">
</g>
<g
   id="g34">
</g>
<g
   id="g36">
</g>
<g
   id="g38">
</g>
<g
   id="g40">
</g>
<g
   id="g42">
</g>
<g
   id="g44">
</g>
<g
   id="g46">
</g>
<g
   id="g48">
</g>
</svg>
