<?xml version="1.0" encoding="UTF-8" standalone="no"?>
<svg
   width="15px"
   height="15px"
   viewBox="0 0 15 15"
   fill="none"
   version="1.1"
   id="svg12"
   sodipodi:docname="paw.svg"
   inkscape:version="1.1.2 (b8e25be833, 2022-02-05)"
   xmlns:inkscape="http://www.inkscape.org/namespaces/inkscape"
   xmlns:sodipodi="http://sodipodi.sourceforge.net/DTD/sodipodi-0.dtd"
   xmlns="http://www.w3.org/2000/svg"
   xmlns:svg="http://www.w3.org/2000/svg">
  <defs
     id="defs16" />
  <sodipodi:namedview
     id="namedview14"
     pagecolor="#ffffff"
     bordercolor="#666666"
     borderopacity="1.0"
     inkscape:pageshadow="2"
     inkscape:pageopacity="0.0"
     inkscape:pagecheckerboard="0"
     showgrid="false"
     inkscape:zoom="39.173716"
     inkscape:cx="11.372421"
     inkscape:cy="8.3984885"
     inkscape:window-width="1920"
     inkscape:window-height="1017"
     inkscape:window-x="-8"
     inkscape:window-y="-8"
     inkscape:window-maximized="1"
     inkscape:current-layer="svg12" />
  <circle
     style="fill:#1acbff;fill-opacity:1;stroke:#000000;stroke-width:0.318256"
     id="path859"
     cx="7.5195541"
     cy="7.5195518"
     r="7.3187485" />
  <g
     id="g846"
     transform="matrix(0.54731551,0,0,0.54731551,3.3951336,3.3951336)">
    <path
       d="M 5,0 C 3.89543,0 3,0.895431 3,2 V 3 C 3,4.10457 3.89543,5 5,5 6.10457,5 7,4.10457 7,3 V 2 C 7,0.895431 6.10457,0 5,0 Z"
       fill="#000000"
       id="path2" />
    <path
       d="M 10,0 C 8.89543,0 8,0.895431 8,2 v 1 c 0,1.10457 0.89543,2 2,2 1.1046,0 2,-0.89543 2,-2 V 2 C 12,0.895431 11.1046,0 10,0 Z"
       fill="#000000"
       id="path4" />
    <path
       d="M 2,5 C 0.895431,5 0,5.89543 0,7 v 0.5 c 0,1.10457 0.895431,2 2,2 1.10457,0 2,-0.89543 2,-2 V 7 C 4,5.89543 3.10457,5 2,5 Z"
       fill="#000000"
       id="path6" />
    <path
       d="m 13,5 c -1.1046,0 -2,0.89543 -2,2 v 0.5 c 0,1.10457 0.8954,2 2,2 1.1046,0 2,-0.89543 2,-2 V 7 C 15,5.89543 14.1046,5 13,5 Z"
       fill="#000000"
       id="path8" />
    <path
       d="m 9.61273,7.77893 c -1.0948,-1.3294 -3.13066,-1.3294 -4.22546,0 L 2.46943,11.322 C 1.2614,12.7889 2.30486,15 4.20516,15 4.47668,15 4.74447,14.9368 4.98732,14.8154 l 0.35967,-0.1799 c 1.35535,-0.6777 2.95067,-0.6777 4.30602,0 l 0.35969,0.1799 C 10.2555,14.9368 10.5233,15 10.7948,15 c 1.9003,0 2.9438,-2.2111 1.7358,-3.678 z"
       fill="#000000"
       id="path10" />
  </g>
</svg>
