<?xml version="1.0" encoding="UTF-8" standalone="no"?>
<svg
   width="15px"
   height="15px"
   viewBox="0 0 15 15"
   fill="none"
   version="1.1"
   id="svg12"
   sodipodi:docname="animal.svg"
   inkscape:version="1.3 (0e150ed6c4, 2023-07-21)"
   xmlns:inkscape="http://www.inkscape.org/namespaces/inkscape"
   xmlns:sodipodi="http://sodipodi.sourceforge.net/DTD/sodipodi-0.dtd"
   xmlns="http://www.w3.org/2000/svg"
   xmlns:svg="http://www.w3.org/2000/svg">
  <defs
     id="defs16" />
  <sodipodi:namedview
     id="namedview14"
     pagecolor="#ffffff"
     bordercolor="#666666"
     borderopacity="1.0"
     inkscape:pageshadow="2"
     inkscape:pageopacity="0.0"
     inkscape:pagecheckerboard="0"
     showgrid="false"
     inkscape:zoom="13.85"
     inkscape:cx="-7.870036"
     inkscape:cy="14.620938"
     inkscape:window-width="1920"
     inkscape:window-height="1017"
     inkscape:window-x="-8"
     inkscape:window-y="-8"
     inkscape:window-maximized="1"
     inkscape:current-layer="svg12"
     inkscape:showpageshadow="2"
     inkscape:deskcolor="#d1d1d1" />
  <circle
     style="fill:#1acbff;fill-opacity:1;stroke:#000000;stroke-width:0.318256"
     id="path859"
     cx="7.5"
     cy="7.5"
     r="7.3187485" />
  <g
     id="g5"
     transform="matrix(0.60410013,0,0,0.60410013,2.969249,2.969249)">
    <path
       d="M 6.5,3 V 2 C 6.5,1.17157 5.82843,0.5 5,0.5 4.17157,0.5 3.5,1.17157 3.5,2 V 3 C 3.5,3.82843 4.17157,4.5 5,4.5 5.82843,4.5 6.5,3.82843 6.5,3 Z"
       stroke="#000000"
       id="path1" />
    <path
       d="M 11.5,3 V 2 C 11.5,1.17157 10.8284,0.5 10,0.5 9.17157,0.5 8.5,1.17157 8.5,2 v 1 c 0,0.82843 0.67157,1.5 1.5,1.5 0.8284,0 1.5,-0.67157 1.5,-1.5 z"
       stroke="#000000"
       id="path2" />
    <path
       d="M 14.5,7.5 V 7 C 14.5,6.17157 13.8284,5.5 13,5.5 12.1716,5.5 11.5,6.17157 11.5,7 v 0.5 c 0,0.82843 0.6716,1.5 1.5,1.5 0.8284,0 1.5,-0.67157 1.5,-1.5 z"
       stroke="#000000"
       id="path3" />
    <path
       d="M 3.5,7.5 V 7 C 3.5,6.17157 2.82843,5.5 2,5.5 1.17157,5.5 0.5,6.17157 0.5,7 V 7.5 C 0.5,8.32843 1.17157,9 2,9 2.82843,9 3.5,8.32843 3.5,7.5 Z"
       stroke="#000000"
       id="path4" />
    <path
       d="M 2.8554,11.6399 5.77324,8.09678 c 0.89479,-1.08653 2.55873,-1.08653 3.45352,0 l 2.91784,3.54312 c 0.9394,1.1407 0.128,2.8601 -1.3498,2.8601 -0.1939,0 -0.3851,-0.0451 -0.5585,-0.1319 L 9.87662,14.1883 c -1.49612,-0.748 -3.25712,-0.748 -4.75324,0 L 4.76371,14.3681 C 4.59029,14.4549 4.39905,14.5 4.20516,14.5 2.72742,14.5 1.91599,12.7806 2.8554,11.6399 Z"
       stroke="#000000"
       id="path5" />
  </g>
</svg>
