<?xml version="1.0" encoding="UTF-8" standalone="no"?>
<svg
   width="32px"
   height="32px"
   viewBox="0 0 32 32"
   version="1.1"
   id="svg4"
   sodipodi:docname="euro.svg"
   inkscape:version="1.1.2 (b8e25be833, 2022-02-05)"
   xmlns:inkscape="http://www.inkscape.org/namespaces/inkscape"
   xmlns:sodipodi="http://sodipodi.sourceforge.net/DTD/sodipodi-0.dtd"
   xmlns="http://www.w3.org/2000/svg"
   xmlns:svg="http://www.w3.org/2000/svg">
  <defs
     id="defs8" />
  <sodipodi:namedview
     id="namedview6"
     pagecolor="#ffffff"
     bordercolor="#666666"
     borderopacity="1.0"
     inkscape:pageshadow="2"
     inkscape:pageopacity="0.0"
     inkscape:pagecheckerboard="0"
     showgrid="false"
     inkscape:zoom="8"
     inkscape:cx="-4.4375"
     inkscape:cy="29.625"
     inkscape:window-width="1920"
     inkscape:window-height="1017"
     inkscape:window-x="-8"
     inkscape:window-y="-8"
     inkscape:window-maximized="1"
     inkscape:current-layer="svg4" />
  <circle
     style="fill:#ffab00;fill-opacity:1;stroke:#000000;stroke-width:0.680091"
     id="path859"
     cx="15.998277"
     cy="15.989152"
     r="15.6396" />
  <path
     d="m 17.02075,8.6423718 c -2.905209,0 -5.264345,2.3830862 -5.939752,5.5182212 H 9.6631215 v 1.226271 h 1.2645925 c -0.01437,0.201185 -0.03832,0.407161 -0.03832,0.613136 0,0.205976 0.02395,0.411951 0.03832,0.613136 H 9.6631215 v 1.226271 h 1.4178765 c 0.675407,3.135135 3.034543,5.518221 5.939752,5.518221 1.659777,0 3.168666,-0.79995 4.253628,-2.050172 l -0.938864,-0.804741 c -0.890962,1.027481 -2.045382,1.628642 -3.314764,1.628642 -2.14837,0 -4.040469,-1.777135 -4.67516,-4.29195 h 5.288295 v -1.226271 h -5.49906 C 12.118059,16.409556 12.115664,16.20837 12.115664,16 c 0,-0.20837 0.0024,-0.409556 0.01916,-0.613136 h 5.49906 V 14.160593 H 12.34559 c 0.634691,-2.514814 2.52679,-4.2919498 4.67516,-4.2919498 1.269382,0 2.423802,0.6011608 3.314764,1.6286418 l 0.938864,-0.804741 C 20.189416,9.4423226 18.680527,8.6423718 17.02075,8.6423718 Z"
     id="path2"
     style="stroke-width:0.613136" />
</svg>
