<?xml version="1.0" encoding="UTF-8" standalone="no"?>
<!-- Generator: Adobe Illustrator 18.0.0, SVG Export Plug-In . SVG Version: 6.00 Build 0)  -->

<svg
   version="1.1"
   id="Capa_1"
   x="0px"
   y="0px"
   viewBox="0 0 213.138 213.138"
   style="enable-background:new 0 0 213.138 213.138;"
   xml:space="preserve"
   sodipodi:docname="glass.svg"
   inkscape:version="1.1.2 (b8e25be833, 2022-02-05)"
   xmlns:inkscape="http://www.inkscape.org/namespaces/inkscape"
   xmlns:sodipodi="http://sodipodi.sourceforge.net/DTD/sodipodi-0.dtd"
   xmlns="http://www.w3.org/2000/svg"
   xmlns:svg="http://www.w3.org/2000/svg"><defs
   id="defs39" /><sodipodi:namedview
   id="namedview37"
   pagecolor="#ffffff"
   bordercolor="#666666"
   borderopacity="1.0"
   inkscape:pageshadow="2"
   inkscape:pageopacity="0.0"
   inkscape:pagecheckerboard="0"
   showgrid="false"
   inkscape:zoom="2.7569262"
   inkscape:cx="59.305179"
   inkscape:cy="88.141642"
   inkscape:window-width="1920"
   inkscape:window-height="1017"
   inkscape:window-x="-8"
   inkscape:window-y="-8"
   inkscape:window-maximized="1"
   inkscape:current-layer="Capa_1" />
<circle
   style="fill:#ce13ff;fill-opacity:1;stroke:#000000;stroke-width:4.49706"
   id="path859"
   cx="107.1524"
   cy="107.17908"
   r="103.41631" /><g
   id="g4"
   transform="matrix(0.45366755,0,0,0.45366755,58.222103,58.222103)">
	<path
   d="m 42.848,46.449 0.016,0.018 56.205,66.601 v 85.07 H 70.163 c -4.143,0 -7.5,3.357 -7.5,7.5 0,4.143 3.357,7.5 7.5,7.5 h 36.406 36.406 c 4.143,0 7.5,-3.357 7.5,-7.5 0,-4.143 -3.357,-7.5 -7.5,-7.5 h -28.906 v -85.07 l 56.209,-66.604 0.01,-0.011 28.789,-34.115 c 1.883,-2.231 2.301,-5.351 1.07,-7.997 C 198.918,1.693 196.264,0 193.346,0 H 19.792 c -2.918,0 -5.572,1.693 -6.801,4.34 -1.231,2.648 -0.813,5.767 1.07,7.997 z M 106.569,98.697 64.786,49.186 h 83.566 z M 177.202,15 161.013,34.186 H 52.127 L 35.936,15 Z"
   id="path2" />
</g>
<g
   id="g6">
</g>
<g
   id="g8">
</g>
<g
   id="g10">
</g>
<g
   id="g12">
</g>
<g
   id="g14">
</g>
<g
   id="g16">
</g>
<g
   id="g18">
</g>
<g
   id="g20">
</g>
<g
   id="g22">
</g>
<g
   id="g24">
</g>
<g
   id="g26">
</g>
<g
   id="g28">
</g>
<g
   id="g30">
</g>
<g
   id="g32">
</g>
<g
   id="g34">
</g>
</svg>
