<?xml version="1.0" encoding="UTF-8" standalone="no"?>
<svg
   version="1.1"
   viewBox="0 0 512 512"
   enable-background="new 0 0 512 512"
   id="svg16"
   sodipodi:docname="basket.svg"
   inkscape:version="1.3 (0e150ed6c4, 2023-07-21)"
   xmlns:inkscape="http://www.inkscape.org/namespaces/inkscape"
   xmlns:sodipodi="http://sodipodi.sourceforge.net/DTD/sodipodi-0.dtd"
   xmlns="http://www.w3.org/2000/svg"
   xmlns:svg="http://www.w3.org/2000/svg">
  <defs
     id="defs20" />
  <sodipodi:namedview
     id="namedview18"
     pagecolor="#ffffff"
     bordercolor="#666666"
     borderopacity="1.0"
     inkscape:pageshadow="2"
     inkscape:pageopacity="0.0"
     inkscape:pagecheckerboard="0"
     showgrid="false"
     inkscape:zoom="0.35355339"
     inkscape:cx="-50.911688"
     inkscape:cy="182.43355"
     inkscape:window-width="1920"
     inkscape:window-height="1017"
     inkscape:window-x="-8"
     inkscape:window-y="-8"
     inkscape:window-maximized="1"
     inkscape:current-layer="svg16"
     inkscape:showpageshadow="2"
     inkscape:deskcolor="#d1d1d1" />
  <circle
     style="fill:#ff4646;fill-opacity:1;stroke:#000000;stroke-width:10.8951"
     id="path859"
     cx="256"
     cy="256"
     r="250.5479" />
  <g
     id="g6"
     transform="translate(263.38116,111.8151)" />
  <g
     id="g8"
     transform="translate(263.38116,111.8151)" />
  <g
     id="g10"
     transform="translate(263.38116,111.8151)" />
  <g
     id="g12"
     transform="translate(263.38116,111.8151)" />
  <g
     id="g14"
     transform="translate(263.38116,111.8151)" />
  <g
     id="g16"
     transform="translate(263.38116,111.8151)" />
  <g
     id="g18"
     transform="translate(263.38116,111.8151)" />
  <g
     id="g20"
     transform="translate(263.38116,111.8151)" />
  <g
     id="g22"
     transform="translate(263.38116,111.8151)" />
  <g
     id="g24"
     transform="translate(263.38116,111.8151)" />
  <g
     id="g26"
     transform="translate(263.38116,111.8151)" />
  <g
     id="g28"
     transform="translate(263.38116,111.8151)" />
  <g
     id="g30"
     transform="translate(263.38116,111.8151)" />
  <g
     id="g32"
     transform="translate(263.38116,111.8151)" />
  <g
     id="g34"
     transform="translate(263.38116,111.8151)" />
  <g
     id="SVGRepo_bgCarrier"
     stroke-width="0"
     transform="matrix(14.388597,0,0,14.388597,6.638362,108.69255)"
     style="fill:none" />
  <g
     id="SVGRepo_tracerCarrier"
     stroke-linecap="round"
     stroke-linejoin="round"
     transform="matrix(14.388597,0,0,14.388597,6.638362,108.69255)"
     style="fill:none" />
  <g
     id="SVGRepo_iconCarrier"
     transform="matrix(14.388597,0,0,14.388597,83.321147,83.365079)"
     style="fill:none">
    <path
       d="m 3.33946,16.9997 c 2.76143,4.7829 8.87734,6.4217 13.66024,3.6603 1.9496,-1.1256 3.3768,-2.8086 4.1965,-4.7314 C 22.3875,13.1341 22.2958,9.83304 20.66,6.99972 19.0242,4.1664 16.2112,2.43642 13.1955,2.07088 11.1204,1.81935 8.94932,2.21386 6.99972,3.33946 2.21679,6.10089 0.578039,12.2168 3.33946,16.9997 Z"
       stroke="#000000"
       stroke-width="1.5"
       id="path1"
       style="fill:none" />
    <path
       d="m 16.9498,20.5732 c 0,0 -0.939,-6.5912 -2.9493,-10.0732 C 11.9901,7.01798 7.05029,3.42676 7.05029,3.42676"
       stroke="#000000"
       stroke-width="1.5"
       stroke-linecap="round"
       id="path2"
       style="fill:none" />
    <path
       d="M 21.8638,12.5803 C 16.4528,11.3933 9.05903,16.348 7.57739,20.8177"
       stroke="#000000"
       stroke-width="1.5"
       stroke-linecap="round"
       id="path3"
       style="fill:none" />
    <path
       d="M 16.4141,3.20884 C 14.9262,7.6299 7.67443,12.5122 2.28877,11.4515"
       stroke="#000000"
       stroke-width="1.5"
       stroke-linecap="round"
       id="path4"
       style="fill:none" />
  </g>
</svg>
