<?xml version="1.0" encoding="UTF-8" standalone="no"?>
<!-- Generator: Adobe Illustrator 19.0.0, SVG Export Plug-In . SVG Version: 6.00 Build 0)  -->

<svg
   version="1.1"
   id="Layer_1"
   x="0px"
   y="0px"
   viewBox="0 0 344.99271 344.99271"
   xml:space="preserve"
   sodipodi:docname="book.svg"
   width="344.99271"
   height="344.99271"
   inkscape:version="1.3 (0e150ed6c4, 2023-07-21)"
   xmlns:inkscape="http://www.inkscape.org/namespaces/inkscape"
   xmlns:sodipodi="http://sodipodi.sourceforge.net/DTD/sodipodi-0.dtd"
   xmlns="http://www.w3.org/2000/svg"
   xmlns:svg="http://www.w3.org/2000/svg"><defs
   id="defs71" /><sodipodi:namedview
   id="namedview69"
   pagecolor="#ffffff"
   bordercolor="#666666"
   borderopacity="1.0"
   inkscape:pageshadow="2"
   inkscape:pageopacity="0.0"
   inkscape:pagecheckerboard="0"
   showgrid="false"
   fit-margin-top="0"
   fit-margin-left="0"
   fit-margin-right="0"
   fit-margin-bottom="0"
   inkscape:zoom="0.81791338"
   inkscape:cx="-128.37545"
   inkscape:cy="170.55596"
   inkscape:window-width="1920"
   inkscape:window-height="1017"
   inkscape:window-x="-8"
   inkscape:window-y="-8"
   inkscape:window-maximized="1"
   inkscape:current-layer="Layer_1"
   inkscape:showpageshadow="2"
   inkscape:deskcolor="#d1d1d1" />&#10;&#10;&#10;&#10;&#10;&#10;<circle
   style="fill:#fbec65;fill-opacity:1;stroke:#000000;stroke-width:7.3414"
   id="path859"
   cx="172.49635"
   cy="172.49635"
   r="168.82565" />&#10;<g
   id="g38"
   transform="translate(-86.633987,-76.759933)">&#10;</g>&#10;<g
   id="g40"
   transform="translate(-86.633987,-76.759933)">&#10;</g>&#10;<g
   id="g42"
   transform="translate(-86.633987,-76.759933)">&#10;</g>&#10;<g
   id="g44"
   transform="translate(-86.633987,-76.759933)">&#10;</g>&#10;<g
   id="g46"
   transform="translate(-86.633987,-76.759933)">&#10;</g>&#10;<g
   id="g48"
   transform="translate(-86.633987,-76.759933)">&#10;</g>&#10;<g
   id="g50"
   transform="translate(-86.633987,-76.759933)">&#10;</g>&#10;<g
   id="g52"
   transform="translate(-86.633987,-76.759933)">&#10;</g>&#10;<g
   id="g54"
   transform="translate(-86.633987,-76.759933)">&#10;</g>&#10;<g
   id="g56"
   transform="translate(-86.633987,-76.759933)">&#10;</g>&#10;<g
   id="g58"
   transform="translate(-86.633987,-76.759933)">&#10;</g>&#10;<g
   id="g60"
   transform="translate(-86.633987,-76.759933)">&#10;</g>&#10;<g
   id="g62"
   transform="translate(-86.633987,-76.759933)">&#10;</g>&#10;<g
   id="g64"
   transform="translate(-86.633987,-76.759933)">&#10;</g>&#10;<g
   id="g66"
   transform="translate(-86.633987,-76.759933)">&#10;</g>&#10;<path
   d="m 172.49636,156.34243 v 97.04183 m 0,-97.04183 c 0,-22.64522 0,-33.96778 -4.40732,-42.61714 -3.87662,-7.60818 -10.06203,-13.793785 -17.67011,-17.670405 -8.64935,-4.40701 -19.97191,-4.40701 -42.61713,-4.40701 H 97.693277 c -5.66128,0 -8.491967,0 -10.654287,1.10173 -1.90202,0.9692 -3.44842,2.51561 -4.41762,4.41763 -1.10173,2.16231 -1.10173,4.992995 -1.10173,10.654275 v 109.17206 c 0,5.66179 0,8.49217 1.10173,10.65438 0.9692,1.90243 2.5156,3.44802 4.41762,4.41743 2.16232,1.10183 4.993007,1.10183 10.654287,1.10183 h 29.786583 c 5.46053,0 8.19074,0 10.83088,0.47106 2.34326,0.41748 4.6293,1.1089 6.81082,2.06214 2.45769,1.07251 4.72938,2.58677 9.27245,5.61629 l 18.10235,12.06756 m 0,-97.04183 c 0,-22.64522 0,-33.96778 4.40731,-42.61714 3.87662,-7.60818 10.06203,-13.793785 17.6697,-17.670405 8.64987,-4.40701 19.97242,-4.40701 42.61754,-4.40701 h 10.10852 c 5.66179,0 8.49217,0 10.65439,1.10173 1.90242,0.9692 3.44802,2.51561 4.41742,4.41763 1.10183,2.16231 1.10183,4.992995 1.10183,10.654275 v 109.17206 c 0,5.66179 0,8.49217 -1.10183,10.65438 -0.9694,1.90243 -2.515,3.44802 -4.41742,4.41743 -2.16222,1.10183 -4.9926,1.10183 -10.65439,1.10183 h -29.78678 c -5.46063,0 -8.19094,0 -10.83028,0.47106 -2.34416,0.41748 -4.6297,1.1089 -6.81112,2.06214 -2.45738,1.07251 -4.72978,2.58677 -9.27255,5.61629 l -18.10234,12.06756"
   stroke="#000000"
   stroke-width="20.2171"
   stroke-linecap="round"
   stroke-linejoin="round"
   id="path1"
   style="fill:none" /></svg>
