<?xml version="1.0" encoding="UTF-8" standalone="no"?>
<!-- Generator: Adobe Illustrator 18.0.0, SVG Export Plug-In . SVG Version: 6.00 Build 0)  -->

<svg
   version="1.1"
   id="Capa_1"
   x="0px"
   y="0px"
   viewBox="0 0 345.021 345.021"
   style="enable-background:new 0 0 345.021 345.021;"
   xml:space="preserve"
   sodipodi:docname="car - Copy.svg"
   inkscape:version="1.3 (0e150ed6c4, 2023-07-21)"
   xmlns:inkscape="http://www.inkscape.org/namespaces/inkscape"
   xmlns:sodipodi="http://sodipodi.sourceforge.net/DTD/sodipodi-0.dtd"
   xmlns="http://www.w3.org/2000/svg"
   xmlns:svg="http://www.w3.org/2000/svg"><defs
   id="defs41" /><sodipodi:namedview
   id="namedview39"
   pagecolor="#ffffff"
   bordercolor="#666666"
   borderopacity="1.0"
   inkscape:pageshadow="2"
   inkscape:pageopacity="0.0"
   inkscape:pagecheckerboard="0"
   showgrid="false"
   inkscape:zoom="0.8515507"
   inkscape:cx="151.48834"
   inkscape:cy="108.62536"
   inkscape:window-width="1920"
   inkscape:window-height="1017"
   inkscape:window-x="-8"
   inkscape:window-y="-8"
   inkscape:window-maximized="1"
   inkscape:current-layer="Capa_1"
   inkscape:showpageshadow="2"
   inkscape:deskcolor="#d1d1d1" />&#10;<circle
   style="fill:#1acbff;fill-opacity:1;stroke:#000000;stroke-width:7.3414"
   id="path859"
   cx="172.50246"
   cy="172.51241"
   r="168.82565" />&#10;<g
   id="g8">&#10;</g>&#10;<g
   id="g10">&#10;</g>&#10;<g
   id="g12">&#10;</g>&#10;<g
   id="g14">&#10;</g>&#10;<g
   id="g16">&#10;</g>&#10;<g
   id="g18">&#10;</g>&#10;<g
   id="g20">&#10;</g>&#10;<g
   id="g22">&#10;</g>&#10;<g
   id="g24">&#10;</g>&#10;<g
   id="g26">&#10;</g>&#10;<g
   id="g28">&#10;</g>&#10;<g
   id="g30">&#10;</g>&#10;<g
   id="g32">&#10;</g>&#10;<g
   id="g34">&#10;</g>&#10;<g
   id="g36">&#10;</g>&#10;<path
   d="m 262.63531,102.8686 c 0,27.85996 -24.48348,57.84822 -61.28871,94.86149 -37.68536,37.87738 -68.16969,64.90522 -95.58159,64.90522 -12.83382,0 -23.37932,-9.10529 -23.37932,-32.66064 0,-18.24259 7.82511,-36.82123 11.82568,-43.22214 1.32819,-2.1123 40.38974,10.30546 46.90267,2.75239 5.12073,-5.93685 -30.72437,-21.37904 -45.95853,-9.23332 0,-22.01913 13.69794,-27.76394 24.27544,-30.3243 12.76982,-3.12045 51.65535,18.89868 59.62448,8.4812 7.07301,-9.24931 -37.86138,-30.77238 -52.69549,-15.12215 0,-24.40347 20.97898,-26.35575 32.99669,-26.35575 12.00171,0 50.03911,17.25046 50.03911,6.40091 0,-12.17773 -29.30016,-19.92283 -44.07026,-13.88997 0,-20.674942 31.44447,-18.786671 37.3013,-17.666514 8.48121,-4.528644 20.77095,-9.409338 31.33246,-9.409338 13.00984,0 28.67607,4.912699 28.67607,20.482912 z"
   id="path1"
   style="stroke-width:4.09658" /></svg>
