<?xml version="1.0" encoding="UTF-8" standalone="no"?>
<!-- Generator: Adobe Illustrator 18.0.0, SVG Export Plug-In . SVG Version: 6.00 Build 0)  -->

<svg
   version="1.1"
   id="Capa_1"
   x="0px"
   y="0px"
   viewBox="0 0 345.021 345.021"
   style="enable-background:new 0 0 345.021 345.021;"
   xml:space="preserve"
   sodipodi:docname="bread.svg"
   inkscape:version="1.3 (0e150ed6c4, 2023-07-21)"
   xmlns:inkscape="http://www.inkscape.org/namespaces/inkscape"
   xmlns:sodipodi="http://sodipodi.sourceforge.net/DTD/sodipodi-0.dtd"
   xmlns="http://www.w3.org/2000/svg"
   xmlns:svg="http://www.w3.org/2000/svg"><defs
   id="defs41" /><sodipodi:namedview
   id="namedview39"
   pagecolor="#ffffff"
   bordercolor="#666666"
   borderopacity="1.0"
   inkscape:pageshadow="2"
   inkscape:pageopacity="0.0"
   inkscape:pagecheckerboard="0"
   showgrid="false"
   inkscape:zoom="0.8515507"
   inkscape:cx="151.48834"
   inkscape:cy="108.62536"
   inkscape:window-width="1920"
   inkscape:window-height="1017"
   inkscape:window-x="-8"
   inkscape:window-y="-8"
   inkscape:window-maximized="1"
   inkscape:current-layer="Capa_1"
   inkscape:showpageshadow="2"
   inkscape:deskcolor="#d1d1d1" />&#10;<circle
   style="fill:#f8bb3a;fill-opacity:1;stroke:#000000;stroke-width:7.3414"
   id="path859"
   cx="172.5105"
   cy="172.5105"
   r="168.82565" />&#10;<g
   id="g8">&#10;</g>&#10;<g
   id="g10">&#10;</g>&#10;<g
   id="g12">&#10;</g>&#10;<g
   id="g14">&#10;</g>&#10;<g
   id="g16">&#10;</g>&#10;<g
   id="g18">&#10;</g>&#10;<g
   id="g20">&#10;</g>&#10;<g
   id="g22">&#10;</g>&#10;<g
   id="g24">&#10;</g>&#10;<g
   id="g26">&#10;</g>&#10;<g
   id="g28">&#10;</g>&#10;<g
   id="g30">&#10;</g>&#10;<g
   id="g32">&#10;</g>&#10;<g
   id="g34">&#10;</g>&#10;<g
   id="g36">&#10;</g>&#10;<g
   id="SVGRepo_iconCarrier"
   transform="matrix(11.021097,0,0,11.021097,40.257334,40.257334)"><title
     id="title1">bread_line</title><g
     id="页面-1"
     stroke="none"
     stroke-width="1"
     fill="none"
     fill-rule="evenodd"><g
       id="Food"
       transform="translate(-48)"><g
         id="bread_line"
         transform="translate(48)"><path
           d="M 24,0 V 24 H 0 V 0 Z m -11.40651,23.257841 -0.01155,0.0017 -0.07106,0.03553 -0.019,0.0037 v 0 l -0.01516,-0.0037 -0.07106,-0.03553 c -0.0098,-0.0031 -0.01861,-4.89e-4 -0.02351,0.0054 l -0.0041,0.01092 -0.01709,0.427279 0.005,0.02039 0.01101,0.01222 0.103573,0.07398 0.01487,0.0039 v 0 l 0.01177,-0.0039 0.103575,-0.07398 0.0126,-0.01604 v 0 l 0.0034,-0.01656 -0.01709,-0.427279 c -0.002,-0.01013 -0.0085,-0.01653 -0.01607,-0.01799 z m 0.264901,-0.112555 -0.01384,0.002 -0.184705,0.09235 -0.01,0.01024 v 0 l -0.0027,0.01121 0.0179,0.429528 0.0048,0.01278 v 0 l 0.0085,0.0071 0.200954,0.09275 c 0.01209,0.0037 0.02289,-2.52e-4 0.02849,-0.008 l 0.004,-0.01406 -0.03415,-0.614631 c -0.0024,-0.01194 -0.01027,-0.01953 -0.01929,-0.02125 z m -0.715344,0.002 c -0.0098,-0.0049 -0.02087,-0.002 -0.02741,0.0053 l -0.0057,0.01394 -0.03415,0.614631 c -6.39e-4,0.0115 0.007,0.0207 0.01688,0.0234 l 0.01561,-0.0013 0.200955,-0.09275 0.0094,-0.0081 v 0 l 0.0039,-0.0118 0.0179,-0.429528 -0.0032,-0.01259 v 0 l -0.0095,-0.0089 z"
           id="MingCute"
           fill-rule="nonzero" /><path
           d="m 19.8388,4.28249 c 0.7908,0.79074 1.1803,1.71076 1.1611,2.71947 -0.0184,0.96141 -0.4063,1.89427 -0.9389,2.76439 -0.710864,1.161331 -1.794953,2.387521 -3.007526,3.644887 L 16.3808,14.099962 v 0 l -0.689332,0.693695 v 0 l -1.269978,1.268567 v 0 l -0.740353,0.729497 C 12.329372,18.109272 11.010633,19.29936 9.76635,20.061 8.89623,20.5936 7.96337,20.9815 7.00196,20.9999 5.99325,21.0191 5.07323,20.6296 4.28249,19.8388 3.09549,18.6518 2.58607,16.4945 2.88504,14.1937 3.1781942,11.937783 4.2562521,9.3913759 6.4501977,7.0730801 L 6.77322,6.74153 C 9.17029,4.35109 11.84,3.19089 14.1937,2.88504 16.4945,2.58607 18.6518,3.09549 19.8388,4.28249 Z M 18.4246,5.6967 C 17.8439,5.11594 16.4175,4.6129 14.4515,4.86837 c -0.4302,0.0559 -0.879,0.14783 -1.3401,0.28075 0.2593,0.29942 0.5994,0.51493 1.0333,0.65954 0.5239,0.17464 0.8071,0.74095 0.6324,1.2649 C 14.6025,7.59751 14.0362,7.88067 13.5122,7.70603 12.5027,7.36953 11.7236,6.76365 11.2039,5.91724 10.3676,6.35308 9.51905,6.93167 8.69038,7.67872 8.84875,7.9161 9.06217,8.17829 9.32062,8.43674 9.7441044,8.8602156 10.177655,9.1627864 10.495554,9.3004094 L 10.6091,9.3442 c 0.524,0.17464 0.8071,0.741 0.6325,1.2649 -0.1746,0.5239 -0.741,0.8071 -1.26491,0.6325 C 9.23899,10.9957 8.49066,10.4352 7.90641,9.85095 7.69125,9.63579 7.47931,9.39837 7.28511,9.14742 6.59822,9.98311 6.07541,10.8328 5.69088,11.6644 c 0.27112,0.6038 0.71631,0.9932 1.38272,1.2153 0.52394,0.1747 0.80711,0.741 0.63247,1.2649 -0.17464,0.524 -0.74096,0.8071 -1.26491,0.6325 -0.57354,-0.1912 -1.07271,-0.4693 -1.49218,-0.8291 -0.03237,0.1703 -0.05915,0.3383 -0.08061,0.5035 -0.25547,1.966 0.24757,3.3924 0.82833,3.9731 0.4467,0.4467 0.85652,0.5835 1.26705,0.5756 0.45782,-0.0087 1.03359,-0.2013 1.75848,-0.645 0.9513512,-0.582353 1.987875,-1.484833 3.13262,-2.580922 l 0.635276,-0.616308 v 0 l 0.994981,-0.986484 v 0 l 1.351735,-1.355412 v 0 l 0.633797,-0.646321 C 16.703635,10.899268 17.719906,9.7600677 18.3552,8.72223 18.7989,7.99734 18.9915,7.42157 19.0002,6.96375 19.0081,6.55322 18.8713,6.1434 18.4246,5.6967 Z"
           id="形状"
           fill="#000000" /></g></g></g></g></svg>
