<?xml version="1.0" encoding="UTF-8" standalone="no"?>
<!-- Generator: Adobe Illustrator 18.0.0, SVG Export Plug-In . SVG Version: 6.00 Build 0)  -->

<svg
   version="1.1"
   id="Capa_1"
   x="0px"
   y="0px"
   viewBox="0 0 345.021 345.021"
   style="enable-background:new 0 0 345.021 345.021;"
   xml:space="preserve"
   sodipodi:docname="bus.svg"
   inkscape:version="1.3 (0e150ed6c4, 2023-07-21)"
   xmlns:inkscape="http://www.inkscape.org/namespaces/inkscape"
   xmlns:sodipodi="http://sodipodi.sourceforge.net/DTD/sodipodi-0.dtd"
   xmlns="http://www.w3.org/2000/svg"
   xmlns:svg="http://www.w3.org/2000/svg"><defs
   id="defs41" /><sodipodi:namedview
   id="namedview39"
   pagecolor="#ffffff"
   bordercolor="#666666"
   borderopacity="1.0"
   inkscape:pageshadow="2"
   inkscape:pageopacity="0.0"
   inkscape:pagecheckerboard="0"
   showgrid="false"
   inkscape:zoom="0.60213727"
   inkscape:cx="49.822526"
   inkscape:cy="146.97645"
   inkscape:window-width="1920"
   inkscape:window-height="1017"
   inkscape:window-x="-8"
   inkscape:window-y="-8"
   inkscape:window-maximized="1"
   inkscape:current-layer="Capa_1"
   inkscape:showpageshadow="2"
   inkscape:deskcolor="#d1d1d1" />&#10;<circle
   style="fill:#175dff;fill-opacity:1;stroke:#000000;stroke-width:7.3414"
   id="path859"
   cx="172.5105"
   cy="172.5105"
   r="168.82565" />&#10;<g
   id="g8">&#10;</g>&#10;<g
   id="g10">&#10;</g>&#10;<g
   id="g12">&#10;</g>&#10;<g
   id="g14">&#10;</g>&#10;<g
   id="g16">&#10;</g>&#10;<g
   id="g18">&#10;</g>&#10;<g
   id="g20">&#10;</g>&#10;<g
   id="g22">&#10;</g>&#10;<g
   id="g24">&#10;</g>&#10;<g
   id="g26">&#10;</g>&#10;<g
   id="g28">&#10;</g>&#10;<g
   id="g30">&#10;</g>&#10;<g
   id="g32">&#10;</g>&#10;<g
   id="g34">&#10;</g>&#10;<g
   id="g36">&#10;</g>&#10;<path
   d="m 100.43052,110.72767 v 100.91197 c 0,11.53382 0,17.30126 2.24467,21.70637 1.97437,3.87481 5.12489,7.02574 9,8.9997 4.40533,2.24478 10.17225,2.24478 21.70618,2.24478 h 78.25826 c 11.53382,0 17.30126,0 21.70637,-2.24478 3.87481,-1.97396 7.02574,-5.12489 8.99971,-8.9997 2.24477,-4.40511 2.24477,-10.17255 2.24477,-21.70637 V 110.72767 m -144.15996,0 c 0,0 0,-30.89143 72.07998,-30.89143 72.07998,0 72.07998,30.89143 72.07998,30.89143 m -144.15996,0 h 144.15996 m -144.15996,72.07998 h 144.15996 m -20.59428,82.37711 v -20.59427 m -102.9714,20.59427 v -20.59427 m 10.29714,-30.89142 h 0.10297 m 82.27415,0 h 0.10297"
   stroke="#000000"
   stroke-width="20.5943"
   stroke-linecap="round"
   stroke-linejoin="round"
   id="path1"
   style="fill:none" /></svg>
