<?xml version="1.0" encoding="UTF-8" standalone="no"?>
<!-- Generator: Adobe Illustrator 18.0.0, SVG Export Plug-In . SVG Version: 6.00 Build 0)  -->

<svg
   version="1.1"
   id="Capa_1"
   x="0px"
   y="0px"
   viewBox="0 0 345.021 345.021"
   style="enable-background:new 0 0 345.021 345.021;"
   xml:space="preserve"
   sodipodi:docname="butcher.svg"
   inkscape:version="1.3 (0e150ed6c4, 2023-07-21)"
   xmlns:inkscape="http://www.inkscape.org/namespaces/inkscape"
   xmlns:sodipodi="http://sodipodi.sourceforge.net/DTD/sodipodi-0.dtd"
   xmlns="http://www.w3.org/2000/svg"
   xmlns:svg="http://www.w3.org/2000/svg"><defs
   id="defs41" /><sodipodi:namedview
   id="namedview39"
   pagecolor="#ffffff"
   bordercolor="#666666"
   borderopacity="1.0"
   inkscape:pageshadow="2"
   inkscape:pageopacity="0.0"
   inkscape:pagecheckerboard="0"
   showgrid="false"
   inkscape:zoom="0.42577535"
   inkscape:cx="-155.01132"
   inkscape:cy="-48.147457"
   inkscape:window-width="1920"
   inkscape:window-height="1017"
   inkscape:window-x="-8"
   inkscape:window-y="-8"
   inkscape:window-maximized="1"
   inkscape:current-layer="Capa_1"
   inkscape:showpageshadow="2"
   inkscape:deskcolor="#d1d1d1" />&#10;<circle
   style="fill:#f8bb3a;fill-opacity:1;stroke:#000000;stroke-width:7.3414"
   id="path859"
   cx="172.5105"
   cy="172.5105"
   r="168.82565" />&#10;<g
   id="g8">&#10;</g>&#10;<g
   id="g10">&#10;</g>&#10;<g
   id="g12">&#10;</g>&#10;<g
   id="g14">&#10;</g>&#10;<g
   id="g16">&#10;</g>&#10;<g
   id="g18">&#10;</g>&#10;<g
   id="g20">&#10;</g>&#10;<g
   id="g22">&#10;</g>&#10;<g
   id="g24">&#10;</g>&#10;<g
   id="g26">&#10;</g>&#10;<g
   id="g28">&#10;</g>&#10;<g
   id="g30">&#10;</g>&#10;<g
   id="g32">&#10;</g>&#10;<g
   id="g34">&#10;</g>&#10;<g
   id="g36">&#10;</g>&#10;<g
   id="g3"
   transform="matrix(0.35147546,0,0,0.35147546,82.532434,82.532589)">&#10;	<g
   id="g2">&#10;		<path
   d="m 446.381,5.746 c -3.049,-3.509 -7.372,-5.572 -12.019,-5.736 -4.646,-0.163 -9.104,1.593 -12.389,4.88 l -256.989,256.989 -6.24,6.241 -129.869,129.869 c -26.084,26.082 -26.084,68.37 0,94.451 26.08,26.082 68.368,26.082 94.449,0 l 118.064,-118.063 59.031,59.032 c 3.11,3.109 7.411,4.89 11.808,4.89 4.397,0 8.697,-1.781 11.805,-4.89 L 434.223,323.218 C 478.316,279.167 502.717,220.251 502.689,157.924 502.839,102.263 485.582,50.64 446.381,5.746 Z M 99.712,468.827 c -13.021,13.021 -34.205,13.021 -47.226,0 -13.02,-13.021 -13.02,-34.205 0.001,-47.225 L 164.985,309.104 212.211,356.33 Z M 194.163,279.927 384.41,89.678 c 4.53,7.516 8.249,15.175 11.031,23.194 4.702,13.603 7.064,28.285 7.072,45.042 -0.063,69.085 -36.297,91.636 -137.512,192.85 z M 312.227,397.99 288.615,374.378 c 98.815,-98.814 147.341,-131.131 147.291,-216.46 0.008,-19.921 -2.87,-38.543 -8.908,-55.966 -4.44,-12.848 -10.609,-24.979 -18.349,-36.51 l 23.709,-23.711 c 25.869,35.267 36.804,72.915 36.938,116.194 -0.057,101.957 -60.108,143.103 -157.069,240.065 z"
   id="path1" />&#10;	</g>&#10;</g></svg>
