<?xml version="1.0" encoding="UTF-8" standalone="no"?>
<!-- Generator: Adobe Illustrator 18.0.0, SVG Export Plug-In . SVG Version: 6.00 Build 0)  -->

<svg
   version="1.1"
   id="Capa_1"
   x="0px"
   y="0px"
   viewBox="0 0 345.021 345.021"
   style="enable-background:new 0 0 345.021 345.021;"
   xml:space="preserve"
   sodipodi:docname="car.svg"
   inkscape:version="1.1.2 (b8e25be833, 2022-02-05)"
   xmlns:inkscape="http://www.inkscape.org/namespaces/inkscape"
   xmlns:sodipodi="http://sodipodi.sourceforge.net/DTD/sodipodi-0.dtd"
   xmlns="http://www.w3.org/2000/svg"
   xmlns:svg="http://www.w3.org/2000/svg"><defs
   id="defs41" /><sodipodi:namedview
   id="namedview39"
   pagecolor="#ffffff"
   bordercolor="#666666"
   borderopacity="1.0"
   inkscape:pageshadow="2"
   inkscape:pageopacity="0.0"
   inkscape:pagecheckerboard="0"
   showgrid="false"
   inkscape:zoom="1.7031014"
   inkscape:cx="230.46191"
   inkscape:cy="123.89163"
   inkscape:window-width="1920"
   inkscape:window-height="1017"
   inkscape:window-x="-8"
   inkscape:window-y="-8"
   inkscape:window-maximized="1"
   inkscape:current-layer="Capa_1" />
<circle
   style="fill:#1acbff;fill-opacity:1;stroke:#000000;stroke-width:7.3414"
   id="path859"
   cx="172.50246"
   cy="172.51241"
   r="168.82565" /><g
   id="g6"
   transform="matrix(0.59837016,0,0,0.59837016,69.285364,69.285565)">
	<path
   style="fill:#211915"
   d="M 324.064,160.721 268.3,118.614 C 226.081,86.735 173.696,69.178 120.795,69.178 H 60.973 C 44.138,69.178 29.178,79.26 22.86,94.864 L 8.004,131.547 C 2.693,144.659 0,158.483 0,172.634 v 33.125 c 0,20.816 15.408,38.098 35.417,41.05 4.261,16.671 19.407,29.035 37.387,29.035 17.817,0 32.845,-12.143 37.262,-28.585 h 124.962 c 4.417,16.442 19.445,28.585 37.262,28.585 17.817,0 32.846,-12.143 37.263,-28.585 h 25.468 c 5.522,0 10,-4.478 10,-10 v -34.452 c 0,-16.445 -7.834,-32.178 -20.957,-42.086 z M 91.388,237.259 c 0,10.248 -8.337,18.585 -18.584,18.585 -10.248,0 -18.585,-8.337 -18.585,-18.585 0,-10.247 8.337,-18.584 18.585,-18.584 10.247,0 18.584,8.337 18.584,18.584 z m 199.487,0 c 0,10.248 -8.337,18.585 -18.585,18.585 -10.247,0 -18.584,-8.337 -18.584,-18.585 0,-10.247 8.337,-18.584 18.584,-18.584 10.248,0 18.585,8.337 18.585,18.584 z m 34.146,-10 h -15.468 c -4.417,-16.442 -19.446,-28.584 -37.263,-28.584 -17.817,0 -32.845,12.142 -37.262,28.584 H 110.066 c -4.417,-16.442 -19.445,-28.584 -37.262,-28.584 -17.527,0 -32.352,11.751 -37.036,27.784 C 26.691,223.942 20,215.627 20,205.759 v -33.125 c 0,-11.565 2.201,-22.862 6.541,-33.579 L 41.396,102.37 c 3.245,-8.014 10.93,-13.192 19.576,-13.192 h 59.823 c 48.579,0 96.684,16.122 135.452,45.396 l 55.765,42.107 c 8.146,6.15 13.009,15.917 13.009,26.125 z"
   id="path2" />
	<path
   style="fill:#211915"
   d="m 242.465,148.17 -18.34,-13.849 c -25.719,-19.42 -57.631,-30.115 -89.857,-30.115 -5.522,0 -10,4.478 -10,10 v 44.3 c 0,5.522 4.478,10 10,10 h 102.171 c 5.522,0 10,-4.478 10,-10 v -2.355 c -0.001,-3.136 -1.472,-6.091 -3.974,-7.981 z m -98.197,-23.568 c 23.45,1.852 46.269,10.161 65.394,23.904 h -65.394 z"
   id="path4" />
</g>
<g
   id="g8">
</g>
<g
   id="g10">
</g>
<g
   id="g12">
</g>
<g
   id="g14">
</g>
<g
   id="g16">
</g>
<g
   id="g18">
</g>
<g
   id="g20">
</g>
<g
   id="g22">
</g>
<g
   id="g24">
</g>
<g
   id="g26">
</g>
<g
   id="g28">
</g>
<g
   id="g30">
</g>
<g
   id="g32">
</g>
<g
   id="g34">
</g>
<g
   id="g36">
</g>
</svg>
