<?xml version="1.0" encoding="UTF-8" standalone="no"?>
<!-- Generator: Adobe Illustrator 19.0.0, SVG Export Plug-In . SVG Version: 6.00 Build 0)  -->

<svg
   version="1.1"
   id="Layer_1"
   x="0px"
   y="0px"
   viewBox="0 0 512 512"
   style="enable-background:new 0 0 512 512;"
   xml:space="preserve"
   sodipodi:docname="castle.svg"
   inkscape:version="1.3 (0e150ed6c4, 2023-07-21)"
   xmlns:inkscape="http://www.inkscape.org/namespaces/inkscape"
   xmlns:sodipodi="http://sodipodi.sourceforge.net/DTD/sodipodi-0.dtd"
   xmlns="http://www.w3.org/2000/svg"
   xmlns:svg="http://www.w3.org/2000/svg"><defs
   id="defs59" /><sodipodi:namedview
   id="namedview57"
   pagecolor="#ffffff"
   bordercolor="#666666"
   borderopacity="1.0"
   inkscape:pageshadow="2"
   inkscape:pageopacity="0.0"
   inkscape:pagecheckerboard="0"
   showgrid="false"
   inkscape:zoom="0.81152344"
   inkscape:cx="-50.522262"
   inkscape:cy="131.23466"
   inkscape:window-width="1920"
   inkscape:window-height="1017"
   inkscape:window-x="-8"
   inkscape:window-y="-8"
   inkscape:window-maximized="1"
   inkscape:current-layer="Layer_1"
   inkscape:showpageshadow="2"
   inkscape:deskcolor="#d1d1d1" />&#10;<circle
   style="fill:#8cfccb;fill-opacity:1;stroke:#000000;stroke-width:10.8899"
   id="path859"
   cx="256"
   cy="256"
   r="250.42706" />&#10;&#10;&#10;&#10;<g
   id="g26">&#10;</g>&#10;<g
   id="g28">&#10;</g>&#10;<g
   id="g30">&#10;</g>&#10;<g
   id="g32">&#10;</g>&#10;<g
   id="g34">&#10;</g>&#10;<g
   id="g36">&#10;</g>&#10;<g
   id="g38">&#10;</g>&#10;<g
   id="g40">&#10;</g>&#10;<g
   id="g42">&#10;</g>&#10;<g
   id="g44">&#10;</g>&#10;<g
   id="g46">&#10;</g>&#10;<g
   id="g48">&#10;</g>&#10;<g
   id="g50">&#10;</g>&#10;<g
   id="g52">&#10;</g>&#10;<g
   id="g54">&#10;</g>&#10;<g
   id="g2"
   transform="matrix(0.69718855,0,0,0.69718855,77.519383,77.519731)">&#10;	<rect
   x="189.214"
   y="242.64999"
   class="st0"
   width="41.742001"
   height="41.744999"
   id="rect1"
   style="fill:#000000" />&#10;	<rect
   x="281.04401"
   y="242.64999"
   class="st0"
   width="41.741001"
   height="41.744999"
   id="rect2"
   style="fill:#000000" />&#10;	<path
   class="st0"
   d="M 408.476,257.142 V 119.402 H 261.445 V 86.822 L 375.98,47.717 245.542,0 V 119.402 H 103.527 v 137.74 H 57.613 V 512 H 454.388 V 257.142 Z m 18.666,227.612 h -128.56 v -70.122 c 0,-23.513 -19.063,-42.58 -42.583,-42.58 -23.518,0 -42.58,19.067 -42.58,42.58 v 70.122 H 84.862 V 284.396 h 45.915 V 146.648 h 50.087 v 44.523 h 50.092 v -44.523 h 50.088 v 44.523 h 50.091 v -44.523 h 50.096 v 137.748 h 45.911 z"
   id="path2"
   style="fill:#000000" />&#10;</g></svg>
