<?xml version="1.0" encoding="UTF-8" standalone="no"?>
<!-- Generator: Adobe Illustrator 19.0.0, SVG Export Plug-In . SVG Version: 6.00 Build 0)  -->

<svg
   version="1.1"
   id="Layer_1"
   x="0px"
   y="0px"
   viewBox="0 0 463 463"
   style="enable-background:new 0 0 463 463;"
   xml:space="preserve"
   sodipodi:docname="cellar.svg"
   inkscape:version="1.3 (0e150ed6c4, 2023-07-21)"
   xmlns:inkscape="http://www.inkscape.org/namespaces/inkscape"
   xmlns:sodipodi="http://sodipodi.sourceforge.net/DTD/sodipodi-0.dtd"
   xmlns="http://www.w3.org/2000/svg"
   xmlns:svg="http://www.w3.org/2000/svg"><defs
   id="defs41" /><sodipodi:namedview
   id="namedview39"
   pagecolor="#ffffff"
   bordercolor="#666666"
   borderopacity="1.0"
   inkscape:pageshadow="2"
   inkscape:pageopacity="0.0"
   inkscape:pagecheckerboard="0"
   showgrid="false"
   inkscape:zoom="0.63456345"
   inkscape:cx="466.46242"
   inkscape:cy="330.14823"
   inkscape:window-width="1920"
   inkscape:window-height="1017"
   inkscape:window-x="-8"
   inkscape:window-y="-8"
   inkscape:window-maximized="1"
   inkscape:current-layer="Layer_1"
   inkscape:showpageshadow="2"
   inkscape:deskcolor="#d1d1d1" />&#10;<circle
   style="fill:#ce13ff;fill-opacity:1;stroke:#000000;stroke-width:9.82943"
   id="path859"
   cx="233.17094"
   cy="231.03163"
   r="226.04228" />&#10;<g
   id="g8">&#10;</g>&#10;<g
   id="g10">&#10;</g>&#10;<g
   id="g12">&#10;</g>&#10;<g
   id="g14">&#10;</g>&#10;<g
   id="g16">&#10;</g>&#10;<g
   id="g18">&#10;</g>&#10;<g
   id="g20">&#10;</g>&#10;<g
   id="g22">&#10;</g>&#10;<g
   id="g24">&#10;</g>&#10;<g
   id="g26">&#10;</g>&#10;<g
   id="g28">&#10;</g>&#10;<g
   id="g30">&#10;</g>&#10;<g
   id="g32">&#10;</g>&#10;<g
   id="g34">&#10;</g>&#10;<g
   id="g36">&#10;</g>&#10;<path
   fill="#000000"
   d="m 231.49266,86.789448 c -29.14383,0 -55.54509,2.387746 -74.28023,6.134107 -9.3689,1.87418 -16.84761,4.132534 -21.48304,6.324857 -2.31838,1.095828 -3.89643,2.196328 -4.58874,2.871958 l -0.009,0.009 0.009,0.009 c 0.69232,0.67564 2.27036,1.77614 4.58874,2.87197 4.63543,2.19232 12.11415,4.45134 21.48305,6.32486 18.73445,3.74635 45.13504,6.1341 74.27954,6.1341 29.14451,0 55.5451,-2.38775 74.28023,-6.13411 9.3689,-1.87418 16.84762,-4.13253 21.48305,-6.32486 2.31838,-1.09582 3.89642,-2.19632 4.58874,-2.87196 l 0.009,-0.009 -0.009,-0.009 c -0.69231,-0.67564 -2.27036,-1.77614 -4.58874,-2.871962 -4.63541,-2.192319 -12.11412,-4.45134 -21.48302,-6.324853 -18.73447,-3.746361 -45.13506,-6.134107 -74.27957,-6.134107 z M 178.13522,96.79397 a 21.342978,5.3357444 0 0 1 21.34298,5.33574 21.342978,5.3357444 0 0 1 -21.34298,5.33575 21.342978,5.3357444 0 0 1 -21.34298,-5.33575 21.342978,5.3357444 0 0 1 21.34298,-5.33574 z m -50.13465,17.73735 c -1.88886,8.02696 -4.94491,21.45102 -8.03697,36.86999 11.16171,2.89331 22.35677,5.32907 33.5665,7.33331 1.9929,-11.47385 4.47336,-22.96904 7.51673,-34.48758 -2.12496,-0.36483 -4.2019,-0.74234 -6.1908,-1.14052 -9.94449,-1.98756 -18.09484,-4.32862 -24.25762,-7.24327 -0.90908,-0.42953 -1.77147,-0.87173 -2.59851,-1.3326 z m 206.98419,0 c -0.82704,0.4602 -1.68943,0.90307 -2.59784,1.3326 -6.16278,2.91465 -14.31447,5.25571 -24.25762,7.24327 -1.95422,0.39151 -3.99515,0.76168 -6.08009,1.12051 3.51492,11.30777 6.36555,22.69892 8.63924,34.1621 10.8449,-1.98956 21.61777,-4.38064 32.29726,-7.17257 -3.07939,-15.34027 -6.11943,-28.69097 -8.00095,-36.68591 z m -44.95364,11.49719 c -15.38362,1.9889 -33.28171,3.20345 -52.53574,3.41288 v 36.14833 c 20.5993,-0.2968 41.08723,-2.03425 61.34438,-5.18434 -2.30104,-11.56123 -5.20568,-23.02574 -8.80864,-34.37754 z m -117.03622,0.005 c -3.0994,11.56856 -5.61321,23.12378 -7.62078,34.669 20.05039,3.02803 40.1248,4.64676 60.11583,4.90488 v -36.16568 c -19.23669,-0.20942 -37.12077,-1.42264 -52.49505,-3.4082 z m -56.27877,36.86799 -3.68032,20.06773 c 85.7334,20.63333 159.99896,19.97436 235.69583,0.0914 l -3.3215,-20.12376 c -73.88405,19.20734 -152.09206,19.86564 -228.69401,-0.0353 z m 233.86168,32.13185 c -11.30511,2.93866 -22.59421,5.4518 -33.90199,7.54474 2.43844,31.74968 1.18454,63.94223 -2.36773,96.37022 12.4056,-2.53648 24.54175,-5.68724 36.32841,-9.45094 3.30616,-20.11776 2.91132,-35.56207 2.91132,-59.31013 0,-9.94783 -1.18054,-22.23272 -2.97001,-35.15389 z m -238.1943,0.17074 c -1.77347,12.85782 -2.946,25.07867 -2.946,34.98315 0,15.86983 3.12008,38.16924 6.95248,59.62961 11.07433,3.22012 22.26739,5.9827 33.52848,8.28241 -3.0227,-31.69166 -4.02182,-63.52671 -1.71878,-95.5245 -11.75464,-2.04292 -23.68203,-4.49536 -35.81618,-7.37 z m 47.7189,9.30021 c -2.22501,31.99979 -1.08716,63.9509 2.11028,95.91867 21.04484,3.66166 42.2511,5.73059 63.27726,6.22282 v -96.50761 c -21.33964,-0.38418 -43.06613,-2.25435 -65.38754,-5.63321 z m 144.6667,0.12672 c -22.21204,3.51826 -44.54813,5.3811 -67.27373,5.56252 v 96.56163 c 21.88722,-0.11605 43.50232,-1.95422 64.45579,-5.50249 3.74169,-32.70277 5.15032,-64.97402 2.81794,-96.62099 z m -186.22081,98.20904 5.52916,21.27629 c 69.46472,21.60309 150.56804,21.62843 217.48294,0.48889 l 5.51716,-21.51906 c -70.71462,20.92078 -152.07539,20.90278 -228.52993,-0.24678 z m 7.49405,34.45958 c 2.54515,11.30177 4.39198,18.79716 4.47135,19.11663 0.52824,1.45733 3.13075,4.28661 8.64391,6.91646 5.06029,2.41176 12.14882,4.63343 20.5226,6.47226 -1.42197,-8.38112 -2.76258,-16.77224 -4.01247,-25.17137 -10.02454,-2.04493 -19.91901,-4.4907 -29.62539,-7.33398 z m 212.33995,0.87372 c -9.9605,2.90798 -20.17845,5.37043 -30.58182,7.39401 -1.33861,8.05698 -2.77459,16.12196 -4.28861,24.19227 8.28508,-1.83083 15.29692,-4.03516 20.31585,-6.42757 5.58653,-2.66387 8.20504,-5.54584 8.68392,-6.98516 2.17432,-6.52294 4.12053,-12.549 5.87066,-18.17355 z M 168.16071,346.964 c 1.27858,8.38646 2.64787,16.77692 4.09785,25.17138 15.76513,2.45711 34.36554,3.83373 53.23073,4.07517 v -23.80809 c -19.21869,-0.42953 -38.45738,-2.24101 -57.32924,-5.43846 z m 127.09077,0.81571 c -18.8792,2.99068 -38.26596,4.56673 -57.7561,4.71546 v 23.71472 c 18.91388,-0.24211 37.56164,-1.62541 53.35344,-4.09519 1.55403,-8.13034 3.0267,-16.24267 4.40332,-24.33566 z"
   id="path1"
   style="stroke-width:0.666968" /></svg>
