<?xml version="1.0" encoding="UTF-8" standalone="no"?>
<!-- Generator: Adobe Illustrator 19.0.0, SVG Export Plug-In . SVG Version: 6.00 Build 0)  -->

<svg
   version="1.1"
   id="Layer_1"
   x="0px"
   y="0px"
   viewBox="0 0 463 463"
   style="enable-background:new 0 0 463 463;"
   xml:space="preserve"
   sodipodi:docname="wine-svgrepo-com.svg"
   inkscape:version="1.1.2 (b8e25be833, 2022-02-05)"
   xmlns:inkscape="http://www.inkscape.org/namespaces/inkscape"
   xmlns:sodipodi="http://sodipodi.sourceforge.net/DTD/sodipodi-0.dtd"
   xmlns="http://www.w3.org/2000/svg"
   xmlns:svg="http://www.w3.org/2000/svg"><defs
   id="defs41" /><sodipodi:namedview
   id="namedview39"
   pagecolor="#ffffff"
   bordercolor="#666666"
   borderopacity="1.0"
   inkscape:pageshadow="2"
   inkscape:pageopacity="0.0"
   inkscape:pagecheckerboard="0"
   showgrid="false"
   inkscape:zoom="1.2691269"
   inkscape:cx="315.57129"
   inkscape:cy="307.29789"
   inkscape:window-width="1920"
   inkscape:window-height="1017"
   inkscape:window-x="-8"
   inkscape:window-y="-8"
   inkscape:window-maximized="1"
   inkscape:current-layer="Layer_1" />
<circle
   style="fill:#ce13ff;fill-opacity:1;stroke:#000000;stroke-width:9.82943"
   id="path859"
   cx="233.17094"
   cy="231.03163"
   r="226.04228" /><g
   id="g6"
   transform="matrix(0.63096245,0,0,0.63096245,85.432144,85.432193)">
	<g
   id="g4">
		<path
   d="m 327.222,279.154 -8.84,-88.4 C 317.999,186.92 314.772,184 310.919,184 H 261.81 c -1.346,-8.385 -4.916,-16.328 -10.4,-22.909 l -21.458,-25.749 c -4.857,-5.83 -7.533,-13.219 -7.533,-20.806 V 45.055 c 4.765,-2.647 8,-7.728 8,-13.555 v -16 c 0,-8.547 -6.953,-15.5 -15.5,-15.5 h -32 c -8.547,0 -15.5,6.953 -15.5,15.5 v 16 c 0,5.827 3.235,10.908 8,13.555 v 69.481 c 0,7.587 -2.675,14.977 -7.533,20.806 l -21.458,25.749 c -7.1,8.52 -11.009,19.319 -11.009,30.409 v 248 c 0,12.958 10.542,23.5 23.5,23.5 0,0 66.486,0 67,0 h 58 c 4.142,0 7.5,-3.358 7.5,-7.5 0,-4.142 -3.358,-7.5 -7.5,-7.5 -11.855,0 -21.5,-9.645 -21.5,-21.5 v -67 c 0,-0.3 -0.023,-0.595 -0.057,-0.885 17.749,-1.827 34.369,-10.163 46.444,-23.506 13.741,-15.184 20.454,-35.579 18.416,-55.955 z M 182.419,15.5 c 0,-0.276 0.224,-0.5 0.5,-0.5 h 32 c 0.276,0 0.5,0.224 0.5,0.5 v 16 c 0,0.276 -0.224,0.5 -0.5,0.5 h -32 c -0.276,0 -0.5,-0.224 -0.5,-0.5 z m -32,176 c 0,-7.588 2.676,-14.977 7.533,-20.806 l 21.458,-25.749 c 7.1,-8.52 11.009,-19.319 11.009,-30.409 V 47 h 17 v 67.536 c 0,11.089 3.91,21.889 11.009,30.409 l 21.458,25.749 c 3.232,3.878 5.49,8.448 6.645,13.306 h -47.612 c -3.853,0 -7.08,2.92 -7.463,6.754 L 187.332,232 h -36.913 v -40.5 z m 10e-4,55.5 h 35.412 l -3.215,32.154 c -2.038,20.376 4.675,40.771 18.416,55.954 4.276,4.725 9.123,8.821 14.387,12.225 V 367.5 c 0,4.687 -3.813,8.5 -8.5,8.5 h -56.5 z m 47.123,33.646 3.364,-33.646 h 6.012 c 4.687,0 8.5,3.813 8.5,8.5 V 288 h -18.118 c -0.07,-2.442 -0.004,-4.897 0.242,-7.354 z m 49.876,78.854 v 67 c 0,11.855 -9.645,21.5 -21.5,21.5 -0.514,0 -67,0 -67,0 -4.687,0 -8.5,-3.813 -8.5,-8.5 V 391 h 56.5 c 12.958,0 23.5,-10.542 23.5,-23.5 v -12.779 c 5.484,1.964 11.205,3.292 17.057,3.894 -0.034,0.291 -0.057,0.585 -0.057,0.885 z m 50.266,-34.457 C 286.782,337.091 271.21,344 254.962,344 h -0.086 c -16.248,0 -31.82,-6.909 -42.723,-18.957 -5.782,-6.389 -9.977,-13.947 -12.418,-22.043 h 110.368 c -2.441,8.096 -6.636,15.654 -12.418,22.043 z M 312.538,288 h -82.119 v -32.5 c 0,-12.958 -10.542,-23.5 -23.5,-23.5 h -4.512 l 3.3,-33 h 98.425 l 8.164,81.646 c 0.246,2.456 0.312,4.911 0.242,7.354 z"
   id="path2" />
	</g>
</g>
<g
   id="g8">
</g>
<g
   id="g10">
</g>
<g
   id="g12">
</g>
<g
   id="g14">
</g>
<g
   id="g16">
</g>
<g
   id="g18">
</g>
<g
   id="g20">
</g>
<g
   id="g22">
</g>
<g
   id="g24">
</g>
<g
   id="g26">
</g>
<g
   id="g28">
</g>
<g
   id="g30">
</g>
<g
   id="g32">
</g>
<g
   id="g34">
</g>
<g
   id="g36">
</g>
</svg>
