<?xml version="1.0" encoding="UTF-8" standalone="no"?>
<!-- Generator: Adobe Illustrator 19.0.0, SVG Export Plug-In . SVG Version: 6.00 Build 0)  -->

<svg
   version="1.1"
   id="Layer_1"
   x="0px"
   y="0px"
   viewBox="0 0 512 512"
   style="enable-background:new 0 0 512 512;"
   xml:space="preserve"
   sodipodi:docname="church.svg"
   inkscape:version="1.3 (0e150ed6c4, 2023-07-21)"
   xmlns:inkscape="http://www.inkscape.org/namespaces/inkscape"
   xmlns:sodipodi="http://sodipodi.sourceforge.net/DTD/sodipodi-0.dtd"
   xmlns="http://www.w3.org/2000/svg"
   xmlns:svg="http://www.w3.org/2000/svg"><defs
   id="defs59" /><sodipodi:namedview
   id="namedview57"
   pagecolor="#ffffff"
   bordercolor="#666666"
   borderopacity="1.0"
   inkscape:pageshadow="2"
   inkscape:pageopacity="0.0"
   inkscape:pagecheckerboard="0"
   showgrid="false"
   inkscape:zoom="0.81152344"
   inkscape:cx="-50.522262"
   inkscape:cy="131.23466"
   inkscape:window-width="1920"
   inkscape:window-height="1017"
   inkscape:window-x="-8"
   inkscape:window-y="-8"
   inkscape:window-maximized="1"
   inkscape:current-layer="Layer_1"
   inkscape:showpageshadow="2"
   inkscape:deskcolor="#d1d1d1" />&#10;<circle
   style="fill:#8cfccb;fill-opacity:1;stroke:#000000;stroke-width:10.8899"
   id="path859"
   cx="256"
   cy="256"
   r="250.42706" />&#10;&#10;&#10;&#10;<g
   id="g26">&#10;</g>&#10;<g
   id="g28">&#10;</g>&#10;<g
   id="g30">&#10;</g>&#10;<g
   id="g32">&#10;</g>&#10;<g
   id="g34">&#10;</g>&#10;<g
   id="g36">&#10;</g>&#10;<g
   id="g38">&#10;</g>&#10;<g
   id="g40">&#10;</g>&#10;<g
   id="g42">&#10;</g>&#10;<g
   id="g44">&#10;</g>&#10;<g
   id="g46">&#10;</g>&#10;<g
   id="g48">&#10;</g>&#10;<g
   id="g50">&#10;</g>&#10;<g
   id="g52">&#10;</g>&#10;<g
   id="g54">&#10;</g>&#10;<path
   fill-rule="evenodd"
   clip-rule="evenodd"
   d="m 255.99979,84.09146 c 9.49451,0 17.19086,7.696689 17.19086,17.19085 v 17.19085 h 17.19085 c 9.49451,0 17.19086,7.69669 17.19086,17.19086 0,9.49416 -7.69635,17.19085 -17.19086,17.19085 h -17.19085 v 15.95398 l 137.64716,80.96978 c 8.18457,4.81344 10.91619,15.34971 6.10104,23.53256 -4.78938,8.1433 -15.24657,10.88869 -23.41222,6.17152 v 114.04412 c 0,18.98902 -15.3927,34.38171 -34.38171,34.38171 H 307.57236 290.3815 221.61809 204.42723 152.85467 c -18.98851,0 -34.38171,-15.39269 -34.38171,-34.38171 V 279.48271 c -8.166,4.71717 -18.622675,1.97178 -23.412735,-6.17152 -4.81378,-8.18285 -2.08216,-18.71912 6.101195,-23.53256 l 137.64752,-80.96961 v -15.95415 h -17.19085 c -9.49434,0 -17.19086,-7.69669 -17.19086,-17.19085 0,-9.49417 7.69652,-17.19086 17.19086,-17.19086 h 17.19085 v -17.19085 c 0,-9.494161 7.69634,-17.19085 17.19085,-17.19085 z m -17.19085,309.43537 h 34.38171 v -51.57256 c 0,-9.49451 -7.69635,-17.19085 -17.19086,-17.19085 -9.49451,0 -17.19085,7.69634 -17.19085,17.19085 z m 68.76342,0 v -51.57256 c 0,-28.48353 -23.08904,-51.57256 -51.57257,-51.57256 -28.48352,0 -51.57256,23.08903 -51.57256,51.57256 v 51.57256 H 152.85467 V 259.25939 l 103.14512,-60.67375 103.14513,60.67375 v 134.26744 z"
   fill="#000000"
   id="path1"
   style="stroke-width:17.1908" /></svg>
