<?xml version="1.0" encoding="UTF-8" standalone="no"?>
<!-- Generator: Adobe Illustrator 19.1.0, SVG Export Plug-In . SVG Version: 6.00 Build 0)  -->

<svg
   version="1.1"
   id="Capa_1"
   x="0px"
   y="0px"
   viewBox="0 0 488.652 488.652"
   style="enable-background:new 0 0 488.652 488.652;"
   xml:space="preserve"
   sodipodi:docname="wrench.svg"
   inkscape:version="1.1.2 (b8e25be833, 2022-02-05)"
   xmlns:inkscape="http://www.inkscape.org/namespaces/inkscape"
   xmlns:sodipodi="http://sodipodi.sourceforge.net/DTD/sodipodi-0.dtd"
   xmlns="http://www.w3.org/2000/svg"
   xmlns:svg="http://www.w3.org/2000/svg"><defs
   id="defs49" /><sodipodi:namedview
   id="namedview47"
   pagecolor="#ffffff"
   bordercolor="#666666"
   borderopacity="1.0"
   inkscape:pageshadow="2"
   inkscape:pageopacity="0.0"
   inkscape:pagecheckerboard="0"
   showgrid="false"
   inkscape:zoom="0.85029836"
   inkscape:cx="313.4194"
   inkscape:cy="199.92982"
   inkscape:window-width="1920"
   inkscape:window-height="1017"
   inkscape:window-x="-8"
   inkscape:window-y="-8"
   inkscape:window-maximized="1"
   inkscape:current-layer="Capa_1" />
<circle
   style="fill:#ff4545;fill-opacity:1;stroke:#000000;stroke-width:10.3941"
   id="path859"
   cx="244.62004"
   cy="244.62003"
   r="239.02652" /><g
   id="g14"
   transform="matrix(0.51901518,0,0,0.51901518,117.51701,117.51712)">
	<g
   id="g12">
		<path
   d="m 302.839,302.835 c -2.2,2.2 -3.5,5.3 -3.5,8.5 0,3.2 1.3,6.3 3.5,8.5 2.2,2.2 5.3,3.5 8.5,3.5 3.2,0 6.3,-1.3 8.5,-3.5 2.2,-2.2 3.5,-5.3 3.5,-8.5 0,-3.2 -1.3,-6.3 -3.5,-8.5 -2.2,-2.2 -5.3,-3.5 -8.5,-3.5 -3.2,-0.1 -6.3,1.2 -8.5,3.5 z"
   id="path2" />
		<path
   d="m 376.539,376.535 c -4.7,4.7 -4.7,12.3 0,17 2.3,2.4 5.4,3.5 8.5,3.5 3.1,0 6.1,-1.2 8.5,-3.5 4.7,-4.7 4.7,-12.3 0,-17 -4.7,-4.7 -12.3,-4.7 -17,0 z"
   id="path4" />
		<path
   d="m 339.639,339.635 c -4.7,4.7 -4.7,12.3 0,17 2.3,2.3 5.4,3.5 8.5,3.5 3.1,0 6.1,-1.2 8.5,-3.5 4.7,-4.7 4.7,-12.3 0,-17 -4.7,-4.7 -12.3,-4.7 -17,0 z"
   id="path6" />
		<path
   d="m 421.939,409.935 c -3.2,0 -6.3,1.3 -8.5,3.5 -2.2,2.2 -3.5,5.3 -3.5,8.5 0,3.2 1.3,6.3 3.5,8.5 2.2,2.2 5.3,3.5 8.5,3.5 3.1,0 6.3,-1.3 8.5,-3.5 2.2,-2.2 3.5,-5.3 3.5,-8.5 0,-3.2 -1.3,-6.3 -3.5,-8.5 -2.3,-2.2 -5.4,-3.5 -8.5,-3.5 z"
   id="path8" />
		<path
   d="m 485.139,370.535 -134.8,-134.7 c -11.8,-11.8 -17.6,-28.9 -15.4,-45.5 6.9,-52.3 -10.5,-103.7 -47.8,-141 -18.9,-18.9 -42.3,-33.2 -67.5,-41.3 -24.5,-7.8 -50.8,-10 -76.3,-6.2 -8,1.2 -14.5,6.7 -17.1,14.4 -2.5,7.7 -0.6,16 5.2,21.7 l 47.3,47.4 c 8.6,8.6 13.3,20 13.3,32.2 0,12.2 -4.7,23.6 -13.3,32.2 l -29.1,29.1 c -8.6,8.6 -20,13.3 -32.2,13.3 -12.2,0 -23.6,-4.7 -32.2,-13.3 l -47.3,-47.3 c -5.7,-5.7 -14,-7.7 -21.7,-5.2 -7.7,2.5 -13.2,9.1 -14.4,17.1 -3.8,25.5 -1.7,51.8 6.2,76.3 8.1,25.3 22.4,48.6 41.3,67.5 31.9,31.9 74.2,49.3 118.5,49.3 7.4,0 14.9,-0.5 22.4,-1.5 16.7,-2.2 33.7,3.6 45.5,15.4 l 134.7,134.7 c 2.3,2.3 5.4,3.5 8.5,3.5 3.1,0 6.1,-1.2 8.5,-3.5 4.7,-4.7 4.7,-12.3 0,-17 l -134.6,-134.7 c -17.1,-17.1 -41.6,-25.4 -65.6,-22.2 -44.9,5.9 -88.9,-9 -120.9,-41 -30.9,-30.9 -46.2,-74.6 -41.4,-118 l 43.4,43.5 c 13.1,13.1 30.6,20.4 49.1,20.4 18.5,0 36,-7.2 49.1,-20.4 l 29.1,-29.1 c 13.1,-13.1 20.4,-30.6 20.4,-49.1 0,-18.5 -7.2,-36 -20.4,-49.1 l -43.4,-43.4 c 43.3,-4.8 87,10.5 117.9,41.3 32,32 46.9,76 41,120.9 -3.2,24 5.1,48.6 22.2,65.6 l 134.7,134.7 c 4.7,4.7 12.3,4.7 17,0 4.8,-4.7 4.8,-12.3 0.1,-17 z"
   id="path10" />
	</g>
</g>
<g
   id="g16">
</g>
<g
   id="g18">
</g>
<g
   id="g20">
</g>
<g
   id="g22">
</g>
<g
   id="g24">
</g>
<g
   id="g26">
</g>
<g
   id="g28">
</g>
<g
   id="g30">
</g>
<g
   id="g32">
</g>
<g
   id="g34">
</g>
<g
   id="g36">
</g>
<g
   id="g38">
</g>
<g
   id="g40">
</g>
<g
   id="g42">
</g>
<g
   id="g44">
</g>
</svg>
