<?xml version="1.0" encoding="UTF-8" standalone="no"?>
<!-- Generator: Adobe Illustrator 19.0.0, SVG Export Plug-In . SVG Version: 6.00 Build 0)  -->

<svg
   version="1.1"
   id="Layer_1"
   x="0px"
   y="0px"
   viewBox="0 0 344.99271 344.99271"
   xml:space="preserve"
   sodipodi:docname="art.svg"
   width="344.99271"
   height="344.99271"
   inkscape:version="1.1.2 (0a00cf5339, 2022-02-04, custom)"
   xmlns:inkscape="http://www.inkscape.org/namespaces/inkscape"
   xmlns:sodipodi="http://sodipodi.sourceforge.net/DTD/sodipodi-0.dtd"
   xmlns="http://www.w3.org/2000/svg"
   xmlns:svg="http://www.w3.org/2000/svg"><defs
   id="defs71" /><sodipodi:namedview
   id="namedview69"
   pagecolor="#ffffff"
   bordercolor="#666666"
   borderopacity="1.0"
   inkscape:pageshadow="2"
   inkscape:pageopacity="0.0"
   inkscape:pagecheckerboard="0"
   showgrid="false"
   fit-margin-top="0"
   fit-margin-left="0"
   fit-margin-right="0"
   fit-margin-bottom="0"
   inkscape:zoom="1.6358268"
   inkscape:cx="74.88568"
   inkscape:cy="176.66907"
   inkscape:window-width="1920"
   inkscape:window-height="1017"
   inkscape:window-x="-8"
   inkscape:window-y="-8"
   inkscape:window-maximized="1"
   inkscape:current-layer="Layer_1" />





<circle
   style="fill:#ffdd55;fill-opacity:1;stroke:#000000;stroke-width:7.3414"
   id="path859"
   cx="172.49635"
   cy="172.49635"
   r="168.82565" /><g
   id="g99"
   transform="matrix(0.42818802,0,0,0.42818802,63.736596,63.736596)"><g
     id="g6">
	<g
   id="g4">
		<path
   d="M 439.6,24.4 C 397.6,18.1 340,15.1 280.5,16.3 230.8,17.3 185.8,21.4 154.7,27.5 139.1,5.1 120,0 106,0 90.8,0 74.4,5.5 56,16.8 45.7,20.6 31.1,17.7 24.1,10.6 20.1,6.5 14,5.3 8.7,7.5 3.5,9.6 0,14.8 0,20.5 c 0,53 44.7,99.5 95.6,99.5 10.2,0 42,0 59.7,-28.7 31.1,6.1 75.9,10.2 125.2,11.1 78.5,1.3 104.7,1 159.1,-8.1 C 488,86.1 508,76.8 508,59.3 508,41.8 488.2,31.7 439.6,24.4 Z M 134,72 C 123.6,91.1 102.5,91.7 95.6,91.7 68.5,91.7 43.3,71.6 33,45.4 c 24.7,4 36.2,-3.5 36.9,-4 14,-8.8 26.2,-13.2 36.1,-13.2 7.3,0 17.9,2.1 28,19.1 z m 147.1,2.2 c -47,-1 -89.5,-4.6 -118.9,-10.2 v -9.4 0 C 191.6,49 234,45.3 281.1,44.4 c 8.4,-0.2 130.6,-8.1 188.8,14.9 -56,22.6 -180.4,15 -188.8,14.9 z"
   id="path2" />
	</g>
</g><g
     id="g12">
	<g
   id="g10">
		<path
   d="m 457.1,169.7 c -17,-19.4 -42.2,-30.6 -69.1,-30.6 -36.2,0 -67.9,19.8 -80.7,50.5 -14.2,33.9 -48,51.7 -88.4,45.9 -23.2,-3.3 -41.7,-13.1 -53.5,-28.2 C 148.4,185.5 122,173 93,173 14.1,173 4.4,247.4 2.7,257.1 -6,307 6.7,358.4 38.3,402 78,456.7 144.6,508 261.1,508 384.7,508 487.4,433.3 505.3,330.4 515.1,273.6 498,216.6 457.1,169.7 Z m 20.4,155.8 C 462,414.9 371,479.8 261.1,479.8 160.7,479.8 96.3,434 61.1,385.4 34,348.1 23.1,304.2 30.5,261.9 c 1.4,-8.2 8.3,-60.7 62.5,-60.7 20.2,0 38.5,8.6 50.2,23.5 16.4,21 41.2,34.4 71.7,38.8 53.4,7.7 99.1,-16.9 118.4,-62.9 8.5,-20.2 29.9,-33.2 54.7,-33.2 18.8,0 36.3,7.6 47.9,20.9 35.2,40.3 49.9,89.1 41.6,137.2 z"
   id="path8" />
	</g>
</g><g
     id="g18">
	<g
   id="g16">
		<path
   d="m 399.1,210.6 c -23.9,0 -43.4,19.5 -43.4,43.4 0,23.9 19.5,43.4 43.4,43.4 23.9,0 43.4,-19.5 43.4,-43.4 0,-23.9 -19.5,-43.4 -43.4,-43.4 z m 0,58.6 c -8.4,0 -15.2,-6.8 -15.2,-15.2 0,-8.4 6.8,-15.2 15.2,-15.2 8.4,0 15.2,6.8 15.2,15.2 0,8.4 -6.8,15.2 -15.2,15.2 z"
   id="path14" />
	</g>
</g><g
     id="g24">
	<g
   id="g22">
		<path
   d="m 340.6,328 c -23.9,0 -43.4,19.5 -43.4,43.4 0,23.9 19.5,43.4 43.4,43.4 23.9,0 43.4,-19.5 43.4,-43.4 -0.1,-24 -19.5,-43.4 -43.4,-43.4 z m 0,58.5 c -8.4,0 -15.2,-6.8 -15.2,-15.2 0,-8.4 6.8,-15.2 15.2,-15.2 8.4,0 15.2,6.8 15.2,15.2 -0.1,8.4 -6.9,15.2 -15.2,15.2 z"
   id="path20" />
	</g>
</g><g
     id="g30">
	<g
   id="g28">
		<path
   d="m 204.1,341.9 c -23.9,0 -43.4,19.5 -43.4,43.4 0,23.9 19.5,43.4 43.4,43.4 23.9,0 43.4,-19.5 43.4,-43.4 -0.1,-24 -19.5,-43.4 -43.4,-43.4 z m 0,58.5 c -8.4,0 -15.2,-6.8 -15.2,-15.2 0,-8.4 6.8,-15.2 15.2,-15.2 8.4,0 15.2,6.8 15.2,15.2 -0.1,8.4 -6.9,15.2 -15.2,15.2 z"
   id="path26" />
	</g>
</g><g
     id="g36">
	<g
   id="g34">
		<path
   d="m 95.8,263.9 c -23.9,0 -43.4,19.5 -43.4,43.4 0,23.9 19.5,43.4 43.4,43.4 23.9,0 43.4,-19.5 43.4,-43.4 0,-23.9 -19.4,-43.4 -43.4,-43.4 z m 0,58.6 c -8.4,0 -15.2,-6.8 -15.2,-15.2 0,-8.4 6.8,-15.2 15.2,-15.2 8.4,0 15.2,6.8 15.2,15.2 0,8.4 -6.8,15.2 -15.2,15.2 z"
   id="path32" />
	</g>
</g></g>
<g
   id="g38"
   transform="translate(-86.633987,-76.759933)">
</g>
<g
   id="g40"
   transform="translate(-86.633987,-76.759933)">
</g>
<g
   id="g42"
   transform="translate(-86.633987,-76.759933)">
</g>
<g
   id="g44"
   transform="translate(-86.633987,-76.759933)">
</g>
<g
   id="g46"
   transform="translate(-86.633987,-76.759933)">
</g>
<g
   id="g48"
   transform="translate(-86.633987,-76.759933)">
</g>
<g
   id="g50"
   transform="translate(-86.633987,-76.759933)">
</g>
<g
   id="g52"
   transform="translate(-86.633987,-76.759933)">
</g>
<g
   id="g54"
   transform="translate(-86.633987,-76.759933)">
</g>
<g
   id="g56"
   transform="translate(-86.633987,-76.759933)">
</g>
<g
   id="g58"
   transform="translate(-86.633987,-76.759933)">
</g>
<g
   id="g60"
   transform="translate(-86.633987,-76.759933)">
</g>
<g
   id="g62"
   transform="translate(-86.633987,-76.759933)">
</g>
<g
   id="g64"
   transform="translate(-86.633987,-76.759933)">
</g>
<g
   id="g66"
   transform="translate(-86.633987,-76.759933)">
</g>
</svg>
