<?xml version="1.0" encoding="UTF-8" standalone="no"?>
<svg
   version="1.1"
   viewBox="0 0 512 512"
   enable-background="new 0 0 512 512"
   id="svg16"
   sodipodi:docname="diy.svg"
   inkscape:version="1.3 (0e150ed6c4, 2023-07-21)"
   xmlns:inkscape="http://www.inkscape.org/namespaces/inkscape"
   xmlns:sodipodi="http://sodipodi.sourceforge.net/DTD/sodipodi-0.dtd"
   xmlns="http://www.w3.org/2000/svg"
   xmlns:svg="http://www.w3.org/2000/svg">
  <defs
     id="defs20" />
  <sodipodi:namedview
     id="namedview18"
     pagecolor="#ffffff"
     bordercolor="#666666"
     borderopacity="1.0"
     inkscape:pageshadow="2"
     inkscape:pageopacity="0.0"
     inkscape:pagecheckerboard="0"
     showgrid="false"
     inkscape:zoom="0.40604401"
     inkscape:cx="358.33554"
     inkscape:cy="-49.255744"
     inkscape:window-width="1920"
     inkscape:window-height="1022"
     inkscape:window-x="0"
     inkscape:window-y="30"
     inkscape:window-maximized="1"
     inkscape:current-layer="svg16"
     inkscape:showpageshadow="2"
     inkscape:deskcolor="#d1d1d1" />
  <circle
     style="fill:#f8bb3a;fill-opacity:1;stroke:#000000;stroke-width:10.8951"
     id="path859"
     cx="256"
     cy="256"
     r="250.5479" />
  <g
     id="g6"
     transform="translate(263.38116,111.8151)" />
  <g
     id="g8"
     transform="translate(263.38116,111.8151)" />
  <g
     id="g10"
     transform="translate(263.38116,111.8151)" />
  <g
     id="g12"
     transform="translate(263.38116,111.8151)" />
  <g
     id="g14"
     transform="translate(263.38116,111.8151)" />
  <g
     id="g16"
     transform="translate(263.38116,111.8151)" />
  <g
     id="g18"
     transform="translate(263.38116,111.8151)" />
  <g
     id="g20"
     transform="translate(263.38116,111.8151)" />
  <g
     id="g22"
     transform="translate(263.38116,111.8151)" />
  <g
     id="g24"
     transform="translate(263.38116,111.8151)" />
  <g
     id="g26"
     transform="translate(263.38116,111.8151)" />
  <g
     id="g28"
     transform="translate(263.38116,111.8151)" />
  <g
     id="g30"
     transform="translate(263.38116,111.8151)" />
  <g
     id="g32"
     transform="translate(263.38116,111.8151)" />
  <g
     id="g34"
     transform="translate(263.38116,111.8151)" />
  <path
     d="m 135.82441,394.55148 c -4.31247,0 -8.62493,-1.81578 -11.57556,-4.99338 -6.35522,-6.35522 -6.35522,-17.0229 0,-23.37812 3.1776,-3.1776 7.26309,-4.99338 11.57556,-4.99338 4.31247,0 8.62493,1.81578 11.57557,4.99338 6.35522,6.35522 6.35522,17.0229 0,23.37812 -2.95064,3.40457 -7.03613,4.99338 -11.57557,4.99338 z m 0,-19.29262 c -0.68091,0 -1.36183,0.22698 -1.81578,0.68092 -1.13485,1.13485 -1.13485,2.95063 0,4.08549 0.45395,0.45395 1.13487,0.68092 1.81578,0.68092 0.68092,0 1.36183,-0.22697 1.81578,-0.68092 1.13486,-1.13486 1.13486,-2.95064 0,-4.08549 -0.45395,-0.45394 -1.13486,-0.68092 -1.81578,-0.68092 z"
     fill=""
     id="path1"
     style="stroke-width:0.283715" />
  <path
     d="m 138.06513,418.64038 c -8.8609,0 -16.86429,-3.43003 -23.15267,-9.71841 l -8.57507,-8.57506 c -12.576755,-12.8626 -12.576755,-33.72859 0,-46.59118 l 0.57168,-0.57167 151.20696,-129.48347 c -9.14674,-15.43511 -13.43427,-33.44275 -12.00509,-51.45038 1.42917,-21.15183 10.29007,-40.87447 24.86768,-55.73792 16.29262,-16.578454 38.01612,-25.725188 61.16879,-25.725188 11.14758,0 22.29517,2.286683 32.58524,6.574215 2.57252,1.143342 4.57337,3.430023 5.14504,6.288383 0.57167,2.85835 -0.28583,5.71671 -2.28668,7.71755 l -44.3045,44.59034 30.01273,30.58439 44.01866,-44.30449 c 1.71501,-1.71502 4.00169,-2.57252 6.28838,-2.57252 0.57167,0 1.14334,0 1.71501,0.28583 2.85835,0.57167 5.14504,2.57252 6.28838,5.14504 6.57422,15.72095 8.28923,33.15691 5.14504,50.02121 -3.14419,17.43596 -11.43342,33.15691 -23.72434,45.73367 -16.29263,16.57846 -37.73029,25.72519 -60.59712,25.72519 -12.57676,0 -25.15352,-2.85835 -36.30111,-8.28923 L 161.2178,408.92197 c -6.28838,6.28838 -14.5776,9.71841 -23.15267,9.71841 z m -19.43681,-52.59373 c -5.71671,6.28838 -5.71671,16.00679 0.28584,22.00933 l 8.57506,8.57507 c 2.85835,2.85835 6.57421,4.57337 10.57591,4.57337 4.0017,0 7.71756,-1.71502 10.57591,-4.57337 L 287.55708,241.42239 c 1.71501,-1.71501 4.0017,-2.85835 6.57421,-2.85835 1.42918,0 3.14419,0.28583 4.28754,1.14334 10.29007,6.00254 22.00933,9.14673 34.01442,9.14673 18.29347,0 35.15776,-7.14588 48.02035,-20.29431 16.29263,-16.8643 23.43851,-40.58864 18.86515,-63.74131 l -40.01697,40.3028 c -1.71501,1.71501 -4.0017,2.57252 -6.28838,2.57252 -2.28668,0 -4.57337,-0.85751 -6.28838,-2.57252 l -41.73198,-43.16116 c -3.43002,-3.43002 -3.43002,-8.8609 0,-12.29092 l 40.01697,-40.3028 c -4.28753,-0.85751 -8.57507,-1.14335 -12.8626,-1.14335 -18.29347,0 -35.72943,7.43173 -48.59203,20.58016 -24.29601,24.58185 -26.86853,63.16964 -6.57421,91.46735 2.57252,3.71586 2.00085,8.8609 -1.42918,11.71925 z"
     fill=""
     id="path2"
     style="stroke-width:0.357294" />
  <path
     d="m 219.2424,258.00085 c -2.28668,0 -4.57336,-0.85751 -6.28838,-2.57252 L 151.4994,192.83036 h -20.86599 c -3.14419,0 -6.00255,-1.71501 -7.43172,-4.28753 L 94.903976,142.23749 c -2.000848,-3.43003 -1.429177,-8.0034 1.429178,-10.86175 l 22.866836,-23.15268 c 1.71501,-1.71501 4.0017,-2.57251 6.28838,-2.57251 1.71501,0 3.14419,0.57167 4.57337,1.42917 l 46.59118,29.15522 c 2.57252,1.71501 4.0017,4.28753 4.0017,7.14589 l 0.28583,20.86599 63.16964,64.88465 c 1.71501,1.71501 2.57252,4.00169 2.57252,6.28838 0,2.28668 -0.85751,4.57336 -2.57252,6.00254 -1.71501,1.71501 -3.71586,2.57252 -6.00255,2.57252 -2.28668,0 -4.57336,-0.85751 -6.28838,-2.57252 l -66.02799,-67.45717 c -1.42918,-1.71501 -2.57252,-3.71586 -2.57252,-6.00254 l -0.28583,-19.72265 -36.58694,-22.86684 -13.14843,13.43427 22.29516,36.58694 h 19.43681 c 2.28669,0 4.57337,0.85751 6.28838,2.57252 l 64.02715,65.17048 c 1.71501,1.71502 2.57252,4.0017 2.57252,6.28838 0,2.28669 -0.85751,4.57337 -2.57252,6.28838 -1.42918,1.42918 -3.71586,2.28669 -6.00255,2.28669 z M 349.0117,421.2129 c -5.43087,0 -10.86174,-2.28669 -14.5776,-6.28838 l -74.03139,-76.31807 c -8.00339,-8.00339 -8.00339,-21.15183 0,-29.44105 l 2.28668,-2.28669 -2.57252,-2.57252 c -3.43002,-3.43002 -3.43002,-8.8609 0.28584,-12.29092 1.71501,-1.71501 3.71586,-2.57252 6.00254,-2.57252 2.28669,0 4.57337,0.85751 6.28839,2.57252 l 8.57506,8.57506 c 3.43002,3.43003 3.14419,8.8609 0,12.29093 l -8.28923,8.57506 c -1.42918,1.42918 -1.42918,3.71586 0,5.14504 l 74.03139,76.31807 c 0.57167,0.57167 1.42917,0.8575 2.28668,0.8575 0.85751,0 1.71501,-0.28583 2.28668,-0.8575 l 33.72859,-34.58609 c 1.42918,-1.42918 1.42918,-3.71586 0,-5.14504 l -74.31722,-76.31807 c -0.57167,-0.57167 -1.42918,-0.85751 -2.28669,-0.85751 -0.8575,0 -1.71501,0.28584 -2.28668,0.85751 l -9.14674,9.43257 c -1.71501,1.71501 -4.00169,2.57252 -6.28838,2.57252 -2.28668,0 -4.57336,-0.85751 -6.28838,-2.57252 l -7.43172,-8.28923 c -1.71501,-1.71501 -2.57252,-4.00169 -2.57252,-6.28838 0,-2.28668 0.85751,-4.57337 2.57252,-6.00254 1.71502,-1.71502 3.71586,-2.57252 6.00255,-2.57252 2.28668,0 4.57336,0.8575 6.28838,2.57252 l 1.71501,1.71501 2.85835,-2.85836 c 4.0017,-4.00169 9.14674,-6.28838 14.57761,-6.28838 5.43088,0 10.86175,2.28669 14.57761,6.28838 l 74.03139,76.31807 c 8.00339,8.0034 8.00339,21.43766 0,29.44106 l -33.72859,34.58609 c -3.71586,4.00169 -8.8609,6.28838 -14.57761,6.28838 z"
     fill=""
     id="path3"
     style="stroke-width:0.357294" />
</svg>
