<?xml version="1.0" encoding="UTF-8" standalone="no"?>
<!-- Generator: Adobe Illustrator 16.0.0, SVG Export Plug-In . SVG Version: 6.00 Build 0)  -->

<svg
   version="1.1"
   id="Capa_1"
   x="0px"
   y="0px"
   width="206.274px"
   height="206.274px"
   viewBox="0 0 206.274 206.274"
   style="enable-background:new 0 0 206.274 206.274;"
   xml:space="preserve"
   sodipodi:docname="firefighter.svg"
   inkscape:version="1.3 (0e150ed6c4, 2023-07-21)"
   xmlns:inkscape="http://www.inkscape.org/namespaces/inkscape"
   xmlns:sodipodi="http://sodipodi.sourceforge.net/DTD/sodipodi-0.dtd"
   xmlns="http://www.w3.org/2000/svg"
   xmlns:svg="http://www.w3.org/2000/svg"><defs
   id="defs53" /><sodipodi:namedview
   id="namedview51"
   pagecolor="#ffffff"
   bordercolor="#666666"
   borderopacity="1.0"
   inkscape:pageshadow="2"
   inkscape:pageopacity="0.0"
   inkscape:pagecheckerboard="0"
   showgrid="false"
   inkscape:zoom="1.0071555"
   inkscape:cx="-169.7851"
   inkscape:cy="79.928073"
   inkscape:window-width="1920"
   inkscape:window-height="1017"
   inkscape:window-x="-8"
   inkscape:window-y="-8"
   inkscape:window-maximized="1"
   inkscape:current-layer="Capa_1"
   inkscape:showpageshadow="2"
   inkscape:deskcolor="#d1d1d1" />&#10;<circle
   style="fill:#fbec65;fill-opacity:1;stroke:#000000;stroke-width:4.4540359;stroke-opacity:1;stroke-dasharray:none"
   id="path859"
   cx="103.137"
   cy="103.137"
   r="100.90275" />&#10;<g
   id="g20"
   style="stroke:#000000;stroke-opacity:1;stroke-width:1.01510246;stroke-dasharray:none">&#10;</g>&#10;<g
   id="g22"
   style="stroke:#000000;stroke-opacity:1;stroke-width:1.01510246;stroke-dasharray:none">&#10;</g>&#10;<g
   id="g24"
   style="stroke:#000000;stroke-opacity:1;stroke-width:1.01510246;stroke-dasharray:none">&#10;</g>&#10;<g
   id="g26"
   style="stroke:#000000;stroke-opacity:1;stroke-width:1.01510246;stroke-dasharray:none">&#10;</g>&#10;<g
   id="g28"
   style="stroke:#000000;stroke-opacity:1;stroke-width:1.01510246;stroke-dasharray:none">&#10;</g>&#10;<g
   id="g30"
   style="stroke:#000000;stroke-opacity:1;stroke-width:1.01510246;stroke-dasharray:none">&#10;</g>&#10;<g
   id="g32"
   style="stroke:#000000;stroke-opacity:1;stroke-width:1.01510246;stroke-dasharray:none">&#10;</g>&#10;<g
   id="g34"
   style="stroke:#000000;stroke-opacity:1;stroke-width:1.01510246;stroke-dasharray:none">&#10;</g>&#10;<g
   id="g36"
   style="stroke:#000000;stroke-opacity:1;stroke-width:1.01510246;stroke-dasharray:none">&#10;</g>&#10;<g
   id="g38"
   style="stroke:#000000;stroke-opacity:1;stroke-width:1.01510246;stroke-dasharray:none">&#10;</g>&#10;<g
   id="g40"
   style="stroke:#000000;stroke-opacity:1;stroke-width:1.01510246;stroke-dasharray:none">&#10;</g>&#10;<g
   id="g42"
   style="stroke:#000000;stroke-opacity:1;stroke-width:1.01510246;stroke-dasharray:none">&#10;</g>&#10;<g
   id="g44"
   style="stroke:#000000;stroke-opacity:1;stroke-width:1.01510246;stroke-dasharray:none">&#10;</g>&#10;<g
   id="g46"
   style="stroke:#000000;stroke-opacity:1;stroke-width:1.01510246;stroke-dasharray:none">&#10;</g>&#10;<g
   id="g48"
   style="stroke:#000000;stroke-opacity:1;stroke-width:1.01510246;stroke-dasharray:none">&#10;</g>&#10;<g
   id="SVGRepo_bgCarrier"
   stroke-width="0"
   transform="matrix(13.144462,0,0,13.144462,13.266457,-150.56697)" /><g
   id="SVGRepo_tracerCarrier"
   stroke-linecap="round"
   stroke-linejoin="round"
   transform="matrix(13.144462,0,0,13.144462,13.266457,-150.56697)" /><g
   id="SVGRepo_iconCarrier"
   transform="matrix(8.5109505,0,0,8.5109505,1.005595,1.6525975)"><path
     fill-rule="evenodd"
     clip-rule="evenodd"
     d="M 14.4527,8.48679 12.1842,3.93896 11.4471,4.74309 C 7.30945,9.25693 6,11.9609 6,14.2499 c 0,3.1721 2.73452,5.6591 6,5.6591 3.2655,0 6,-2.487 6,-5.6591 0,-0.932 -0.3254,-1.9375 -0.7619,-2.8841 C 16.796,10.4069 16.2091,9.44335 15.62,8.57788 L 15.1065,7.82342 Z m -0.4054,2.54801 0.8345,-0.8465 c 0.3742,0.5963 0.719,1.2087 0.9942,1.8055 0.4005,0.8687 0.624,1.6419 0.624,2.2561 0,0.8442 -0.2767,1.6402 -0.7562,2.3055 0.0041,-0.0619 0.0062,-0.1245 0.0062,-0.1879 0,-0.5619 -0.2269,-1.1262 -0.4868,-1.6051 -0.2686,-0.4945 -0.6198,-0.9826 -0.9637,-1.4117 l -0.486,-0.6064 -0.3363,0.2897 -1.3028,-2.2181 -0.6841,0.6338 C 9.13721,13.6298 8.25,15.0508 8.25,16.3675 c 0,0.0634 0.00209,0.126 0.00622,0.1879 C 7.77669,15.8901 7.5,15.0941 7.5,14.2499 c 0,-1.5713 0.827,-3.7191 4.3206,-7.6794 z m -0.953,4.3092 0.5005,-0.4313 c 0.1311,0.1909 0.2499,0.3809 0.3501,0.5654 0.2183,0.4021 0.3051,0.701 0.3051,0.8894 0,0.7496 -0.8369,1.6324 -2.25,1.6324 -1.4131,0 -2.25,-0.8828 -2.25,-1.6324 0,-0.544 0.3197,-1.4211 2.0834,-3.1703 z"
     fill="#000000"
     id="path1" /></g></svg>
