<?xml version="1.0" encoding="UTF-8" standalone="no"?>
<!-- Generator: Adobe Illustrator 18.0.0, SVG Export Plug-In . SVG Version: 6.00 Build 0)  -->

<svg
   version="1.1"
   id="Capa_1"
   x="0px"
   y="0px"
   viewBox="0 0 345.021 345.021"
   style="enable-background:new 0 0 345.021 345.021;"
   xml:space="preserve"
   sodipodi:docname="fish.svg"
   inkscape:version="1.3 (0e150ed6c4, 2023-07-21)"
   xmlns:inkscape="http://www.inkscape.org/namespaces/inkscape"
   xmlns:sodipodi="http://sodipodi.sourceforge.net/DTD/sodipodi-0.dtd"
   xmlns="http://www.w3.org/2000/svg"
   xmlns:svg="http://www.w3.org/2000/svg"><defs
   id="defs41" /><sodipodi:namedview
   id="namedview39"
   pagecolor="#ffffff"
   bordercolor="#666666"
   borderopacity="1.0"
   inkscape:pageshadow="2"
   inkscape:pageopacity="0.0"
   inkscape:pagecheckerboard="0"
   showgrid="false"
   inkscape:zoom="0.60213727"
   inkscape:cx="38.19727"
   inkscape:cy="17.437884"
   inkscape:window-width="1920"
   inkscape:window-height="1017"
   inkscape:window-x="-8"
   inkscape:window-y="-8"
   inkscape:window-maximized="1"
   inkscape:current-layer="Capa_1"
   inkscape:showpageshadow="2"
   inkscape:deskcolor="#d1d1d1" />&#10;<circle
   style="fill:#f8bb3a;fill-opacity:1;stroke:#000000;stroke-width:7.3414"
   id="path859"
   cx="172.5105"
   cy="172.5105"
   r="168.82565" />&#10;<g
   id="g8">&#10;</g>&#10;<g
   id="g10">&#10;</g>&#10;<g
   id="g12">&#10;</g>&#10;<g
   id="g14">&#10;</g>&#10;<g
   id="g16">&#10;</g>&#10;<g
   id="g18">&#10;</g>&#10;<g
   id="g20">&#10;</g>&#10;<g
   id="g22">&#10;</g>&#10;<g
   id="g24">&#10;</g>&#10;<g
   id="g26">&#10;</g>&#10;<g
   id="g28">&#10;</g>&#10;<g
   id="g30">&#10;</g>&#10;<g
   id="g32">&#10;</g>&#10;<g
   id="g34">&#10;</g>&#10;<g
   id="g36">&#10;</g>&#10;<path
   fill-rule="evenodd"
   clip-rule="evenodd"
   d="M 110.63397,151.86732 C 97.586032,136.99739 91.65093,115.83256 90.971369,94.857089 c 22.723041,-2.781806 46.069021,0.871543 62.673881,14.648991 18.06237,14.98643 32.93867,40.28371 44.1736,63.48366 4.01831,8.2985 8.05293,16.60599 12.37801,24.75193 0.94645,1.78029 2.5195,3.14774 4.41484,3.83636 l 27.04787,9.83567 -15.66934,7.83508 c -1.57959,0.78979 -2.85973,2.06994 -3.6487,3.6487 l -7.83508,15.67016 -9.83568,-27.04788 c -0.68943,-1.89451 -2.05851,-3.46839 -3.83798,-4.41565 -8.19327,-4.352 -16.4722,-8.58244 -24.90533,-12.45062 -0.0889,-0.0408 -0.17868,-0.08 -0.26925,-0.11749 -16.74878,-6.96451 -33.992,-17.02945 -47.39535,-27.03808 3.39569,-0.65844 6.73844,-1.60978 9.94712,-2.85321 10.7006,-4.14722 20.60073,-11.85958 25.3876,-23.69542 1.68892,-4.17741 -0.32799,-8.93337 -4.50539,-10.62277 -4.1774,-1.68941 -8.93328,0.3275 -10.6222,4.5049 -2.6772,6.6189 -8.48152,11.62339 -16.15709,14.59832 -6.89035,2.67052 -14.73147,3.45794 -21.67893,2.43758 z m 154.42887,50.69305 -41.89236,-15.23365 c -1.75745,-3.40883 -5.09855,-9.98987 -9.85444,-19.77741 0.17624,-4.54456 1.85292,-8.18755 4.23126,-10.62056 2.58803,-2.6484 6.40563,-4.29253 11.35895,-3.84615 3.11918,0.28067 6.12414,-1.24775 7.73228,-3.93451 1.60895,-2.68668 1.53797,-6.05707 -0.18194,-8.67375 C 220.57347,116.31597 190.2212,99.43331 162.17629,95.431728 138.94527,77.387526 107.85828,75.0723 81.341307,79.811909 c -3.826317,0.68388 -6.638972,3.972125 -6.721538,7.858246 -0.542582,25.514725 5.659569,54.555685 23.994705,75.239145 1.667206,13.82378 8.022896,26.83085 15.806576,38.15553 8.37455,12.18382 18.79318,22.98714 28.12699,31.50759 2.43815,2.22576 5.97744,2.76263 8.96608,1.36092 2.98863,-1.40253 4.83828,-4.46705 4.68489,-7.76492 -0.25619,-5.52527 1.47841,-9.52889 3.97588,-12.04593 2.25759,-2.27392 5.70558,-3.90654 10.44678,-3.94406 7.21418,3.36966 15.55675,7.66782 19.79045,9.88135 l 15.241,41.91112 c 1.1137,3.06371 3.94487,5.17036 7.1995,5.3572 3.25462,0.18684 6.30772,-1.58122 7.76572,-4.49642 l 15.10149,-30.20379 30.20378,-15.10147 c 2.91602,-1.45802 4.68408,-4.51193 4.49641,-7.76655 -0.18684,-3.25463 -2.29349,-6.08498 -5.35718,-7.1995 z m -50.37771,-63.20642 c -4.42707,2.00019 -8.2977,5.11733 -11.22433,8.97188 -5.53262,-10.04258 -11.84768,-20.23602 -18.95008,-29.5642 11.34264,4.98735 21.94769,12.08437 30.17441,20.59232 z m -86.81618,52.46755 c -1.84614,-2.68593 -3.54281,-5.39554 -5.06282,-8.11738 8.51554,6.03276 18.05112,11.88439 27.84314,17.04496 -3.15354,2.61088 -5.73137,5.91853 -7.52741,9.59905 -5.43634,-5.69335 -10.72345,-11.93661 -15.25291,-18.52663 z m -0.21744,-63.183 c 6.75916,0 12.23849,-5.47933 12.23849,-12.23849 0,-6.75915 -5.47933,-12.23849 -12.23849,-12.23849 -6.75916,0 -12.2385,5.47934 -12.2385,12.23849 0,6.75916 5.47934,12.23849 12.2385,12.23849 z"
   fill="#000000"
   id="path1"
   style="stroke-width:8.15899" /></svg>
