<?xml version="1.0" encoding="UTF-8" standalone="no"?>
<svg
   width="15px"
   height="15px"
   viewBox="0 0 15 15"
   version="1.1"
   id="garden"
   sodipodi:docname="garden.svg"
   inkscape:version="1.1.2 (b8e25be833, 2022-02-05)"
   xmlns:inkscape="http://www.inkscape.org/namespaces/inkscape"
   xmlns:sodipodi="http://sodipodi.sourceforge.net/DTD/sodipodi-0.dtd"
   xmlns="http://www.w3.org/2000/svg"
   xmlns:svg="http://www.w3.org/2000/svg">
  <defs
     id="defs7" />
  <sodipodi:namedview
     id="namedview5"
     pagecolor="#ffffff"
     bordercolor="#666666"
     borderopacity="1.0"
     inkscape:pageshadow="2"
     inkscape:pageopacity="0.0"
     inkscape:pagecheckerboard="0"
     showgrid="false"
     inkscape:zoom="27.7"
     inkscape:cx="10.126354"
     inkscape:cy="8.5198556"
     inkscape:window-width="1920"
     inkscape:window-height="1017"
     inkscape:window-x="-8"
     inkscape:window-y="-8"
     inkscape:window-maximized="1"
     inkscape:current-layer="garden" />
  <circle
     style="fill:#4dff6a;fill-opacity:1;stroke:#000000;stroke-width:0.319742"
     id="path859"
     cx="7.4539776"
     cy="7.5699019"
     r="7.3529015" />
  <path
     d="m 10.863581,7.8001946 c 0,2.024264 -1.339317,3.6693604 -3.363581,3.6693604 -2.024264,0 -3.3635807,-1.6450964 -3.3635807,-3.6693604 1.3847556,0.011681 2.6109948,0.8969753 3.0578006,2.2077324 V 7.1886345 H 5.6653196 c -0.5066164,0 -0.9173402,-0.4107238 -0.9173402,-0.9173402 V 4.4366139 c 0,-0.1688517 0.1369284,-0.30578 0.3057801,-0.30578 0.09626,0 0.1868928,0.045317 0.2446241,0.122312 L 6.2340705,5.4762662 7.2431447,3.6415858 c 0.091612,-0.141882 0.2808896,-0.1825507 0.4227716,-0.090939 0.036388,0.023545 0.067394,0.05449 0.090939,0.090939 L 8.7659295,5.4762662 9.7016164,4.2531459 C 9.802952,4.1180523 9.9946149,4.0906544 10.129709,4.1919899 c 0.077,0.057731 0.122312,0.1483645 0.122312,0.244624 v 1.8346804 c 0,0.5066164 -0.4107242,0.9173402 -0.9173406,0.9173402 H 7.8057801 V 10.007927 C 8.2525859,8.6971699 9.4788251,7.8118754 10.863581,7.8001946 Z"
     id="path2"
     style="stroke-width:0.61156" />
</svg>
