<?xml version="1.0" encoding="UTF-8" standalone="no"?>
<svg
   width="15px"
   height="15px"
   viewBox="0 0 15 15"
   version="1.1"
   id="garden"
   sodipodi:docname="garden.svg"
   inkscape:version="1.3 (0e150ed6c4, 2023-07-21)"
   xmlns:inkscape="http://www.inkscape.org/namespaces/inkscape"
   xmlns:sodipodi="http://sodipodi.sourceforge.net/DTD/sodipodi-0.dtd"
   xmlns="http://www.w3.org/2000/svg"
   xmlns:svg="http://www.w3.org/2000/svg">
  <defs
     id="defs7" />
  <sodipodi:namedview
     id="namedview5"
     pagecolor="#ffffff"
     bordercolor="#666666"
     borderopacity="1.0"
     inkscape:pageshadow="2"
     inkscape:pageopacity="0.0"
     inkscape:pagecheckerboard="0"
     showgrid="false"
     inkscape:zoom="13.85"
     inkscape:cx="5.8483754"
     inkscape:cy="24.801444"
     inkscape:window-width="1920"
     inkscape:window-height="1017"
     inkscape:window-x="-8"
     inkscape:window-y="-8"
     inkscape:window-maximized="1"
     inkscape:current-layer="garden"
     inkscape:showpageshadow="2"
     inkscape:deskcolor="#d1d1d1" />
  <circle
     style="fill:#f8bb3a;fill-opacity:1;stroke:#000000;stroke-width:0.319742"
     id="path859"
     cx="7.5"
     cy="7.5"
     r="7.3529015" />
  <g
     id="g4"
     transform="matrix(0.46768607,0,0,0.46768607,2.8934034,2.7492212)">
    <path
       fill-rule="evenodd"
       clip-rule="evenodd"
       d="M 12.5883,2.36575 12.5166,2.44429 C 12.4102,2.5604 12.3177,2.65963 12.2363,2.7445 12.1783,2.6674 12.131,2.60442 12.1069,2.57222 12.0962,2.55804 12.0901,2.54982 12.0895,2.54901 11.781,2.14919 11.521,1.85543 11.2421,1.61995 10.8599,1.29718 10.4625,1.10176 10,1.10176 9.75073,1.10176 9.51343,1.16296 9.29033,1.27123 8.80211,1.50815 8.44017,1.90299 7.95721,2.57792 7.93063,2.61506 7.88552,2.67912 7.83669,2.74871 7.74548,2.6579 7.64046,2.55003 7.51765,2.42149 L 7.44953,2.35008 C 6.89581,1.76866 6.74857,1.6202 6.50141,1.4188 6.26666,1.22751 6.05621,1.09922 5.79569,1.03537 5.22149,0.894639 4.64828,1.18504 4.43938,1.76057 4.1503,2.55696 4,3.41174 4,4.28812 4,8.2285 6.21172,11 10,11 13.7883,11 16,8.2285 16,4.28812 16,3.41174 15.8497,2.55696 15.5606,1.76057 15.3529,1.18826 14.7801,0.89035 14.2009,1.03736 13.938,1.10408 13.7302,1.23584 13.4994,1.43184 13.2609,1.63445 13.1249,1.77767 12.5883,2.36575 Z M 10,9.00002 C 7.42805,9.00002 6,7.21053 6,4.28812 6,4.10858 6.00853,3.93059 6.02539,3.75471 l 0.04618,0.0484 C 6.48039,4.23101 6.73147,4.4747 6.99228,4.67463 7.63975,5.17099 8.29621,5.36404 8.89641,4.67838 9.00414,4.55531 9.10967,4.4156 9.25158,4.21495 9.26057,4.20223 9.28945,4.16095 9.32704,4.10719 9.41015,3.98837 9.53586,3.80861 9.58368,3.74178 9.75942,3.4962 9.90624,3.31505 10.0126,3.20218 c 0.1341,0.12525 0.2955,0.3121 0.4933,0.5685 -0.0447,-0.05804 0.5503,0.73768 0.6992,0.9077 0.6027,0.68859 1.2671,0.48993 1.8997,-0.01132 0.2511,-0.19899 0.4924,-0.4419 0.8747,-0.85888 C 13.9931,3.96663 14,4.12675 14,4.28812 c 0,2.92241 -1.428,4.7119 -4,4.7119 z"
       fill="#000000"
       id="path1" />
    <path
       d="m 9,11 c 0,-0.5523 0.44772,-1 1,-1 0.5523,0 1,0.4477 1,1 v 6.5 c 0,0.5523 -0.4477,1 -1,1 -0.55228,0 -1,-0.4477 -1,-1 z"
       fill="#000000"
       id="path2" />
    <path
       fill-rule="evenodd"
       clip-rule="evenodd"
       d="m 11.7672,13.015 c -2.18561,1.8339 -3.62181,4.1646 -2.43778,5.5756 1.16598,1.3896 4.37868,0.6282 6.29448,-0.9794 1.8682,-1.5676 2.7201,-3.8347 1.5561,-5.2219 -1.164,-1.3872 -3.5446,-0.9419 -5.4128,0.6257 z m -0.8473,4.3282 C 10.9062,17.3379 10.8943,17.3318 10.8841,17.325 l 0.0183,0.0294 c 0.0079,0.0067 0.0126,0.0042 0.0175,-0.0112 z m 3.4184,-1.264 c -1.1078,0.9295 -3.0146,1.4215 -3.4184,1.264 0.0022,-0.0071 0.0045,-0.017 0.0071,-0.03 0.0378,-0.1891 0.1558,-0.4575 0.3478,-0.769 0.4046,-0.6566 1.0771,-1.409 1.778,-1.9971 1.1344,-0.952 2.3391,-1.1773 2.5951,-0.8722 0.256,0.3051 -0.1751,1.4523 -1.3096,2.4043 z"
       fill="#000000"
       id="path3" />
    <path
       fill-rule="evenodd"
       clip-rule="evenodd"
       d="m 7.93234,13.015 c 2.18556,1.8339 3.62176,4.1646 2.43776,5.5756 -1.16599,1.3896 -4.37868,0.6282 -6.29449,-0.9794 -1.8682,-1.5676 -2.72009,-3.8347 -1.55607,-5.2219 1.16401,-1.3872 3.5446,-0.9419 5.4128,0.6257 z m 0.84729,4.3282 C 8.79329,17.3379 8.80524,17.3318 8.81537,17.325 L 8.79712,17.3544 C 8.78924,17.3611 8.78449,17.3586 8.77963,17.3432 Z m -3.41844,-1.264 c 1.10782,0.9295 3.01463,1.4215 3.41844,1.264 C 8.77738,17.3361 8.77511,17.3262 8.7725,17.3132 8.73467,17.1241 8.61671,16.8557 8.42471,16.5442 8.02015,15.8876 7.34762,15.1352 6.64676,14.5471 5.5123,13.5951 4.30762,13.3698 4.05162,13.6749 3.79563,13.98 4.22673,15.1272 5.36119,16.0792 Z"
       fill="#000000"
       id="path4" />
  </g>
</svg>
