<?xml version="1.0" encoding="UTF-8" standalone="no"?>
<svg
   version="1.1"
   viewBox="0 0 512 512"
   enable-background="new 0 0 512 512"
   id="svg16"
   sodipodi:docname="grocery.svg"
   inkscape:version="1.3 (0e150ed6c4, 2023-07-21)"
   xmlns:inkscape="http://www.inkscape.org/namespaces/inkscape"
   xmlns:sodipodi="http://sodipodi.sourceforge.net/DTD/sodipodi-0.dtd"
   xmlns="http://www.w3.org/2000/svg"
   xmlns:svg="http://www.w3.org/2000/svg">
  <defs
     id="defs20" />
  <sodipodi:namedview
     id="namedview18"
     pagecolor="#ffffff"
     bordercolor="#666666"
     borderopacity="1.0"
     inkscape:pageshadow="2"
     inkscape:pageopacity="0.0"
     inkscape:pagecheckerboard="0"
     showgrid="false"
     inkscape:zoom="0.5"
     inkscape:cx="-42"
     inkscape:cy="215"
     inkscape:window-width="1920"
     inkscape:window-height="1017"
     inkscape:window-x="-8"
     inkscape:window-y="-8"
     inkscape:window-maximized="1"
     inkscape:current-layer="svg16"
     inkscape:showpageshadow="2"
     inkscape:deskcolor="#d1d1d1" />
  <circle
     style="fill:#ce13ff;stroke:#000000;stroke-width:10.8951;fill-opacity:1"
     id="path859"
     cx="255.99544"
     cy="255.99544"
     r="250.5479" />
  <g
     id="g6"
     transform="translate(263.38116,111.8151)" />
  <g
     id="g8"
     transform="translate(263.38116,111.8151)" />
  <g
     id="g10"
     transform="translate(263.38116,111.8151)" />
  <g
     id="g12"
     transform="translate(263.38116,111.8151)" />
  <g
     id="g14"
     transform="translate(263.38116,111.8151)" />
  <g
     id="g16"
     transform="translate(263.38116,111.8151)" />
  <g
     id="g18"
     transform="translate(263.38116,111.8151)" />
  <g
     id="g20"
     transform="translate(263.38116,111.8151)" />
  <g
     id="g22"
     transform="translate(263.38116,111.8151)" />
  <g
     id="g24"
     transform="translate(263.38116,111.8151)" />
  <g
     id="g26"
     transform="translate(263.38116,111.8151)" />
  <g
     id="g28"
     transform="translate(263.38116,111.8151)" />
  <g
     id="g30"
     transform="translate(263.38116,111.8151)" />
  <g
     id="g32"
     transform="translate(263.38116,111.8151)" />
  <g
     id="g34"
     transform="translate(263.38116,111.8151)" />
  <path
     d="m 353.42215,138.56959 c 0,0 -24.19044,-0.7168 -33.8446,8.69901 -9.28185,9.05045 -13.11648,15.96617 -13.11648,34.79605 H 144.64584 l 24.26209,83.76198 c 0.0609,0.12701 0.17172,0.24851 0.23786,0.37378 4.0781,11.43572 14.73831,19.672 27.45626,20.15045 0.0522,0.0226 0.23787,0.10195 0.23787,0.10195 h 113.08717 v 3.46601 c 0,0 0.0136,5.2398 -3.46602,12.19901 -3.4796,6.95921 -5.2126,10.43201 -19.13103,10.43201 H 174.24287 c -17.39803,0 -17.39803,26.09704 0,26.09704 h 20.86404 1.733 85.25712 1.733 1.76699 c 20.87764,0 36.50868,-12.18542 41.72809,-24.36404 5.21941,-12.17861 5.233,-22.59704 5.233,-22.59704 v -5.23299 -104.38816 c 0,-9.10961 3.97752,-17.39803 12.16503,-17.39803 h 9.5825 c 7.20626,0 13.04852,-5.84225 13.04852,-13.04851 0,-7.20627 -5.84226,-13.04852 -13.04852,-13.04852 z m -69.5921,200.07729 c -10.43882,0 -17.39803,6.95921 -17.39803,17.39803 0,10.43881 6.95921,17.39802 17.39803,17.39802 10.43881,0 17.39802,-6.95921 17.39802,-17.39802 0,-10.43882 -6.95921,-17.39803 -17.39802,-17.39803 z m -86.99013,0 c -10.43882,0 -17.39803,6.95921 -17.39803,17.39803 0,10.43881 6.95921,17.39802 17.39803,17.39802 10.43881,0 17.39802,-6.95921 17.39802,-17.39802 0,-10.43882 -6.95921,-17.39803 -17.39802,-17.39803 z"
     id="path5"
     style="stroke-width:17.398" />
</svg>
