<?xml version="1.0" encoding="UTF-8" standalone="no"?>
<svg
   version="1.1"
   viewBox="0 0 512 512"
   enable-background="new 0 0 512 512"
   id="svg16"
   sodipodi:docname="handiwork.svg"
   inkscape:version="1.3 (0e150ed6c4, 2023-07-21)"
   xmlns:inkscape="http://www.inkscape.org/namespaces/inkscape"
   xmlns:sodipodi="http://sodipodi.sourceforge.net/DTD/sodipodi-0.dtd"
   xmlns="http://www.w3.org/2000/svg"
   xmlns:svg="http://www.w3.org/2000/svg">
  <defs
     id="defs20" />
  <sodipodi:namedview
     id="namedview18"
     pagecolor="#ffffff"
     bordercolor="#666666"
     borderopacity="1.0"
     inkscape:pageshadow="2"
     inkscape:pageopacity="0.0"
     inkscape:pagecheckerboard="0"
     showgrid="false"
     inkscape:zoom="0.5"
     inkscape:cx="-42"
     inkscape:cy="207"
     inkscape:window-width="1920"
     inkscape:window-height="1017"
     inkscape:window-x="-8"
     inkscape:window-y="-8"
     inkscape:window-maximized="1"
     inkscape:current-layer="svg16"
     inkscape:showpageshadow="2"
     inkscape:deskcolor="#d1d1d1" />
  <circle
     style="fill:#f8bb3a;fill-opacity:1;stroke:#000000;stroke-width:10.8951"
     id="path859"
     cx="256"
     cy="256"
     r="250.5479" />
  <g
     id="g6"
     transform="translate(263.38116,111.8151)" />
  <g
     id="g8"
     transform="translate(263.38116,111.8151)" />
  <g
     id="g10"
     transform="translate(263.38116,111.8151)" />
  <g
     id="g12"
     transform="translate(263.38116,111.8151)" />
  <g
     id="g14"
     transform="translate(263.38116,111.8151)" />
  <g
     id="g16"
     transform="translate(263.38116,111.8151)" />
  <g
     id="g18"
     transform="translate(263.38116,111.8151)" />
  <g
     id="g20"
     transform="translate(263.38116,111.8151)" />
  <g
     id="g22"
     transform="translate(263.38116,111.8151)" />
  <g
     id="g24"
     transform="translate(263.38116,111.8151)" />
  <g
     id="g26"
     transform="translate(263.38116,111.8151)" />
  <g
     id="g28"
     transform="translate(263.38116,111.8151)" />
  <g
     id="g30"
     transform="translate(263.38116,111.8151)" />
  <g
     id="g32"
     transform="translate(263.38116,111.8151)" />
  <g
     id="g34"
     transform="translate(263.38116,111.8151)" />
  <path
     d="m 155.31986,405.77656 c -13.00427,0 -25.32409,-5.13326 -34.73508,-14.37313 -19.16417,-19.16418 -19.16417,-50.13487 0,-69.29904 l 94.28092,-94.28092 c -8.55544,-33.19561 0.68443,-68.95733 24.98187,-93.25477 24.46855,-24.46855 60.40139,-34.05064 93.76759,-24.98188 4.44883,1.19776 7.871,4.61994 9.06876,9.06876 1.19777,4.44883 0,9.06877 -3.25106,12.31983 l -41.92164,41.92164 8.89765,32.68177 32.68177,8.89766 41.92163,-41.92164 c 3.2511,-3.25107 8.04213,-4.44883 12.31983,-3.25107 4.44884,1.19776 7.87103,4.61994 9.06878,9.06876 9.06878,33.36621 -0.34224,69.29955 -24.9819,93.76811 -24.29742,24.29744 -60.05915,33.53731 -93.25424,24.98187 l -94.28092,94.28092 c -9.23987,9.23987 -21.5597,14.37313 -34.56396,14.37313 z M 301.78894,132.34428 c -16.42644,1.36888 -31.99733,8.55544 -43.97495,20.53305 -19.5064,19.5064 -25.83742,48.08156 -16.42644,74.43282 1.71109,4.61993 0.51333,9.9243 -3.07996,13.34648 l -99.75639,99.75639 c -9.06876,9.06876 -9.06876,23.95522 0,33.02399 4.44883,4.44883 10.26653,6.84435 16.59755,6.84435 6.15991,0 12.14872,-2.39552 16.42644,-6.84435 l 99.75639,-99.7564 c 3.59329,-3.59328 8.72655,-4.61993 13.34649,-3.07995 26.35074,9.23987 54.9259,3.07995 74.43229,-16.42644 11.97762,-11.97761 18.99309,-27.54851 20.53307,-43.97546 L 351.75269,238.09 c -3.25107,3.25106 -8.04211,4.44882 -12.49094,3.25106 l -46.88379,-12.83315 c -4.44883,-1.19776 -7.87101,-4.61994 -9.06877,-9.06928 l -12.83315,-46.88379 c -1.19776,-4.44883 0,-9.23987 3.25106,-12.49094 l 27.89073,-27.89072 z"
     fill="#000000"
     id="path1"
     style="stroke-width:17.1109" />
</svg>
