<?xml version="1.0" encoding="UTF-8" standalone="no"?>
<!-- Generator: Adobe Illustrator 19.0.0, SVG Export Plug-In . SVG Version: 6.00 Build 0)  -->

<svg
   version="1.1"
   id="Layer_1"
   x="0px"
   y="0px"
   viewBox="0 0 512 512"
   style="enable-background:new 0 0 512 512;"
   xml:space="preserve"
   sodipodi:docname="museum.svg"
   inkscape:version="1.3 (0e150ed6c4, 2023-07-21)"
   xmlns:inkscape="http://www.inkscape.org/namespaces/inkscape"
   xmlns:sodipodi="http://sodipodi.sourceforge.net/DTD/sodipodi-0.dtd"
   xmlns="http://www.w3.org/2000/svg"
   xmlns:svg="http://www.w3.org/2000/svg"><defs
   id="defs59" /><sodipodi:namedview
   id="namedview57"
   pagecolor="#ffffff"
   bordercolor="#666666"
   borderopacity="1.0"
   inkscape:pageshadow="2"
   inkscape:pageopacity="0.0"
   inkscape:pagecheckerboard="0"
   showgrid="false"
   inkscape:zoom="0.81152344"
   inkscape:cx="-48.673887"
   inkscape:cy="131.85078"
   inkscape:window-width="1920"
   inkscape:window-height="1022"
   inkscape:window-x="0"
   inkscape:window-y="30"
   inkscape:window-maximized="1"
   inkscape:current-layer="Layer_1"
   inkscape:showpageshadow="2"
   inkscape:deskcolor="#d1d1d1" />&#10;<circle
   style="fill:#8cfccb;fill-opacity:1;stroke:#000000;stroke-width:10.8899"
   id="path859"
   cx="256"
   cy="256"
   r="250.42706" />&#10;&#10;&#10;&#10;<g
   id="g26">&#10;</g>&#10;<g
   id="g28">&#10;</g>&#10;<g
   id="g30">&#10;</g>&#10;<g
   id="g32">&#10;</g>&#10;<g
   id="g34">&#10;</g>&#10;<g
   id="g36">&#10;</g>&#10;<g
   id="g38">&#10;</g>&#10;<g
   id="g40">&#10;</g>&#10;<g
   id="g42">&#10;</g>&#10;<g
   id="g44">&#10;</g>&#10;<g
   id="g46">&#10;</g>&#10;<g
   id="g48">&#10;</g>&#10;<g
   id="g50">&#10;</g>&#10;<g
   id="g52">&#10;</g>&#10;<g
   id="g54">&#10;</g>&#10;<g
   id="g3"
   transform="matrix(0.63744143,0,0,0.63744143,92.814994,92.8134)">&#10;	<path
   class="st0"
   d="m 500.789,325.626 c 0,-1.57 0,-3.073 0,-4.82 0,-2.091 0,-2.948 0,-3.023 0,-0.487 0,-1.109 0,-1.528 0,-1.52 0,-2.578 0,-3.107 0.168,-3.225 0.84,-7.156 1.847,-11.472 1.512,-6.592 3.771,-14.05 5.72,-21.75 0.974,-3.872 1.872,-7.802 2.536,-11.791 0.662,-3.989 1.108,-8.029 1.108,-12.135 0,-5.475 -0.773,-10.842 -1.848,-16.107 -1.612,-7.886 -3.905,-15.595 -5.794,-22.708 -0.948,-3.552 -1.788,-6.945 -2.427,-10.069 -0.613,-3.057 -1.008,-5.836 -1.142,-8.238 0,-5.736 0,-29.384 0,-45.492 0,-3.644 0.277,-6.584 0.689,-9.086 0.621,-3.762 1.536,-6.568 2.628,-9.582 0.546,-1.511 1.142,-3.056 1.747,-4.778 0.597,-1.722 1.201,-3.612 1.68,-5.719 1.972,-8.716 2.746,-16.644 2.746,-23.656 0,-10.85 -1.84,-19.484 -3.771,-25.512 -1.94,-6.03 -3.938,-9.464 -4.308,-10.069 l -1.36,-2.226 -2.226,-1.36 c -0.596,-0.37 -4.039,-2.368 -10.077,-4.308 -6.012,-1.932 -14.654,-3.78 -25.504,-3.771 -7.013,-0.009 -14.94,0.773 -23.657,2.746 -2.814,0.639 -5.223,1.496 -7.382,2.276 -3.258,1.2 -5.963,2.259 -9.213,3.057 -3.242,0.806 -7.096,1.41 -12.571,1.41 -8.373,0 -32.743,0 -55.006,0 -11.144,0 -21.75,0 -29.578,0 -3.913,0 -7.13,0 -9.372,0 -1.537,0 -2.603,0 -3.124,0 -3.208,-0.176 -7.146,-0.839 -11.454,-1.847 -6.592,-1.512 -14.05,-3.771 -21.75,-5.719 -3.871,-0.974 -7.801,-1.872 -11.79,-2.536 -3.99,-0.663 -8.037,-1.108 -12.135,-1.108 -5.476,0.008 -10.842,0.773 -16.108,1.839 -7.886,1.612 -15.595,3.914 -22.708,5.803 -3.552,0.949 -6.945,1.789 -10.069,2.427 -3.057,0.604 -5.836,1.008 -8.23,1.142 -5.744,0 -80.989,0 -97.097,0 -3.636,0 -6.584,-0.277 -9.086,-0.688 -3.762,-0.622 -6.567,-1.538 -9.582,-2.629 -1.503,-0.546 -3.065,-1.142 -4.778,-1.746 -1.722,-0.597 -3.611,-1.202 -5.72,-1.68 -8.716,-1.973 -16.644,-2.754 -23.656,-2.746 -10.851,-0.009 -19.484,1.839 -25.513,3.771 -6.03,1.94 -9.473,3.938 -10.069,4.308 l -2.234,1.36 -1.352,2.217 c -0.37,0.613 -2.377,4.048 -4.308,10.078 -1.931,6.029 -3.78,14.662 -3.78,25.512 0,7.012 0.773,14.94 2.763,23.656 0.639,2.814 1.478,5.224 2.268,7.382 1.201,3.258 2.259,5.963 3.065,9.204 0.798,3.25 1.403,7.105 1.403,12.58 0,16.108 0,39.747 0,45.492 -0.176,3.216 -0.848,7.138 -1.847,11.446 -1.512,6.592 -3.771,14.05 -5.719,21.751 -0.983,3.863 -1.873,7.801 -2.537,11.79 C 0.446,247.854 0,251.893 0,256 c 0.008,5.467 0.773,10.842 1.848,16.107 1.604,7.886 3.905,15.595 5.794,22.708 0.948,3.552 1.788,6.945 2.418,10.069 0.622,3.04 1.016,5.82 1.151,8.213 0,0.512 0,1.588 0,3.158 0,15.678 0,27.696 0,42.359 0,3.644 -0.277,6.584 -0.688,9.086 -0.622,3.762 -1.538,6.567 -2.629,9.582 -0.546,1.503 -1.142,3.056 -1.747,4.778 -0.597,1.722 -1.201,3.612 -1.672,5.711 -1.99,8.725 -2.763,16.662 -2.763,23.665 0,10.851 1.848,19.484 3.78,25.505 1.932,6.038 3.938,9.472 4.308,10.077 l 1.36,2.226 2.226,1.36 c 0.596,0.37 4.039,2.368 10.069,4.3 6.021,1.94 14.662,3.78 25.513,3.78 7.012,0 14.94,-0.773 23.656,-2.754 2.814,-0.638 5.232,-1.487 7.39,-2.276 3.258,-1.192 5.954,-2.25 9.204,-3.048 3.242,-0.806 7.096,-1.41 12.571,-1.41 16.09,0 91.21,0 97.071,0 3.225,0.176 7.147,0.84 11.463,1.847 6.592,1.512 14.05,3.771 21.75,5.72 3.863,0.973 7.802,1.872 11.79,2.536 3.99,0.663 8.028,1.1 12.136,1.108 5.475,-0.009 10.841,-0.773 16.107,-1.84 7.886,-1.612 15.595,-3.914 22.708,-5.803 3.552,-0.948 6.945,-1.789 10.069,-2.418 3.048,-0.622 5.836,-1.016 8.23,-1.151 0.52,0 1.587,0 3.141,0 15.678,0 79.301,0 93.955,0 3.644,0 6.584,0.277 9.086,0.688 3.762,0.622 6.567,1.538 9.582,2.629 1.503,0.546 3.056,1.142 4.778,1.747 1.722,0.597 3.612,1.201 5.72,1.672 8.716,1.981 16.644,2.754 23.657,2.754 10.85,0 19.492,-1.84 25.504,-3.78 6.038,-1.931 9.481,-3.93 10.077,-4.3 l 2.226,-1.36 1.36,-2.226 c 0.37,-0.604 2.368,-4.039 4.308,-10.077 1.931,-6.021 3.771,-14.654 3.771,-25.505 0,-7.003 -0.773,-14.94 -2.746,-23.665 -0.639,-2.805 -1.487,-5.216 -2.276,-7.382 -1.2,-3.25 -2.259,-5.954 -3.065,-9.204 -0.798,-3.25 -1.403,-7.096 -1.403,-12.571 0,-7.508 0,-14.126 0,-31.409 10e-4,-0.496 10e-4,-1.059 10e-4,-1.58 z M 48.968,74.649 c 5.458,0 11.774,0.596 18.937,2.217 1.344,0.31 2.864,0.806 4.77,1.512 2.864,1.042 6.61,2.536 11.404,3.729 4.812,1.2 10.623,2.041 17.71,2.032 16.754,0 97.457,0 97.457,0 h 0.269 l 0.277,-0.008 c 5.182,-0.277 10.271,-1.218 15.334,-2.385 7.584,-1.755 15.116,-4.039 22.179,-5.82 3.519,-0.89 6.911,-1.654 10.069,-2.184 3.158,-0.52 6.081,-0.814 8.625,-0.814 3.401,-0.009 7.449,0.52 11.849,1.419 6.617,1.335 13.982,3.502 21.474,5.51 3.754,0.999 7.541,1.948 11.354,2.721 3.812,0.764 7.65,1.352 11.53,1.553 l 0.277,0.008 h 0.269 c 0.008,0 1.268,0 3.502,0 15.678,0 79.301,0 93.955,0 4.719,0 8.876,-0.361 12.554,-0.974 5.51,-0.898 9.935,-2.36 13.395,-3.619 1.738,-0.63 3.225,-1.201 4.526,-1.655 1.294,-0.453 2.393,-0.789 3.41,-1.024 7.164,-1.621 13.479,-2.217 18.938,-2.217 5.912,0 10.791,0.705 14.628,1.579 l -50.345,50.353 H 82.258 L 32.374,76.698 c 4.082,-1.084 9.641,-2.049 16.594,-2.049 z m 374.83,63.924 V 373.427 H 88.203 V 138.573 Z M 23.052,411.435 c 0,-5.458 0.596,-11.774 2.226,-18.928 0.302,-1.36 0.798,-2.872 1.503,-4.779 1.033,-2.864 2.536,-6.601 3.737,-11.404 1.192,-4.812 2.032,-10.623 2.024,-17.71 0,-7.508 0,-14.126 0,-31.409 0,-0.495 0,-1.058 0,-1.579 0,-1.57 0,-3.073 0,-4.82 0,-2.091 0,-2.948 0,-3.023 0,-0.487 0,-1.109 0,-1.528 0,-2.234 0,-3.494 0,-3.494 v -0.268 l -0.009,-0.286 c -0.277,-5.182 -1.209,-10.271 -2.384,-15.334 -1.755,-7.584 -4.048,-15.116 -5.82,-22.179 -0.89,-3.519 -1.654,-6.911 -2.175,-10.069 -0.529,-3.158 -0.823,-6.081 -0.823,-8.625 -0.009,-3.401 0.52,-7.449 1.419,-11.849 1.336,-6.617 3.503,-13.99 5.51,-21.474 0.991,-3.754 1.956,-7.541 2.712,-11.354 0.772,-3.812 1.36,-7.65 1.562,-11.53 l 0.009,-0.277 v -0.277 c 0,0 0,-29.107 0,-45.853 0,-4.728 -0.361,-8.876 -0.966,-12.554 -0.898,-5.51 -2.368,-9.935 -3.628,-13.403 -0.638,-1.73 -1.209,-3.216 -1.654,-4.518 -0.453,-1.293 -0.79,-2.393 -1.016,-3.41 -1.63,-7.163 -2.226,-13.478 -2.226,-18.937 0,-5.912 0.705,-10.791 1.588,-14.638 l 51.563,51.571 v 239.439 l -51.101,51.085 c -1.085,-4.073 -2.051,-9.632 -2.051,-16.586 z m 439.98,25.916 c -5.459,0 -11.774,-0.596 -18.938,-2.217 -1.352,-0.311 -2.864,-0.806 -4.77,-1.512 -2.864,-1.041 -6.601,-2.536 -11.404,-3.736 -4.812,-1.201 -10.623,-2.033 -17.71,-2.024 -8.373,0 -32.743,0 -55.006,0 -11.144,0 -21.75,0 -29.578,0 -3.913,0 -7.13,0 -9.372,0 -2.234,0 -3.494,0 -3.502,0 h -0.269 l -0.277,0.009 c -5.182,0.277 -10.279,1.209 -15.334,2.384 -7.584,1.755 -15.116,4.048 -22.178,5.82 -3.528,0.89 -6.912,1.654 -10.069,2.174 -3.158,0.529 -6.08,0.823 -8.624,0.823 -3.402,0.008 -7.457,-0.52 -11.858,-1.419 -6.609,-1.344 -13.974,-3.503 -21.464,-5.51 -3.755,-1 -7.542,-1.956 -11.355,-2.721 -3.812,-0.764 -7.65,-1.352 -11.53,-1.553 l -0.277,-0.009 h -0.269 c 0,0 -80.703,0 -97.457,0 -4.719,0 -8.876,0.361 -12.554,0.966 -5.509,0.898 -9.935,2.377 -13.403,3.628 -1.73,0.629 -3.216,1.209 -4.518,1.654 -1.293,0.453 -2.393,0.79 -3.41,1.024 -7.163,1.621 -13.479,2.217 -18.937,2.217 -5.912,0 -10.792,-0.705 -14.638,-1.579 l 50.354,-50.353 h 342.631 l 50.362,50.361 c -3.838,0.877 -8.751,1.573 -14.646,1.573 z M 489.25,267.85 c -1.336,6.617 -3.502,13.982 -5.509,21.472 -1,3.754 -1.957,7.542 -2.722,11.355 -0.764,3.812 -1.352,7.65 -1.545,11.53 l -0.017,0.277 v 0.269 c 0,0 0,1.268 0,3.502 0,15.678 0,27.696 0,42.359 0,4.728 0.361,8.876 0.966,12.546 0.898,5.517 2.368,9.942 3.628,13.402 0.638,1.739 1.2,3.225 1.654,4.527 0.453,1.293 0.79,2.393 1.024,3.41 1.621,7.163 2.217,13.479 2.217,18.937 0,6.962 -0.974,12.504 -2.066,16.586 L 435.796,376.937 V 135.063 l 51.092,-51.092 c 1.091,4.081 2.057,9.641 2.057,16.594 0,5.458 -0.596,11.774 -2.217,18.937 -0.31,1.352 -0.814,2.864 -1.512,4.77 -1.041,2.864 -2.536,6.601 -3.736,11.405 -1.193,4.811 -2.033,10.623 -2.024,17.71 0,16.746 0,45.853 0,45.853 v 0.286 l 0.017,0.268 c 0.26,5.182 1.201,10.271 2.376,15.335 1.755,7.584 4.04,15.116 5.82,22.17 0.89,3.527 1.654,6.92 2.175,10.078 0.529,3.158 0.823,6.08 0.823,8.624 0.002,3.4 -0.518,7.448 -1.417,11.849 z"
   id="path1"
   style="fill:#000000" />&#10;	<path
   class="st0"
   d="m 330.53,269.587 c -3.123,-3.703 -7.684,-5.912 -12.538,-6.046 -4.845,-0.152 -9.531,1.78 -12.873,5.299 l -41.342,43.518 -48.859,-73.297 c -3.166,-4.744 -8.499,-7.6 -14.201,-7.6 -5.702,0 -11.035,2.856 -14.2,7.6 l -71.794,107.694 h 280.916 z"
   id="path2"
   style="fill:#000000" />&#10;	<path
   class="st0"
   d="m 302.466,240.7 c 19.004,0 34.398,-15.394 34.398,-34.398 0,-19.005 -15.394,-34.398 -34.398,-34.398 -19.005,0 -34.398,15.393 -34.398,34.398 0,19.004 15.393,34.398 34.398,34.398 z"
   id="path3"
   style="fill:#000000" />&#10;</g></svg>
