<?xml version="1.0" encoding="UTF-8" standalone="no"?>
<!-- Uploaded to SVGRepo https://www.svgrepo.com -->

<svg
   version="1.1"
   id="Layer_1"
   x="0px"
   y="0px"
   viewBox="0 0 32 32"
   style="enable-background:new 0 0 32 32;"
   xml:space="preserve"
   sodipodi:docname="park.svg"
   inkscape:version="1.3 (0e150ed6c4, 2023-07-21)"
   xmlns:inkscape="http://www.inkscape.org/namespaces/inkscape"
   xmlns:sodipodi="http://sodipodi.sourceforge.net/DTD/sodipodi-0.dtd"
   xmlns="http://www.w3.org/2000/svg"
   xmlns:svg="http://www.w3.org/2000/svg"><defs
   id="defs7" /><sodipodi:namedview
   id="namedview5"
   pagecolor="#ffffff"
   bordercolor="#666666"
   borderopacity="1.0"
   inkscape:pageshadow="2"
   inkscape:pageopacity="0.0"
   inkscape:pagecheckerboard="0"
   showgrid="false"
   inkscape:zoom="11.313709"
   inkscape:cx="13.258252"
   inkscape:cy="8.6178639"
   inkscape:window-width="1920"
   inkscape:window-height="1017"
   inkscape:window-x="-8"
   inkscape:window-y="-8"
   inkscape:window-maximized="1"
   inkscape:current-layer="Layer_1"
   inkscape:showpageshadow="2"
   inkscape:deskcolor="#d1d1d1" />&#10;<circle
   style="fill:#4dff6a;fill-opacity:1;stroke:#000000;stroke-width:0.680808"
   id="path859"
   cx="16"
   cy="16"
   r="15.656123" />&#10;<rect
   id="_Transparent_Rectangle"
   style="fill:none;"
   width="32"
   height="32" />&#10;<path
   d="m 15.999944,17.933824 0.574359,-0.44032 c -0.136937,-0.17872 -0.349228,-0.283413 -0.574359,-0.283413 -0.225023,0 -0.437328,0.104693 -0.574358,0.283413 z m -3.002021,1.475456 0.0022,-0.723733 c -0.005,0 -0.01004,0 -0.01506,8.6e-5 z m -0.427487,-7.356055 0.07091,0.72025 c 0.232232,-0.02295 0.439212,-0.156304 0.555876,-0.358409 0.116673,-0.202105 0.128759,-0.44807 0.03228,-0.660616 z m -0.32326,-1.499584 0.723736,6.57e-4 v -6.57e-4 z m 7.505591,0 H 19.02903 v 6.57e-4 z m -0.32326,1.499584 -0.659178,-0.298764 c -0.0963,0.212542 -0.08425,0.458511 0.03228,0.660616 0.116672,0.202105 0.323655,0.335562 0.555927,0.358409 z M 22.74924,15.9366 22.026759,15.89464 v 0 z m -3.74722,3.47268 0.01291,-0.72364 c -0.005,-8.6e-5 -0.01004,-8.6e-5 -0.01542,-8.6e-5 z m -2.278321,-1.475456 c 0,-0.399695 -0.323942,-0.723737 -0.723737,-0.723737 -0.399694,0 -0.723737,0.32405 -0.723737,0.723737 z m -1.447474,7.26535 c 0,0.399695 0.32405,0.723737 0.723737,0.723737 0.399792,0 0.723737,-0.324049 0.723737,-0.723737 z m 0,-7.26535 c 0,0.399694 0.32405,0.723737 0.723737,0.723737 0.399792,0 0.723737,-0.32405 0.723737,-0.723737 z m 1.447474,-1.916454 c 0,-0.399695 -0.323942,-0.723737 -0.723737,-0.723737 -0.399694,0 -0.723737,0.32405 -0.723737,0.723737 z m 0,-2.880472 c 0,-0.399705 -0.323942,-0.723736 -0.723737,-0.723736 -0.399694,0 -0.723737,0.324049 -0.723737,0.723736 z m -1.447474,0.964983 c 0,0.399705 0.32405,0.723736 0.723737,0.723736 0.399792,0 0.723737,-0.324013 0.723737,-0.723736 z m 1.157978,0.578988 c 0.319781,-0.239836 0.384641,-0.693465 0.144755,-1.013229 -0.2398,-0.319781 -0.693437,-0.384577 -1.013229,-0.144755 z m -2.79841,0.289511 c -0.319746,0.2398 -0.384574,0.693433 -0.144756,1.013229 0.239837,0.319782 0.693495,0.384545 1.01319,0.144755 z m 3.087906,-0.868485 c 0,-0.399705 -0.323942,-0.723737 -0.723737,-0.723737 -0.399694,0 -0.723737,0.32405 -0.723737,0.723737 z m -1.447474,1.915489 c 0,0.399695 0.32405,0.723737 0.723737,0.723737 0.399792,0 0.723737,-0.324049 0.723737,-0.723737 z m 0.996054,-0.670565 c -0.37036,-0.15035 -0.792539,0.02797 -0.942882,0.398342 -0.150351,0.370363 0.02797,0.792445 0.398342,0.942789 z m 1.867916,2.320589 c 0.37036,0.15035 0.792445,-0.02798 0.942788,-0.398346 0.150458,-0.37036 -0.02798,-0.792442 -0.398249,-0.942789 z m -2.714591,-0.173879 c -0.578121,0.754036 -1.475216,1.194937 -2.425443,1.192043 l -0.0043,1.44747 c 1.401992,0.0043 2.725563,-0.646248 3.578607,-1.758873 z m -2.440661,1.192136 c -1.590224,0.02869 -2.919429,-1.203233 -3.0116977,-2.791014 l -1.4450419,0.08396 c 0.137331,2.363337 2.1157906,4.196805 4.4827356,4.154343 z M 9.9732273,15.894626 C 9.8809441,14.306812 11.058522,12.929302 12.641343,12.773475 L 12.499529,11.33297 c -2.355935,0.231946 -4.1086816,2.282281 -3.9713435,4.645607 z m 3.2563867,-4.14018 c -0.170866,-0.377009 -0.259096,-0.786219 -0.258702,-1.200148 l -1.447473,-0.0013 c -5.7e-4,0.620475 0.131664,1.233884 0.387816,1.799018 z m -0.258702,-1.200805 c 0,-1.6729126 1.356144,-3.0290785 3.029039,-3.0290785 V 6.077089 c -2.472294,0 -4.476512,2.0042181 -4.476512,4.476552 z m 3.029039,-3.0290785 c 1.672989,0 3.029079,1.3561659 3.029079,3.0290785 h 1.447474 c 0,-2.4723339 -2.004172,-4.476552 -4.476553,-4.476552 z m 3.029079,3.0297355 c 3.84e-4,0.413929 -0.0878,0.823139 -0.258701,1.200148 l 1.318359,0.597553 c 0.256191,-0.56513 0.388404,-1.178539 0.387827,-1.799014 z m 0.329645,2.219177 c 1.582764,0.155838 2.760331,1.533337 2.66808,3.121151 l 1.44506,0.08396 c 0.137331,-2.363325 -1.615477,-4.41367 -3.971383,-4.645605 z m 2.66808,3.121151 c -0.09225,1.587781 -1.421517,2.819578 -3.011709,2.791014 l -0.02582,1.44728 c 2.366909,0.04246 4.345315,-1.791005 4.482728,-4.154343 z m -3.026956,2.790921 c -0.950219,0.0029 -1.847264,-0.438007 -2.425482,-1.192043 l -1.148717,0.88064 c 0.853045,1.112625 2.176712,1.763216 3.578636,1.758873 z m -3.723591,-0.751723 v 7.26535 h 1.447473 v -7.26535 z m 1.447473,0 V 16.01737 h -1.447473 v 1.916454 z m -1.447473,-4.796926 v 0.964983 h 1.447473 v -0.964983 z m 0.28951,0.385994 -1.929929,1.447474 0.868446,1.157977 1.929964,-1.447474 z m -0.28951,0.578989 v 1.915489 h 1.447473 v -1.915489 z m 0.451513,2.586054 2.412456,0.979458 0.544539,-1.341134 -2.412455,-0.979454 z"
   fill="#000000"
   id="path1"
   style="stroke-width:0.964982" /></svg>
