<?xml version="1.0" encoding="UTF-8" standalone="no"?>
<!-- Uploaded to SVGRepo https://www.svgrepo.com -->

<svg
   version="1.1"
   id="Layer_1"
   x="0px"
   y="0px"
   viewBox="0 0 32 32"
   style="enable-background:new 0 0 32 32;"
   xml:space="preserve"
   sodipodi:docname="recycle - Copy.svg"
   inkscape:version="1.3 (0e150ed6c4, 2023-07-21)"
   xmlns:inkscape="http://www.inkscape.org/namespaces/inkscape"
   xmlns:sodipodi="http://sodipodi.sourceforge.net/DTD/sodipodi-0.dtd"
   xmlns="http://www.w3.org/2000/svg"
   xmlns:svg="http://www.w3.org/2000/svg"><defs
   id="defs7" /><sodipodi:namedview
   id="namedview5"
   pagecolor="#ffffff"
   bordercolor="#666666"
   borderopacity="1.0"
   inkscape:pageshadow="2"
   inkscape:pageopacity="0.0"
   inkscape:pagecheckerboard="0"
   showgrid="false"
   inkscape:zoom="16"
   inkscape:cx="14.6875"
   inkscape:cy="17.84375"
   inkscape:window-width="1920"
   inkscape:window-height="1017"
   inkscape:window-x="-8"
   inkscape:window-y="-8"
   inkscape:window-maximized="1"
   inkscape:current-layer="Layer_1"
   inkscape:showpageshadow="2"
   inkscape:deskcolor="#d1d1d1" />&#10;<circle
   style="fill:#4dff6a;fill-opacity:1;stroke:#000000;stroke-width:0.680808"
   id="path859"
   cx="16.008339"
   cy="15.999971"
   r="15.656123" />&#10;<rect
   id="_Transparent_Rectangle"
   style="fill:none;"
   width="32"
   height="32" />&#10;<g
   id="g2"
   transform="matrix(0.03987612,0,0,0.03987612,5.7917133,5.7917133)">&#10;	<path
   class="st0"
   d="m 465.771,234.587 c 0,-26.914 -10.749,-51.289 -28.142,-69.166 0.629,-4.688 1.075,-9.437 1.075,-14.301 0,-54.151 -40.625,-98.726 -93.05,-105.14 C 319.308,17.754 281.874,0 240.206,0 160.476,0 95.853,64.624 95.853,144.361 c 0,0.422 0.062,0.821 0.062,1.236 -29.975,20.27 -49.686,54.58 -49.686,93.494 0,53.346 37.08,97.937 86.842,109.667 10.089,24.69 34.318,42.106 62.636,42.106 10.557,0 20.508,-2.486 29.407,-6.798 V 512 h 77.528 v -83.988 l 30.236,-51.657 c 30.95,-2.256 57.097,-21.766 68.743,-49.033 37.466,-14.194 64.15,-50.3 64.15,-92.735 z M 260.615,342.229 c 0.66,0.928 1.343,1.826 2.041,2.724 l -3.43,1.396 c 0.499,-1.365 0.982,-2.724 1.389,-4.12 z m 24.259,63.173 v -40.579 c 7.181,4.366 15.076,7.642 23.492,9.622 z"
   id="path1"
   style="fill:#000000" />&#10;</g></svg>
