<?xml version="1.0" encoding="UTF-8" standalone="no"?>
<svg
   version="1.1"
   viewBox="0 0 512 512"
   enable-background="new 0 0 512 512"
   id="svg16"
   sodipodi:docname="pingpong.svg"
   inkscape:version="1.3 (0e150ed6c4, 2023-07-21)"
   xmlns:inkscape="http://www.inkscape.org/namespaces/inkscape"
   xmlns:sodipodi="http://sodipodi.sourceforge.net/DTD/sodipodi-0.dtd"
   xmlns="http://www.w3.org/2000/svg"
   xmlns:svg="http://www.w3.org/2000/svg">
  <defs
     id="defs20" />
  <sodipodi:namedview
     id="namedview18"
     pagecolor="#ffffff"
     bordercolor="#666666"
     borderopacity="1.0"
     inkscape:pageshadow="2"
     inkscape:pageopacity="0.0"
     inkscape:pagecheckerboard="0"
     showgrid="false"
     inkscape:zoom="0.70710678"
     inkscape:cx="65.053824"
     inkscape:cy="231.22392"
     inkscape:window-width="1920"
     inkscape:window-height="1017"
     inkscape:window-x="-8"
     inkscape:window-y="-8"
     inkscape:window-maximized="1"
     inkscape:current-layer="svg16"
     inkscape:showpageshadow="2"
     inkscape:deskcolor="#d1d1d1" />
  <circle
     style="fill:#ff4646;fill-opacity:1;stroke:#000000;stroke-width:10.8951"
     id="path859"
     cx="256"
     cy="256"
     r="250.5479" />
  <g
     id="g6"
     transform="translate(263.38116,111.8151)" />
  <g
     id="g8"
     transform="translate(263.38116,111.8151)" />
  <g
     id="g10"
     transform="translate(263.38116,111.8151)" />
  <g
     id="g12"
     transform="translate(263.38116,111.8151)" />
  <g
     id="g14"
     transform="translate(263.38116,111.8151)" />
  <g
     id="g16"
     transform="translate(263.38116,111.8151)" />
  <g
     id="g18"
     transform="translate(263.38116,111.8151)" />
  <g
     id="g20"
     transform="translate(263.38116,111.8151)" />
  <g
     id="g22"
     transform="translate(263.38116,111.8151)" />
  <g
     id="g24"
     transform="translate(263.38116,111.8151)" />
  <g
     id="g26"
     transform="translate(263.38116,111.8151)" />
  <g
     id="g28"
     transform="translate(263.38116,111.8151)" />
  <g
     id="g30"
     transform="translate(263.38116,111.8151)" />
  <g
     id="g32"
     transform="translate(263.38116,111.8151)" />
  <g
     id="g34"
     transform="translate(263.38116,111.8151)" />
  <path
     d="m 378.07644,134.03651 a 129.71358,129.71358 0 0 0 -170.92494,-8.24227 59.199292,59.199292 0 1 0 -54.93968,90.32212 124.16158,124.16158 0 0 0 11.10399,74.74751 6.5938176,6.5938176 0 0 1 -0.92314,7.43782 l -38.32327,23.07836 a 49.361319,49.361319 0 0 0 22.88056,93.03876 51.313088,51.313088 0 0 0 6.02674,-0.35606 48.860187,48.860187 0 0 0 35.9363,-22.88055 l 27.27204,-41.23773 a 6.5938176,6.5938176 0 0 1 7.58289,-1.1737 127.43211,127.43211 0 0 0 149.21808,-28.31386 138.47017,138.47017 0 0 0 41.21136,-93.85639 124.08246,124.08246 0 0 0 -36.12093,-92.56401 z M 124.0694,157.25993 a 32.969087,32.969087 0 1 1 32.96909,32.96909 32.969087,32.969087 0 0 1 -32.96909,-32.96909 z m 111.30364,167.82585 a 32.889961,32.889961 0 0 0 -39.7871,8.33458 c -0.31649,0.38245 -0.60662,0.77808 -0.88357,1.18689 l -28.05009,42.43781 a 22.97286,22.97286 0 0 1 -42.31913,-15.37679 23.210237,23.210237 0 0 1 12.67332,-17.30217 l 40.1036,-24.14656 a 12.607379,12.607379 0 0 0 1.66165,-1.18689 32.83721,32.83721 0 0 0 8.21589,-39.77391 96.678548,96.678548 0 0 1 -9.13903,-56.16613 L 289.0599,334.30393 a 96.401607,96.401607 0 0 1 -53.68686,-9.21815 z m 118.96565,-23.27617 a 116.98751,116.98751 0 0 1 -36.02861,24.59493 c -0.11869,-0.13187 -0.15826,-0.30332 -0.29013,-0.43518 L 194.75512,202.69134 a 58.988291,58.988291 0 0 0 21.62773,-45.43141 c 0,-1.56932 -0.34288,-3.04633 -0.46157,-4.5761 a 105.63295,105.63295 0 0 1 143.50784,0 97.891816,97.891816 0 0 1 28.39298,73.15181 112.17402,112.17402 0 0 1 -33.48341,75.97397 z"
     id="path1"
     style="stroke-width:13.1876" />
</svg>
