<?xml version="1.0" encoding="UTF-8" standalone="no"?>
<!-- Generator: Adobe Illustrator 16.0.0, SVG Export Plug-In . SVG Version: 6.00 Build 0)  -->

<svg
   version="1.1"
   id="Capa_1"
   x="0px"
   y="0px"
   width="206.274px"
   height="206.274px"
   viewBox="0 0 206.274 206.274"
   style="enable-background:new 0 0 206.274 206.274;"
   xml:space="preserve"
   sodipodi:docname="police.svg"
   inkscape:version="1.3 (0e150ed6c4, 2023-07-21)"
   xmlns:inkscape="http://www.inkscape.org/namespaces/inkscape"
   xmlns:sodipodi="http://sodipodi.sourceforge.net/DTD/sodipodi-0.dtd"
   xmlns="http://www.w3.org/2000/svg"
   xmlns:svg="http://www.w3.org/2000/svg"><defs
   id="defs53" /><sodipodi:namedview
   id="namedview51"
   pagecolor="#ffffff"
   bordercolor="#666666"
   borderopacity="1.0"
   inkscape:pageshadow="2"
   inkscape:pageopacity="0.0"
   inkscape:pagecheckerboard="0"
   showgrid="false"
   inkscape:zoom="1.424333"
   inkscape:cx="-102.50412"
   inkscape:cy="24.221864"
   inkscape:window-width="1920"
   inkscape:window-height="1017"
   inkscape:window-x="-8"
   inkscape:window-y="-8"
   inkscape:window-maximized="1"
   inkscape:current-layer="Capa_1"
   inkscape:showpageshadow="2"
   inkscape:deskcolor="#d1d1d1" />&#10;<circle
   style="fill:#fbec65;fill-opacity:1;stroke:#000000;stroke-width:4.4540359;stroke-opacity:1;stroke-dasharray:none"
   id="path859"
   cx="103.137"
   cy="103.137"
   r="100.90275" />&#10;<g
   id="g20"
   style="stroke:#000000;stroke-opacity:1;stroke-width:1.01510246;stroke-dasharray:none">&#10;</g>&#10;<g
   id="g22"
   style="stroke:#000000;stroke-opacity:1;stroke-width:1.01510246;stroke-dasharray:none">&#10;</g>&#10;<g
   id="g24"
   style="stroke:#000000;stroke-opacity:1;stroke-width:1.01510246;stroke-dasharray:none">&#10;</g>&#10;<g
   id="g26"
   style="stroke:#000000;stroke-opacity:1;stroke-width:1.01510246;stroke-dasharray:none">&#10;</g>&#10;<g
   id="g28"
   style="stroke:#000000;stroke-opacity:1;stroke-width:1.01510246;stroke-dasharray:none">&#10;</g>&#10;<g
   id="g30"
   style="stroke:#000000;stroke-opacity:1;stroke-width:1.01510246;stroke-dasharray:none">&#10;</g>&#10;<g
   id="g32"
   style="stroke:#000000;stroke-opacity:1;stroke-width:1.01510246;stroke-dasharray:none">&#10;</g>&#10;<g
   id="g34"
   style="stroke:#000000;stroke-opacity:1;stroke-width:1.01510246;stroke-dasharray:none">&#10;</g>&#10;<g
   id="g36"
   style="stroke:#000000;stroke-opacity:1;stroke-width:1.01510246;stroke-dasharray:none">&#10;</g>&#10;<g
   id="g38"
   style="stroke:#000000;stroke-opacity:1;stroke-width:1.01510246;stroke-dasharray:none">&#10;</g>&#10;<g
   id="g40"
   style="stroke:#000000;stroke-opacity:1;stroke-width:1.01510246;stroke-dasharray:none">&#10;</g>&#10;<g
   id="g42"
   style="stroke:#000000;stroke-opacity:1;stroke-width:1.01510246;stroke-dasharray:none">&#10;</g>&#10;<g
   id="g44"
   style="stroke:#000000;stroke-opacity:1;stroke-width:1.01510246;stroke-dasharray:none">&#10;</g>&#10;<g
   id="g46"
   style="stroke:#000000;stroke-opacity:1;stroke-width:1.01510246;stroke-dasharray:none">&#10;</g>&#10;<g
   id="g48"
   style="stroke:#000000;stroke-opacity:1;stroke-width:1.01510246;stroke-dasharray:none">&#10;</g>&#10;<g
   id="g6"
   transform="matrix(0.2738719,0,0,0.2738719,33.566347,33.566315)"
   style="stroke:#000000;stroke-opacity:1;stroke-width:11.23883107;stroke-dasharray:none"><g
     id="g3"
     style="stroke:#000000;stroke-opacity:1;stroke-width:11.23883107;stroke-dasharray:none">&#10;	<g
   id="g2"
   style="stroke:#000000;stroke-opacity:1;stroke-width:11.23883107;stroke-dasharray:none">&#10;		<path
   d="m 475.897,76.703 -62.1,-64.6 c -4.5,-4.6 -11.5,-5.7 -17.1,-2.5 -54.4,30.8 -123.5,-1.5 -135.1,-7.4 -3.7,-2.4 -8.5,-2.9 -12.7,-1.2 -0.9,0.3 -1.7,0.8 -2.5,1.3 -12,6.1 -80.8,38 -135,7.4 -5.6,-3.2 -12.6,-2.1 -17.1,2.5 l -62.2,64.5 c -3.3,3.5 -4.7,8.4 -3.6,13.1 0.3,1.2 28.4,120.5 10.3,181.6 -0.1,0.3 -0.2,0.6 -0.2,0.9 -1.5,6.2 -31.6,153.7 210.8,235 3.1,1 6.2,1 9.1,0 242.5,-81.3 212.4,-228.8 211,-235 -0.1,-0.3 -0.2,-0.6 -0.2,-0.9 -18.1,-61.1 10,-180.4 10.3,-181.6 1,-4.7 -0.3,-9.7 -3.7,-13.1 z m -33.9,202.1 c 1.3,7.2 20.5,128.6 -188,200.2 -208.8,-71.8 -189.7,-191.5 -188,-200.2 17.3,-59.6 -2.2,-159.6 -8.3,-188 l 49.6,-51.6 c 58.7,26.5 125,0.7 146.7,-9.3 21.7,10 88,35.8 146.7,9.3 l 49.6,51.6 c -6.2,28.4 -25.6,128.4 -8.3,188 z"
   id="path1"
   style="stroke:#000000;stroke-opacity:1;stroke-width:11.23883107;stroke-dasharray:none" />&#10;	</g>&#10;</g><g
     id="g5"
     style="stroke:#000000;stroke-opacity:1;stroke-width:11.23883107;stroke-dasharray:none">&#10;	<g
   id="g4"
   style="stroke:#000000;stroke-opacity:1;stroke-width:11.23883107;stroke-dasharray:none">&#10;		<path
   d="m 390.197,187.003 -93.6,-0.3 -29.2,-88.9 c -4.3,-12.9 -22.6,-12.9 -26.8,0 l -29.2,88.9 -93.6,0.3 c -13.6,0 -19.3,17.5 -8.3,25.5 l 75.6,55.3 -28.7,89.1 c -4.2,13 10.6,23.7 21.7,15.8 l 75.9,-54.8 75.9,54.8 c 11,8 25.9,-2.8 21.7,-15.8 l -28.7,-89.1 75.6,-55.3 c 11,-8 5.3,-25.4 -8.3,-25.5 z m -92.2,64 c -4.9,3.6 -7,9.9 -5.1,15.7 l 18.6,57.9 -49.2,-35.6 c -4.9,-3.6 -11.6,-3.6 -16.5,0 l -49.3,35.6 18.6,-57.9 c 1.9,-5.8 -0.2,-12.1 -5.1,-15.7 l -49.1,-35.9 60.8,-0.2 c 6.1,0 11.5,-3.9 13.4,-9.7 l 19,-57.8 19,57.8 c 1.9,5.8 7.3,9.7 13.4,9.7 l 60.8,0.2 z"
   id="path2"
   style="stroke:#000000;stroke-opacity:1;stroke-width:11.23883107;stroke-dasharray:none" />&#10;	</g>&#10;</g></g></svg>
