<?xml version="1.0" encoding="UTF-8" standalone="no"?>
<!-- Uploaded to SVGRepo https://www.svgrepo.com -->

<svg
   version="1.1"
   id="Layer_1"
   x="0px"
   y="0px"
   viewBox="0 0 32 32"
   style="enable-background:new 0 0 32 32;"
   xml:space="preserve"
   sodipodi:docname="recycle.svg"
   inkscape:version="1.3 (0e150ed6c4, 2023-07-21)"
   xmlns:inkscape="http://www.inkscape.org/namespaces/inkscape"
   xmlns:sodipodi="http://sodipodi.sourceforge.net/DTD/sodipodi-0.dtd"
   xmlns="http://www.w3.org/2000/svg"
   xmlns:svg="http://www.w3.org/2000/svg"><defs
   id="defs7" /><sodipodi:namedview
   id="namedview5"
   pagecolor="#ffffff"
   bordercolor="#666666"
   borderopacity="1.0"
   inkscape:pageshadow="2"
   inkscape:pageopacity="0.0"
   inkscape:pagecheckerboard="0"
   showgrid="false"
   inkscape:zoom="11.313709"
   inkscape:cx="22.539029"
   inkscape:cy="12.683728"
   inkscape:window-width="1920"
   inkscape:window-height="1017"
   inkscape:window-x="-8"
   inkscape:window-y="-8"
   inkscape:window-maximized="1"
   inkscape:current-layer="Layer_1"
   inkscape:showpageshadow="2"
   inkscape:deskcolor="#d1d1d1" />&#10;<circle
   style="fill:#4dff6a;fill-opacity:1;stroke:#000000;stroke-width:0.680808"
   id="path859"
   cx="16.008339"
   cy="15.999971"
   r="15.656123" />&#10;<rect
   id="_Transparent_Rectangle"
   style="fill:none;"
   width="32"
   height="32" /><g
   id="g1"
   transform="translate(-1.1203584,0.08236012)"><path
     d="m 12.890497,16.849886 0.942403,0.566172 c 0.153414,0 0.233774,-0.06575 0.233774,-0.193594 a 0.84012639,0.84012639 0 0 0 -0.109582,-0.343356 l -2.045525,-3.839013 -4.5257244,0.109582 a 0.28491243,0.28491243 0 0 0 -0.306829,0.317787 c 0,0.04748 0.06575,0.109582 0.193594,0.193594 l 0.93875,0.566172 -1.011804,1.545103 a 2.2464249,2.2464249 0 0 0 -0.412758,1.095817 1.7934872,1.7934872 0 0 0 0.273954,0.876653 l 3.0792464,5.369504 a 4.5951262,4.5951262 0 0 1 -0.109582,-0.964319 2.9221788,2.9221788 0 0 1 0.515035,-1.614504 l 2.348701,-3.685598 z"
     id="path1"
     style="stroke-width:0.365272" /><path
     d="M 14.077632,13.726807 16.616275,9.7818663 Q 15.191713,6.5382481 13.59182,6.5382481 c -0.642879,0 -1.073901,0.1789833 -1.296717,0.5369502 L 9.8916106,10.914211 Z"
     id="path2"
     style="stroke-width:0.365272" /><path
     d="m 12.006538,24.374496 h 4.898302 v -5.095549 h -4.719319 a 17.317562,17.317562 0 0 0 -1.095817,1.683906 3.1632585,3.1632585 0 0 0 -0.365272,1.43552 q 0,1.976123 1.271148,1.976123 z"
     id="path3"
     style="stroke-width:0.365272" /><path
     d="m 22.099013,12.777099 2.191634,-3.6527229 a 0.81090459,0.81090459 0 0 0 0.109582,-0.4017995 c 0,-0.1643726 -0.05479,-0.248385 -0.164373,-0.248385 A 0.92413904,0.92413904 0 0 1 24.01304,8.5582036 L 23.008541,8.9782673 22.099013,7.1847799 Q 21.503619,5.972076 19.677257,5.972076 h -5.683638 a 4.4380591,4.4380591 0 0 1 1.406299,0.6209627 q 0.873001,0.6903648 1.782529,2.5934337 l 1.132344,2.3742706 -0.829168,0.401799 a 0.21916341,0.21916341 0 0 0 -0.124193,0.222816 c 0,0.135151 0.08767,0.215511 0.262997,0.233774 l 4.489197,0.365273 z"
     id="path4"
     style="stroke-width:0.365272" /><path
     d="m 24.279689,23.61473 3.174217,-5.771303 a 3.5394892,3.5394892 0 0 1 -1.530492,1.077553 6.3082535,6.3082535 0 0 1 -1.89211,0.222816 h -3.535837 v -0.730544 q 0,-0.427369 -0.208205,-0.427369 a 0.23742702,0.23742702 0 0 0 -0.219163,0.109582 l -2.217204,3.875539 2.31948,3.565058 c 0.175331,0.266649 0.325092,0.365273 0.452938,0.314135 0.127845,-0.05114 0.193594,-0.102277 0.193594,-0.204553 v -1.216357 h 1.961513 a 1.5816293,1.5816293 0 0 0 1.519532,-0.814557 z"
     id="path5"
     style="stroke-width:0.365272" /><path
     d="m 22.898959,18.409599 h 2.111274 a 2.5240319,2.5240319 0 0 0 1.574324,-0.664796 q 0.873001,-0.690365 0.869349,-1.461089 a 1.267495,1.267495 0 0 0 -0.233775,-0.704976 l -2.513074,-3.835359 -4.321171,2.513073 z"
     id="path6"
     style="stroke-width:0.365272" /></g>&#10;</svg>
