<?xml version="1.0" encoding="UTF-8" standalone="no"?>
<!-- Uploaded to SVGRepo https://www.svgrepo.com -->

<svg
   version="1.1"
   id="Layer_1"
   x="0px"
   y="0px"
   viewBox="0 0 32 32"
   style="enable-background:new 0 0 32 32;"
   xml:space="preserve"
   sodipodi:docname="recycle.svg"
   inkscape:version="1.1.2 (b8e25be833, 2022-02-05)"
   xmlns:inkscape="http://www.inkscape.org/namespaces/inkscape"
   xmlns:sodipodi="http://sodipodi.sourceforge.net/DTD/sodipodi-0.dtd"
   xmlns="http://www.w3.org/2000/svg"
   xmlns:svg="http://www.w3.org/2000/svg"><defs
   id="defs7" /><sodipodi:namedview
   id="namedview5"
   pagecolor="#ffffff"
   bordercolor="#666666"
   borderopacity="1.0"
   inkscape:pageshadow="2"
   inkscape:pageopacity="0.0"
   inkscape:pagecheckerboard="0"
   showgrid="false"
   inkscape:zoom="16"
   inkscape:cx="32.03125"
   inkscape:cy="17.8125"
   inkscape:window-width="1920"
   inkscape:window-height="1017"
   inkscape:window-x="-8"
   inkscape:window-y="-8"
   inkscape:window-maximized="1"
   inkscape:current-layer="Layer_1" />
<circle
   style="fill:#4dff6a;fill-opacity:1;stroke:#000000;stroke-width:0.680808"
   id="path859"
   cx="16.008339"
   cy="15.999971"
   r="15.656123" /><path
   id="recycle_1_"
   d="m 18.755078,25.968329 c -0.0737,0 -0.146013,-0.03375 -0.193537,-0.09367 L 15.806567,22.43094 c -0.07232,-0.09023 -0.07232,-0.21902 0,-0.309245 l 2.754974,-3.443719 c 0.06543,-0.08265 0.17563,-0.11502 0.275498,-0.0792 0.09987,0.03513 0.165987,0.128795 0.165987,0.234172 v 1.12954 h 2.852088 l -2.143371,-3.867296 c -0.03237,-0.05717 -0.03995,-0.125351 -0.02135,-0.188027 0.0186,-0.06268 0.06061,-0.116397 0.117775,-0.148768 l 3.617282,-2.004933 c 0.05785,-0.03168 0.125352,-0.03926 0.188716,-0.02135 0.06336,0.01791 0.116398,0.06061 0.148769,0.118464 l 2.262523,4.087005 c 0.283762,0.513114 0.278252,1.126784 -0.01446,1.641276 v 0 c -6.89e-4,6.89e-4 -6.89e-4,6.89e-4 -6.89e-4,6.89e-4 l -2.366523,4.183429 c -0.289961,0.511736 -0.836135,0.829247 -1.426388,0.829247 -0.0021,0 -0.0041,0 -0.0062,0 H 19.00303 v 1.128162 c 0,0.105378 -0.06681,0.199047 -0.165987,0.234173 -0.02686,0.0096 -0.05441,0.01377 -0.08196,0.01377 z m -2.437464,-3.691666 2.189517,2.737067 v -0.670836 c 0,-0.13706 0.110887,-0.247948 0.247947,-0.247948 h 3.457494 c 0.0014,0 0.0034,0 0.0048,0 0.418756,0 0.790678,-0.214888 0.995235,-0.577856 l 1.761806,-3.11381 c -0.134994,0.0365 -0.275498,0.05579 -0.419445,0.05579 -0.0028,0 -0.0062,0 -0.0096,0 h -5.790269 c -0.13706,0 -0.247947,-0.110887 -0.247947,-0.247947 v -0.670837 z m 6.104336,-2.314179 h 2.124085 c 0.0021,0 0.0048,0 0.0069,0 0.419445,0 0.801697,-0.234862 1.026228,-0.628823 v -6.89e-4 c 0.210067,-0.368478 0.214888,-0.789989 0.01171,-1.155712 l -2.141992,-3.870739 -3.183374,1.764561 z m -7.803466,4.628358 v 0 l -4.6717486,-0.0028 C 9.3606146,24.587398 8.8268382,24.285728 8.518281,23.78019 L 6.0064328,19.682165 C 5.6978756,19.178694 5.6854783,18.544361 5.9754393,18.026426 L 7.5306226,15.220484 6.5436529,14.672933 c -0.092292,-0.05097 -0.1418812,-0.154968 -0.1246626,-0.258279 0.017907,-0.103312 0.099179,-0.185272 0.2024906,-0.202491 l 4.3473501,-0.740399 c 0.116398,-0.01997 0.227285,0.0427 0.271365,0.150146 l 1.676402,4.07874 c 0.03995,0.0978 0.01446,0.209378 -0.06474,0.278941 -0.07852,0.07094 -0.192848,0.08334 -0.28514,0.03168 L 11.57906,17.46372 10.196063,19.95835 h 4.421734 c 0.13706,0 0.247948,0.110887 0.247948,0.247947 v 4.136595 c 0,0.06612 -0.02617,0.129484 -0.07232,0.17563 -0.04615,0.04614 -0.109511,0.07232 -0.174941,0.07232 z M 8.9411696,23.521911 v 0 c 0.2210868,0.36228 0.5881872,0.57028 1.0055658,0.57028 l 4.4231116,0.0028 V 20.455625 H 9.9219407 l -1.0296719,1.857541 c -0.2073118,0.367789 -0.188027,0.818917 0.048901,1.208745 z m -1.5386533,-8.939893 0.5861208,0.325087 c 0.057166,0.03168 0.1005566,0.0854 0.1184639,0.148769 0.017907,0.06337 0.010331,0.130861 -0.021351,0.188027 l -1.6764021,3.024274 c -0.2059344,0.3671 -0.1976695,0.798942 0.020662,1.155023 l 1.8692503,3.051134 c 0.034437,-0.139126 0.08747,-0.27412 0.1597886,-0.402915 l 2.8073192,-5.064332 c 0.03168,-0.05717 0.0854,-0.09987 0.148769,-0.117775 0.06336,-0.01791 0.130861,-0.01102 0.188027,0.02135 l 0.58681,0.325087 -1.332031,-3.241917 z M 21.246953,14.163951 c -0.01309,0 -0.02617,-6.89e-4 -0.03995,-0.0028 l -4.353549,-0.70183 c -0.103311,-0.01653 -0.185961,-0.0978 -0.204557,-0.201113 -0.0186,-0.103311 0.0303,-0.207312 0.121908,-0.259656 l 0.983529,-0.55646 -1.405037,-2.4822324 -2.310047,3.7701824 c -0.07163,0.116398 -0.22453,0.152902 -0.340928,0.08196 l -3.526367,-2.161278 c -0.05648,-0.03444 -0.09642,-0.08954 -0.111577,-0.15359 -0.01515,-0.06405 -0.0048,-0.13155 0.02962,-0.187338 L 12.533657,7.32817 c 0.305802,-0.4986505 0.840956,-0.795499 1.431898,-0.795499 6.89e-4,0 0.0014,0 0.0021,0 h 4.807431 c 6.89e-4,0 0.0014,0 0.0021,0 0.588876,0 1.13505,0.3209546 1.425011,0.8382011 l 1.579978,2.7921669 0.982837,-0.5565049 c 0.0916,-0.051656 0.205934,-0.039947 0.285829,0.028927 0.07921,0.069563 0.105378,0.1811396 0.06681,0.2789412 l -1.640588,4.0932037 c -0.03857,0.09574 -0.129483,0.156345 -0.23004,0.156345 z m -3.616593,-1.082016 3.460248,0.557882 1.303792,-3.252936 -0.583366,0.329908 c -0.05717,0.03237 -0.125351,0.03995 -0.188027,0.02273 -0.06405,-0.01722 -0.117775,-0.05923 -0.150146,-0.116397 L 19.770287,7.6133098 C 19.567796,7.2517194 19.187609,7.0278777 18.777118,7.0278777 c -6.89e-4,0 -0.0014,0 -0.0021,0 h -3.578023 c 0.100556,0.1019341 0.187338,0.217643 0.259656,0.3457493 l 2.851399,5.039538 c 0.0675,0.119152 0.02548,0.270676 -0.09367,0.338173 z m -6.987993,-1.724614 3.103479,1.901621 2.32451,-3.7929117 -1.046202,-1.8492767 C 14.818219,7.2482757 14.422881,7.0285665 13.966932,7.0278777 c -6.88e-4,0 -6.88e-4,0 -0.0014,0 -0.423578,0 -0.791367,0.2038681 -1.009698,0.5592599 z"
   style="stroke-width:0.688744" />
<rect
   id="_Transparent_Rectangle"
   style="fill:none;"
   width="32"
   height="32" />
</svg>
