<?xml version="1.0" encoding="UTF-8" standalone="no"?>
<svg
   version="1.1"
   viewBox="0 0 512 512"
   enable-background="new 0 0 512 512"
   id="svg16"
   sodipodi:docname="restaurant.svg"
   inkscape:version="1.3 (0e150ed6c4, 2023-07-21)"
   xmlns:inkscape="http://www.inkscape.org/namespaces/inkscape"
   xmlns:sodipodi="http://sodipodi.sourceforge.net/DTD/sodipodi-0.dtd"
   xmlns="http://www.w3.org/2000/svg"
   xmlns:svg="http://www.w3.org/2000/svg">
  <defs
     id="defs20" />
  <sodipodi:namedview
     id="namedview18"
     pagecolor="#ffffff"
     bordercolor="#666666"
     borderopacity="1.0"
     inkscape:pageshadow="2"
     inkscape:pageopacity="0.0"
     inkscape:pagecheckerboard="0"
     showgrid="false"
     inkscape:zoom="0.5"
     inkscape:cx="-42"
     inkscape:cy="217"
     inkscape:window-width="1920"
     inkscape:window-height="1017"
     inkscape:window-x="-8"
     inkscape:window-y="-8"
     inkscape:window-maximized="1"
     inkscape:current-layer="svg16"
     inkscape:showpageshadow="2"
     inkscape:deskcolor="#d1d1d1" />
  <circle
     style="fill:#ce5eff;stroke:#000000;stroke-width:10.8951;fill-opacity:1"
     id="path859"
     cx="255.99544"
     cy="255.99544"
     r="250.5479" />
  <g
     id="g4"
     transform="matrix(6.5779533,0,0,6.5779533,107.99358,107.99991)">
    <path
       d="m 43.604,41.146 c 0.703,0.64 0.945,2.207 0.037,3.107 -0.902,0.909 -2.472,0.668 -3.109,-0.034 C 34.639,37.891 28.749,31.56 22.856,25.23 l -0.67,-0.715 C 16.022,31.133 9.86,37.754 3.698,44.375 3.063,45.076 1.496,45.318 0.594,44.409 -0.316,43.508 -0.076,41.937 0.626,41.3 7.268,35.122 13.905,28.942 20.546,22.761 c 0,0 -3.214,-3.467 -4.6,-4.955 C 12.703,20.131 7.897,19.247 5.008,15.68 1.901,11.917 -0.779,5.187 1.815,2.431 c 2.759,-2.596 9.485,0.09 13.248,3.194 3.566,2.892 4.455,7.691 2.125,10.936 1.67,1.556 3.34,3.108 5.012,4.663 -0.004,0.003 -0.006,0.005 -0.01,0.008 0,0 0.104,0.082 0.01,-0.008 1.562,-1.455 3.125,-2.909 4.688,-4.364 -1.32,-2.254 -0.443,-5.415 1.701,-7.219 2.459,-2.061 11.57,-9.883 11.815,-9.635 0.244,0.243 -6.146,6.281 -10.415,10.563 l 0.712,0.711 C 35.258,7.286 41.691,1.296 41.939,1.54 42.183,1.785 35.993,8.02 31.863,12.445 L 32.57,13.15 C 36.988,9.017 43.225,2.826 43.467,3.069 c 0.245,0.246 -5.746,6.68 -9.74,11.237 l 0.707,0.706 C 38.714,10.743 44.749,4.353 44.996,4.595 45.243,4.841 35.378,16.4 35.364,16.417 c -0.002,-0.002 2.094,-2.462 -0.008,-0.006 -2.006,2.347 -5.002,3.057 -7.217,1.705 -1.438,1.543 -2.873,3.086 -4.309,4.629 -0.126,-0.119 13.184,12.268 19.774,18.401 z"
       id="path2" />
  </g>
  <g
     id="g6"
     transform="translate(263.38116,111.8151)" />
  <g
     id="g8"
     transform="translate(263.38116,111.8151)" />
  <g
     id="g10"
     transform="translate(263.38116,111.8151)" />
  <g
     id="g12"
     transform="translate(263.38116,111.8151)" />
  <g
     id="g14"
     transform="translate(263.38116,111.8151)" />
  <g
     id="g16"
     transform="translate(263.38116,111.8151)" />
  <g
     id="g18"
     transform="translate(263.38116,111.8151)" />
  <g
     id="g20"
     transform="translate(263.38116,111.8151)" />
  <g
     id="g22"
     transform="translate(263.38116,111.8151)" />
  <g
     id="g24"
     transform="translate(263.38116,111.8151)" />
  <g
     id="g26"
     transform="translate(263.38116,111.8151)" />
  <g
     id="g28"
     transform="translate(263.38116,111.8151)" />
  <g
     id="g30"
     transform="translate(263.38116,111.8151)" />
  <g
     id="g32"
     transform="translate(263.38116,111.8151)" />
  <g
     id="g34"
     transform="translate(263.38116,111.8151)" />
</svg>
