<?xml version="1.0" encoding="UTF-8" standalone="no"?>
<svg
   version="1.1"
   viewBox="0 0 512 512"
   enable-background="new 0 0 512 512"
   id="svg16"
   sodipodi:docname="restaurant.svg"
   inkscape:version="1.3 (0e150ed6c4, 2023-07-21)"
   xmlns:inkscape="http://www.inkscape.org/namespaces/inkscape"
   xmlns:sodipodi="http://sodipodi.sourceforge.net/DTD/sodipodi-0.dtd"
   xmlns="http://www.w3.org/2000/svg"
   xmlns:svg="http://www.w3.org/2000/svg">
  <defs
     id="defs20" />
  <sodipodi:namedview
     id="namedview18"
     pagecolor="#ffffff"
     bordercolor="#666666"
     borderopacity="1.0"
     inkscape:pageshadow="2"
     inkscape:pageopacity="0.0"
     inkscape:pagecheckerboard="0"
     showgrid="false"
     inkscape:zoom="0.5"
     inkscape:cx="-41"
     inkscape:cy="216"
     inkscape:window-width="1920"
     inkscape:window-height="1022"
     inkscape:window-x="0"
     inkscape:window-y="30"
     inkscape:window-maximized="1"
     inkscape:current-layer="svg16"
     inkscape:showpageshadow="2"
     inkscape:deskcolor="#d1d1d1" />
  <circle
     style="fill:#ce5eff;fill-opacity:1;stroke:#000000;stroke-width:10.8951"
     id="path859"
     cx="256"
     cy="256"
     r="250.5479" />
  <g
     id="g6"
     transform="translate(263.38116,111.8151)" />
  <g
     id="g8"
     transform="translate(263.38116,111.8151)" />
  <g
     id="g10"
     transform="translate(263.38116,111.8151)" />
  <g
     id="g12"
     transform="translate(263.38116,111.8151)" />
  <g
     id="g14"
     transform="translate(263.38116,111.8151)" />
  <g
     id="g16"
     transform="translate(263.38116,111.8151)" />
  <g
     id="g18"
     transform="translate(263.38116,111.8151)" />
  <g
     id="g20"
     transform="translate(263.38116,111.8151)" />
  <g
     id="g22"
     transform="translate(263.38116,111.8151)" />
  <g
     id="g24"
     transform="translate(263.38116,111.8151)" />
  <g
     id="g26"
     transform="translate(263.38116,111.8151)" />
  <g
     id="g28"
     transform="translate(263.38116,111.8151)" />
  <g
     id="g30"
     transform="translate(263.38116,111.8151)" />
  <g
     id="g32"
     transform="translate(263.38116,111.8151)" />
  <g
     id="g34"
     transform="translate(263.38116,111.8151)" />
  <g
     id="g4"
     transform="matrix(0.65289861,0,0,0.65289861,88.822388,88.893524)">
    <path
       d="m 57.49,47.74 368.43,368.43 a 37.28,37.28 0 0 1 0,52.72 v 0 a 37.29,37.29 0 0 1 -52.72,0 l -90,-91.55 A 32,32 0 0 1 274,354.91 v -5.53 a 32,32 0 0 0 -9.52,-22.78 l -11.62,-10.73 a 32,32 0 0 0 -29.8,-7.44 v 0 A 48.53,48.53 0 0 1 176.5,295.8 L 91.07,210.36 C 40.39,159.68 21.74,83.15 57.49,47.74 Z"
       style="fill:none;stroke:#000000;stroke-width:32px;stroke-linejoin:round"
       id="path1" />
    <path
       d="m 400,32 -77.25,77.25 A 64,64 0 0 0 304,154.51 v 14.86 a 16,16 0 0 1 -4.69,11.32 L 288,192"
       style="fill:none;stroke:#000000;stroke-width:32px;stroke-linecap:round;stroke-linejoin:round"
       id="path2" />
    <path
       d="m 320,224 11.31,-11.31 A 16,16 0 0 1 342.63,208 h 14.86 a 64,64 0 0 0 45.26,-18.75 L 480,112"
       style="fill:none;stroke:#000000;stroke-width:32px;stroke-linecap:round;stroke-linejoin:round"
       id="path3" />
    <line
       x1="440"
       y1="72"
       x2="360"
       y2="152"
       style="fill:none;stroke:#000000;stroke-width:32px;stroke-linecap:round;stroke-linejoin:round"
       id="line3" />
    <path
       d="m 200,368 -99.72,100.28 a 40,40 0 0 1 -56.56,0 v 0 a 40,40 0 0 1 0,-56.56 L 128,328"
       style="fill:none;stroke:#000000;stroke-width:32px;stroke-linecap:round;stroke-linejoin:round"
       id="path4" />
  </g>
</svg>
