<?xml version="1.0" encoding="UTF-8" standalone="no"?>
<svg
   version="1.1"
   viewBox="0 0 512 512"
   enable-background="new 0 0 512 512"
   id="svg16"
   sodipodi:docname="rugby.svg"
   inkscape:version="1.3 (0e150ed6c4, 2023-07-21)"
   xmlns:inkscape="http://www.inkscape.org/namespaces/inkscape"
   xmlns:sodipodi="http://sodipodi.sourceforge.net/DTD/sodipodi-0.dtd"
   xmlns="http://www.w3.org/2000/svg"
   xmlns:svg="http://www.w3.org/2000/svg">
  <defs
     id="defs20" />
  <sodipodi:namedview
     id="namedview18"
     pagecolor="#ffffff"
     bordercolor="#666666"
     borderopacity="1.0"
     inkscape:pageshadow="2"
     inkscape:pageopacity="0.0"
     inkscape:pagecheckerboard="0"
     showgrid="false"
     inkscape:zoom="0.70710678"
     inkscape:cx="65.053824"
     inkscape:cy="231.22392"
     inkscape:window-width="1920"
     inkscape:window-height="1017"
     inkscape:window-x="-8"
     inkscape:window-y="-8"
     inkscape:window-maximized="1"
     inkscape:current-layer="svg16"
     inkscape:showpageshadow="2"
     inkscape:deskcolor="#d1d1d1" />
  <circle
     style="fill:#ff4646;fill-opacity:1;stroke:#000000;stroke-width:10.8951"
     id="path859"
     cx="256"
     cy="256"
     r="250.5479" />
  <g
     id="g6"
     transform="translate(263.38116,111.8151)" />
  <g
     id="g8"
     transform="translate(263.38116,111.8151)" />
  <g
     id="g10"
     transform="translate(263.38116,111.8151)" />
  <g
     id="g12"
     transform="translate(263.38116,111.8151)" />
  <g
     id="g14"
     transform="translate(263.38116,111.8151)" />
  <g
     id="g16"
     transform="translate(263.38116,111.8151)" />
  <g
     id="g18"
     transform="translate(263.38116,111.8151)" />
  <g
     id="g20"
     transform="translate(263.38116,111.8151)" />
  <g
     id="g22"
     transform="translate(263.38116,111.8151)" />
  <g
     id="g24"
     transform="translate(263.38116,111.8151)" />
  <g
     id="g26"
     transform="translate(263.38116,111.8151)" />
  <g
     id="g28"
     transform="translate(263.38116,111.8151)" />
  <g
     id="g30"
     transform="translate(263.38116,111.8151)" />
  <g
     id="g32"
     transform="translate(263.38116,111.8151)" />
  <g
     id="g34"
     transform="translate(263.38116,111.8151)" />
  <g
     id="SVGRepo_iconCarrier"
     transform="matrix(13.074176,0,0,13.074176,99.109938,99.109938)"
     style="fill:none;fill-opacity:1">
    <path
       d="M 13.4572,2.10976 C 10.5738,2.38717 7.50944,3.25185 5.38064,5.38064 3.25185,7.50944 2.38717,10.5738 2.10976,13.4572 M 13.4572,2.10976 c 1.6701,-0.16067 3.2795,-0.12434 4.6114,-0.02251 2.0797,0.15902 3.6851,1.76444 3.8441,3.84419 0.1019,1.33183 0.1382,2.94125 -0.0225,4.61136 m -8.433,-8.43304 8.433,8.43304 m 0,0 c -0.2774,2.8834 -1.142,5.9478 -3.2708,8.0766 -2.1288,2.1288 -5.1932,2.9934 -8.0766,3.2708 m 0,0 C 8.87269,22.0509 7.26327,22.0146 5.93144,21.9127 3.85169,21.7537 2.24627,20.1483 2.08725,18.0686 1.98542,16.7367 1.94909,15.1273 2.10976,13.4572 m 8.43304,8.433 -8.43304,-8.433"
       stroke="#000000"
       stroke-width="1.5"
       stroke-linecap="round"
       id="path1"
       style="fill:none;fill-opacity:1" />
    <path
       d="M 15.3098,8.69043 8.69043,15.3098 m 0,-2.8369 2.83687,2.8369 m -0.9456,-4.7281 2.8368,2.8368 m -0.9456,-4.72807 2.8369,2.83687"
       stroke="#000000"
       stroke-width="1.5"
       stroke-linecap="round"
       id="path2"
       style="fill:none;fill-opacity:1" />
  </g>
</svg>
