<?xml version="1.0" encoding="UTF-8" standalone="no"?>
<!-- Generator: Adobe Illustrator 16.0.0, SVG Export Plug-In . SVG Version: 6.00 Build 0)  -->

<svg
   version="1.1"
   id="Capa_1"
   x="0px"
   y="0px"
   width="206.274px"
   height="206.274px"
   viewBox="0 0 206.274 206.274"
   style="enable-background:new 0 0 206.274 206.274;"
   xml:space="preserve"
   sodipodi:docname="school.svg"
   inkscape:version="1.3 (0e150ed6c4, 2023-07-21)"
   xmlns:inkscape="http://www.inkscape.org/namespaces/inkscape"
   xmlns:sodipodi="http://sodipodi.sourceforge.net/DTD/sodipodi-0.dtd"
   xmlns="http://www.w3.org/2000/svg"
   xmlns:svg="http://www.w3.org/2000/svg"><defs
   id="defs53" /><sodipodi:namedview
   id="namedview51"
   pagecolor="#ffffff"
   bordercolor="#666666"
   borderopacity="1.0"
   inkscape:pageshadow="2"
   inkscape:pageopacity="0.0"
   inkscape:pagecheckerboard="0"
   showgrid="false"
   inkscape:zoom="0.7121665"
   inkscape:cx="-213.43323"
   inkscape:cy="128.48119"
   inkscape:window-width="1920"
   inkscape:window-height="1017"
   inkscape:window-x="-8"
   inkscape:window-y="-8"
   inkscape:window-maximized="1"
   inkscape:current-layer="Capa_1"
   inkscape:showpageshadow="2"
   inkscape:deskcolor="#d1d1d1" />&#10;<circle
   style="fill:#fbec65;fill-opacity:1;stroke:#000000;stroke-width:4.38777"
   id="path859"
   cx="103.137"
   cy="103.137"
   r="100.90275" />&#10;<g
   id="g20">&#10;</g>&#10;<g
   id="g22">&#10;</g>&#10;<g
   id="g24">&#10;</g>&#10;<g
   id="g26">&#10;</g>&#10;<g
   id="g28">&#10;</g>&#10;<g
   id="g30">&#10;</g>&#10;<g
   id="g32">&#10;</g>&#10;<g
   id="g34">&#10;</g>&#10;<g
   id="g36">&#10;</g>&#10;<g
   id="g38">&#10;</g>&#10;<g
   id="g40">&#10;</g>&#10;<g
   id="g42">&#10;</g>&#10;<g
   id="g44">&#10;</g>&#10;<g
   id="g46">&#10;</g>&#10;<g
   id="g48">&#10;</g>&#10;<path
   d="M 163.28359,60.114804 105.42423,40.828349 a 7.2231631,7.2231631 0 0 0 -4.57441,0 l -57.713692,19.237895 -0.03061,0.01015 -0.115066,0.0384 c -0.104768,0.03487 -0.205565,0.0771 -0.307826,0.116394 -0.121252,0.04664 -0.241393,0.09476 -0.35933,0.147582 -0.147583,0.06607 -0.293553,0.134639 -0.435247,0.209825 -0.07122,0.03782 -0.139713,0.07976 -0.209535,0.119939 -0.119939,0.06886 -0.238225,0.139489 -0.353292,0.214681 -0.06592,0.04311 -0.130515,0.0877 -0.19504,0.133017 q -0.177798,0.124488 -0.346554,0.259119 c -0.0543,0.04312 -0.109034,0.08549 -0.162078,0.130226 q -0.201622,0.169962 -0.389195,0.353731 c -0.02679,0.02619 -0.0554,0.05033 -0.08182,0.07681 q -0.224465,0.226014 -0.4276,0.470572 c -0.03818,0.04576 -0.07298,0.09417 -0.109986,0.140816 -0.09352,0.118009 -0.1843,0.237783 -0.270233,0.361386 -0.04738,0.06798 -0.09241,0.137283 -0.137416,0.206883 q -0.105473,0.163332 -0.201803,0.332251 c -0.04378,0.07637 -0.0877,0.152291 -0.128755,0.230576 -0.06378,0.121541 -0.122052,0.246167 -0.179003,0.371535 -0.03149,0.06931 -0.06622,0.136554 -0.0955,0.207035 -0.0774,0.185842 -0.146114,0.375802 -0.208064,0.568414 -0.02524,0.07887 -0.04547,0.159655 -0.06811,0.239549 -0.03693,0.130521 -0.07166,0.261476 -0.101386,0.394499 -0.01882,0.08475 -0.03561,0.170094 -0.0515,0.256027 -0.02619,0.141406 -0.04738,0.283988 -0.06533,0.427919 -0.0092,0.07474 -0.02002,0.14906 -0.02693,0.224542 -0.02038,0.220679 -0.0337,0.442896 -0.0337,0.667703 v 48.216135 a 7.2324206,7.2324206 0 0 0 14.464841,0 V 77.010021 l 14.29283,4.764357 a 40.924008,40.924008 0 0 0 10.9172,51.067202 60.252127,60.252127 0 0 0 -25.101436,21.79379 7.2324628,7.2324628 0 0 0 12.11642,7.90104 45.818692,45.818692 0 0 1 76.803566,0 7.2324651,7.2324651 0 0 0 12.11642,-7.90104 60.253525,60.253525 0 0 0 -25.10122,-21.79379 40.923928,40.923928 0 0 0 10.91728,-51.067184 l 23.81245,-7.937533 a 7.2321313,7.2321313 0 0 0 0,-13.722059 z m -60.14657,-4.801604 34.98848,11.662633 -12.48038,4.160052 -0.0197,0.0066 -22.48839,7.495952 -22.488744,-7.496103 -0.01714,-0.0057 -12.482603,-4.160802 z m 26.51888,45.41393 A 26.518875,26.518875 0 1 1 80.799319,86.439741 l 20.050501,6.683581 a 7.2285511,7.2285511 0 0 0 4.57441,0 l 20.0505,-6.683581 a 26.443706,26.443706 0 0 1 4.18117,14.287389 z"
   id="path1"
   style="stroke-width:0.602702" /></svg>
