<?xml version="1.0" encoding="UTF-8" standalone="no"?>
<svg
   version="1.1"
   viewBox="0 0 512 512"
   enable-background="new 0 0 512 512"
   id="svg16"
   sodipodi:docname="restaurant - Copy.svg"
   inkscape:version="1.3 (0e150ed6c4, 2023-07-21)"
   xmlns:inkscape="http://www.inkscape.org/namespaces/inkscape"
   xmlns:sodipodi="http://sodipodi.sourceforge.net/DTD/sodipodi-0.dtd"
   xmlns="http://www.w3.org/2000/svg"
   xmlns:svg="http://www.w3.org/2000/svg">
  <defs
     id="defs20" />
  <sodipodi:namedview
     id="namedview18"
     pagecolor="#ffffff"
     bordercolor="#666666"
     borderopacity="1.0"
     inkscape:pageshadow="2"
     inkscape:pageopacity="0.0"
     inkscape:pagecheckerboard="0"
     showgrid="false"
     inkscape:zoom="0.70710678"
     inkscape:cx="65.053824"
     inkscape:cy="234.05234"
     inkscape:window-width="1920"
     inkscape:window-height="1017"
     inkscape:window-x="-8"
     inkscape:window-y="-8"
     inkscape:window-maximized="1"
     inkscape:current-layer="svg16"
     inkscape:showpageshadow="2"
     inkscape:deskcolor="#d1d1d1" />
  <circle
     style="fill:#d92c32;stroke:#000000;stroke-width:10.8951;fill-opacity:1"
     id="path859"
     cx="255.99544"
     cy="255.99544"
     r="250.5479" />
  <g
     id="g6"
     transform="translate(263.38116,111.8151)" />
  <g
     id="g8"
     transform="translate(263.38116,111.8151)" />
  <g
     id="g10"
     transform="translate(263.38116,111.8151)" />
  <g
     id="g12"
     transform="translate(263.38116,111.8151)" />
  <g
     id="g14"
     transform="translate(263.38116,111.8151)" />
  <g
     id="g16"
     transform="translate(263.38116,111.8151)" />
  <g
     id="g18"
     transform="translate(263.38116,111.8151)" />
  <g
     id="g20"
     transform="translate(263.38116,111.8151)" />
  <g
     id="g22"
     transform="translate(263.38116,111.8151)" />
  <g
     id="g24"
     transform="translate(263.38116,111.8151)" />
  <g
     id="g26"
     transform="translate(263.38116,111.8151)" />
  <g
     id="g28"
     transform="translate(263.38116,111.8151)" />
  <g
     id="g30"
     transform="translate(263.38116,111.8151)" />
  <g
     id="g32"
     transform="translate(263.38116,111.8151)" />
  <g
     id="g34"
     transform="translate(263.38116,111.8151)" />
  <g
     id="Sport"
     transform="matrix(0.79275191,0,0,0.79275191,53.055511,53.055516)">
    <path
       d="m 256,46.5544 c -115.98,0 -210,94.0209 -210,210 11.0614,278.5613 408.9813,278.4822 420,-10e-4 0,-115.9781 -94.02,-209.999 -210,-209.999 z m 13.1314,64.0816 43.3441,-28.8626 a 184.32,184.32 0 0 1 92.236,67.287 L 390.73,198.9456 322.2637,220.89 269.1314,181.8386 Z m -69.6048,-28.8626 43.3548,28.8679 v 71.192 l -53.1409,39.0567 -68.47,-21.9487 -13.98,-49.8832 a 184.2945,184.2945 0 0 1 92.2361,-67.2847 z m -91.7,282.996 A 182.38,182.38 0 0 1 72.2626,256.3013 l 40.9409,-32.3831 68.4151,21.9318 20.4114,63.5484 -42.3484,57.4916 z m 205.2255,66.3535 c -35.6088,12.1391 -78.5,12.137 -114.1089,-0.001 L 180.875,382.386 223.2834,324.8124 h 65.437 l 42.4,57.5757 z m 91.1188,-66.3524 -51.8549,2.1213 -42.342,-57.4924 20.4138,-63.5507 68.4107,-21.9263 40.9387,32.381 a 182.3643,182.3643 0 0 1 -35.5661,108.4671 z"
       id="path1" />
  </g>
</svg>
