<?xml version="1.0" encoding="UTF-8" standalone="no"?>
<svg
   version="1.1"
   viewBox="0 0 512 512"
   enable-background="new 0 0 512 512"
   id="svg16"
   sodipodi:docname="cart.svg"
   inkscape:version="1.1.2 (b8e25be833, 2022-02-05)"
   xmlns:inkscape="http://www.inkscape.org/namespaces/inkscape"
   xmlns:sodipodi="http://sodipodi.sourceforge.net/DTD/sodipodi-0.dtd"
   xmlns="http://www.w3.org/2000/svg"
   xmlns:svg="http://www.w3.org/2000/svg">
  <defs
     id="defs20" />
  <sodipodi:namedview
     id="namedview18"
     pagecolor="#ffffff"
     bordercolor="#666666"
     borderopacity="1.0"
     inkscape:pageshadow="2"
     inkscape:pageopacity="0.0"
     inkscape:pagecheckerboard="0"
     showgrid="false"
     inkscape:zoom="0.81152344"
     inkscape:cx="169.43442"
     inkscape:cy="162.65704"
     inkscape:window-width="1920"
     inkscape:window-height="1017"
     inkscape:window-x="-8"
     inkscape:window-y="-8"
     inkscape:window-maximized="1"
     inkscape:current-layer="svg16" />
  <circle
     style="fill:#ff3e56;stroke:#000000;stroke-width:10.8951;fill-opacity:1"
     id="path859"
     cx="255.99544"
     cy="255.99544"
     r="250.5479" />
  <g
     id="g14"
     transform="matrix(0.60970609,0,0,0.60970609,99.918004,99.895725)">
    <g
       id="g12">
      <path
         d="M 490.1,94.3 H 164.5 c -7.8,0 -12.4,5.5 -10.4,13.6 l 47,161.7 c 1,4.2 5.2,7.3 10.4,7.3 h 232.7 c 5.2,0 9.4,-3.1 10.4,-7.3 l 45.9,-161.7 c 1.8,-5.3 -1,-13.6 -10.4,-13.6 z M 436.9,255 H 219.8 l -9.4,-32.3 h 235.9 z m 14.6,-53.3 H 203.8 l -9.3,-32.3 h 266.4 z m 15.6,-54.2 H 188.5 l -9.4,-32.3 h 297.5 z"
         id="path2" />
      <path
         d="M 107.1,24.3 C 106.1,19.1 101.9,16 96.7,16 H 11 v 20.9 h 77.2 l 71,285.9 c 1,5.2 5.2,8.3 10.4,8.3 H 445.1 V 309.2 H 178 Z"
         id="path4" />
      <rect
         width="243.2"
         x="169.7"
         y="363.5"
         height="20.9"
         id="rect6" />
      <path
         d="m 400.3,412.5 c -23,0 -41.7,18.8 -41.7,41.7 0,23 18.8,41.7 41.7,41.7 22.9,0 41.7,-18.8 41.7,-41.7 0.1,-22.9 -18.7,-41.7 -41.7,-41.7 z m 0,61.6 c -10.4,0 -19.8,-9.4 -19.8,-19.8 0,-10.4 8.3,-19.8 19.8,-19.8 11.5,0 19.8,9.4 19.8,19.8 0.1,10.4 -9.3,19.8 -19.8,19.8 z"
         id="path8" />
      <path
         d="m 197.9,412.5 c -23,0 -41.7,18.8 -41.7,41.7 0,23 18.8,41.7 41.7,41.7 22.9,0 41.7,-18.8 41.7,-41.7 0,-22.9 -18.8,-41.7 -41.7,-41.7 z m 0,61.6 c -10.4,0 -19.8,-9.4 -19.8,-19.8 0,-10.4 8.3,-19.8 19.8,-19.8 10.4,0 19.8,9.4 19.8,19.8 0,10.4 -9.4,19.8 -19.8,19.8 z"
         id="path10" />
    </g>
  </g>
</svg>
