<?xml version="1.0" encoding="UTF-8" standalone="no"?>
<svg
   version="1.1"
   viewBox="0 0 512 512"
   enable-background="new 0 0 512 512"
   id="svg16"
   sodipodi:docname="tennis.svg"
   inkscape:version="1.3 (0e150ed6c4, 2023-07-21)"
   xmlns:inkscape="http://www.inkscape.org/namespaces/inkscape"
   xmlns:sodipodi="http://sodipodi.sourceforge.net/DTD/sodipodi-0.dtd"
   xmlns="http://www.w3.org/2000/svg"
   xmlns:svg="http://www.w3.org/2000/svg">
  <defs
     id="defs20" />
  <sodipodi:namedview
     id="namedview18"
     pagecolor="#ffffff"
     bordercolor="#666666"
     borderopacity="1.0"
     inkscape:pageshadow="2"
     inkscape:pageopacity="0.0"
     inkscape:pagecheckerboard="0"
     showgrid="false"
     inkscape:zoom="0.70710678"
     inkscape:cx="165.46299"
     inkscape:cy="292.0351"
     inkscape:window-width="1920"
     inkscape:window-height="1017"
     inkscape:window-x="-8"
     inkscape:window-y="-8"
     inkscape:window-maximized="1"
     inkscape:current-layer="svg16"
     inkscape:showpageshadow="2"
     inkscape:deskcolor="#d1d1d1" />
  <circle
     style="fill:#ff4646;fill-opacity:1;stroke:#000000;stroke-width:10.8951"
     id="path859"
     cx="256"
     cy="256"
     r="250.5479" />
  <g
     id="g6"
     transform="translate(263.38116,111.8151)" />
  <g
     id="g8"
     transform="translate(263.38116,111.8151)" />
  <g
     id="g10"
     transform="translate(263.38116,111.8151)" />
  <g
     id="g12"
     transform="translate(263.38116,111.8151)" />
  <g
     id="g14"
     transform="translate(263.38116,111.8151)" />
  <g
     id="g16"
     transform="translate(263.38116,111.8151)" />
  <g
     id="g18"
     transform="translate(263.38116,111.8151)" />
  <g
     id="g20"
     transform="translate(263.38116,111.8151)" />
  <g
     id="g22"
     transform="translate(263.38116,111.8151)" />
  <g
     id="g24"
     transform="translate(263.38116,111.8151)" />
  <g
     id="g26"
     transform="translate(263.38116,111.8151)" />
  <g
     id="g28"
     transform="translate(263.38116,111.8151)" />
  <g
     id="g30"
     transform="translate(263.38116,111.8151)" />
  <g
     id="g32"
     transform="translate(263.38116,111.8151)" />
  <g
     id="g34"
     transform="translate(263.38116,111.8151)" />
  <path
     fill-rule="evenodd"
     clip-rule="evenodd"
     d="m 262.83978,115.71632 c -26.05636,-1.29713 -52.76645,4.64333 -77.05429,18.66591 -24.2763,14.0159 -42.78478,34.18571 -54.69224,57.40127 5.54435,3.54448 13.14189,8.85807 21.88868,16.20252 17.85899,14.99574 40.54259,38.48775 60.28564,72.68303 19.7432,34.1968 28.74595,65.58649 32.8025,88.55186 1.98729,11.24812 2.7904,20.48467 3.08797,27.05836 26.0594,1.29652 52.78223,-4.64713 77.05779,-18.66439 24.28768,-14.02183 42.78812,-34.18314 54.69209,-57.39748 -5.54436,-3.54493 -13.1428,-8.85853 -21.89201,-16.20496 -17.85977,-14.99497 -40.54428,-38.48714 -60.28808,-72.68393 -19.74381,-34.19559 -28.74505,-65.58634 -32.8016,-88.5508 -1.98728,-11.24934 -2.78888,-20.48725 -3.08645,-27.06139 z m 22.98815,3.05441 c 0.37802,5.30039 1.11737,12.08221 2.5232,20.04577 3.67246,20.7877 11.88728,49.58391 30.09774,81.12633 18.21197,31.54243 39.04278,53.05491 55.20978,66.63039 6.19414,5.19973 11.69751,9.23048 16.09869,12.20761 11.62919,-36.38903 8.45318,-77.33015 -12.1393,-112.99729 -20.59246,-35.6673 -54.45981,-58.88833 -91.79011,-67.01281 z m -59.65804,274.45549 c -0.37802,-5.29993 -1.11767,-12.0816 -2.5244,-20.0444 -3.67277,-20.7868 -11.88834,-49.58345 -30.09957,-81.12649 -18.21107,-31.54151 -39.04142,-53.0555 -55.20781,-66.62947 -6.19156,-5.19898 -11.69402,-9.22895 -16.09444,-12.2067 -11.62084,36.37142 -8.45469,77.32256 12.14067,112.99501 20.59504,35.67246 54.47696,58.88984 91.78555,67.01205 z M 174.39921,114.66059 c 31.8069,-18.363643 67.25754,-24.807214 101.12642,-20.701928 49.18417,5.961848 95.11339,34.191468 121.81346,80.438588 26.70158,46.24697 28.18483,100.13687 8.75528,145.71388 -13.37963,31.3821 -36.68507,58.86251 -68.49226,77.22631 -78.05827,45.06689 -177.87207,18.3228 -222.93942,-59.73698 C 69.595275,259.54219 96.340341,159.72793 174.39921,114.66059 Z"
     fill="#1C274C"
     id="path1"
     style="fill:#000000;fill-opacity:1;stroke-width:15.1817" />
</svg>
