<?xml version="1.0" encoding="UTF-8" standalone="no"?>
<!-- Uploaded to SVGRepo https://www.svgrepo.com -->

<svg
   version="1.1"
   id="Layer_1"
   x="0px"
   y="0px"
   viewBox="0 0 128 128"
   style="enable-background:new 0 0 128 128;"
   xml:space="preserve"
   sodipodi:docname="tobacco.svg"
   inkscape:version="1.1.2 (b8e25be833, 2022-02-05)"
   xmlns:inkscape="http://www.inkscape.org/namespaces/inkscape"
   xmlns:sodipodi="http://sodipodi.sourceforge.net/DTD/sodipodi-0.dtd"
   xmlns="http://www.w3.org/2000/svg"
   xmlns:svg="http://www.w3.org/2000/svg"><defs
   id="defs15" /><sodipodi:namedview
   id="namedview13"
   pagecolor="#ffffff"
   bordercolor="#666666"
   borderopacity="1.0"
   inkscape:pageshadow="2"
   inkscape:pageopacity="0.0"
   inkscape:pagecheckerboard="0"
   showgrid="false"
   inkscape:zoom="4.5906698"
   inkscape:cx="34.744385"
   inkscape:cy="84.954923"
   inkscape:window-width="1920"
   inkscape:window-height="1017"
   inkscape:window-x="-8"
   inkscape:window-y="-8"
   inkscape:window-maximized="1"
   inkscape:current-layer="Layer_1" />
<circle
   style="fill:#ce13ff;fill-opacity:1;stroke:#000000;stroke-width:2.71396"
   id="path859"
   cx="64.077019"
   cy="64.077019"
   r="62.411354" />



<g
   id="g845"
   transform="matrix(0.63277171,0,0,0.63277171,23.502611,21.978613)"><rect
     x="14.1"
     y="84.099998"
     width="83.699997"
     height="14.8"
     id="rect2" /><rect
     x="101.7"
     y="84.199997"
     width="4.1999998"
     height="14.8"
     id="rect4" /><rect
     x="109.6"
     y="84.199997"
     width="4.1999998"
     height="14.8"
     id="rect6" /><path
     d="M 80.4,64.7 C 74,64.7 68.8,59.5 68.8,53.2 68.8,52 69,50.8 69.3,49.7 61.4,49.6 55.1,43.1 55.1,35.2 c 0,-8 6.4,-14.4 14.4,-14.5 v 4.2 c -5.6,0.1 -10.2,4.7 -10.2,10.4 0,5.7 4.7,10.4 10.4,10.4 0.7,0 1.4,-0.1 2.1,-0.2 0.2,-0.1 0.4,-0.1 0.6,-0.1 1.3,0 2.5,1.1 2.5,2.4 0,0.5 -0.2,1 -0.4,1.4 -0.8,1.2 -1.3,2.6 -1.3,4.1 0,4 3.3,7.3 7.3,7.3 h 15.2 c 5.8,0 10.4,4.7 10.4,10.4 v 8.3 h -4.2 V 71 c 0,-3.4 -2.8,-6.2 -6.2,-6.2 H 80.4 Z"
     id="path8" /><path
     d="m 83.8,48.7 c 1.6,-2 2.5,-4.5 2.5,-7.3 0,-6.6 -5.4,-12 -12,-12 h -0.9 v -4.2 h 0.9 c 8.9,0 16.2,7.3 16.2,16.2 0,2.4 -0.5,4.7 -1.5,6.7 h 3 c 12.1,0 21.9,9.8 21.9,21.9 v 9.1 h -4.2 V 70 c 0,-9.8 -7.9,-17.7 -17.7,-17.7 h -6.2 c -1.3,0 -2.4,-1.1 -2.4,-2.4 0,-0.4 0.2,-0.9 0.4,-1.2"
     id="path10" /></g>
</svg>
