<?xml version="1.0" encoding="UTF-8" standalone="no"?>
<!-- Generator: Adobe Illustrator 19.0.0, SVG Export Plug-In . SVG Version: 6.00 Build 0)  -->

<svg
   version="1.1"
   id="Layer_1"
   x="0px"
   y="0px"
   viewBox="0 0 512 512"
   style="enable-background:new 0 0 512 512;"
   xml:space="preserve"
   sodipodi:docname="tourism.svg"
   inkscape:version="1.3 (0e150ed6c4, 2023-07-21)"
   xmlns:inkscape="http://www.inkscape.org/namespaces/inkscape"
   xmlns:sodipodi="http://sodipodi.sourceforge.net/DTD/sodipodi-0.dtd"
   xmlns="http://www.w3.org/2000/svg"
   xmlns:svg="http://www.w3.org/2000/svg"><defs
   id="defs59" /><sodipodi:namedview
   id="namedview57"
   pagecolor="#ffffff"
   bordercolor="#666666"
   borderopacity="1.0"
   inkscape:pageshadow="2"
   inkscape:pageopacity="0.0"
   inkscape:pagecheckerboard="0"
   showgrid="false"
   inkscape:zoom="0.40576172"
   inkscape:cx="-236.59206"
   inkscape:cy="8.6257521"
   inkscape:window-width="1920"
   inkscape:window-height="1017"
   inkscape:window-x="-8"
   inkscape:window-y="-8"
   inkscape:window-maximized="1"
   inkscape:current-layer="Layer_1"
   inkscape:showpageshadow="2"
   inkscape:deskcolor="#d1d1d1" />&#10;<circle
   style="fill:#8cfccb;fill-opacity:1;stroke:#000000;stroke-width:10.8899"
   id="path859"
   cx="256"
   cy="256"
   r="250.42706" />&#10;&#10;&#10;&#10;<g
   id="g26">&#10;</g>&#10;<g
   id="g28">&#10;</g>&#10;<g
   id="g30">&#10;</g>&#10;<g
   id="g32">&#10;</g>&#10;<g
   id="g34">&#10;</g>&#10;<g
   id="g36">&#10;</g>&#10;<g
   id="g38">&#10;</g>&#10;<g
   id="g40">&#10;</g>&#10;<g
   id="g42">&#10;</g>&#10;<g
   id="g44">&#10;</g>&#10;<g
   id="g46">&#10;</g>&#10;<g
   id="g48">&#10;</g>&#10;<g
   id="g50">&#10;</g>&#10;<g
   id="g52">&#10;</g>&#10;<g
   id="g54">&#10;</g>&#10;<g
   id="g2"
   transform="matrix(15.096029,0,0,15.096029,74.847652,74.847652)"><path
     d="M 14.844,20 H 6.5 C 5.121,20 4,18.879 4,17.5 4,16.121 5.121,15 6.5,15 h 7 C 15.43,15 17,13.43 17,11.5 17,9.57 15.43,8 13.5,8 H 8.639 A 9.812,9.812 0 0 1 7.285,10 H 13.5 c 0.827,0 1.5,0.673 1.5,1.5 0,0.827 -0.673,1.5 -1.5,1.5 h -7 C 4.019,13 2,15.019 2,17.5 2,19.981 4.019,22 6.5,22 h 9.593 A 10.415,10.415 0 0 1 14.844,20 Z M 5,2 C 3.346,2 2,3.346 2,5 2,8.188 5,10 5,10 5,10 8,8.187 8,5 8,3.346 6.654,2 5,2 Z M 5,6.5 A 1.5005001,1.5005001 0 1 1 5.001,3.499 1.5005001,1.5005001 0 0 1 5,6.5 Z"
     id="path1" /><path
     d="m 19,14 c -1.654,0 -3,1.346 -3,3 0,3.188 3,5 3,5 0,0 3,-1.813 3,-5 0,-1.654 -1.346,-3 -3,-3 z m 0,4.5 A 1.5005001,1.5005001 0 1 1 19.001,15.499 1.5005001,1.5005001 0 0 1 19,18.5 Z"
     id="path2" /></g></svg>
