<?xml version="1.0" encoding="UTF-8" standalone="no"?>
<!-- Generator: Adobe Illustrator 18.0.0, SVG Export Plug-In . SVG Version: 6.00 Build 0)  -->

<svg
   version="1.1"
   id="Capa_1"
   x="0px"
   y="0px"
   viewBox="0 0 345.021 345.021"
   style="enable-background:new 0 0 345.021 345.021;"
   xml:space="preserve"
   sodipodi:docname="train.svg"
   inkscape:version="1.3 (0e150ed6c4, 2023-07-21)"
   xmlns:inkscape="http://www.inkscape.org/namespaces/inkscape"
   xmlns:sodipodi="http://sodipodi.sourceforge.net/DTD/sodipodi-0.dtd"
   xmlns="http://www.w3.org/2000/svg"
   xmlns:svg="http://www.w3.org/2000/svg"><defs
   id="defs41" /><sodipodi:namedview
   id="namedview39"
   pagecolor="#ffffff"
   bordercolor="#666666"
   borderopacity="1.0"
   inkscape:pageshadow="2"
   inkscape:pageopacity="0.0"
   inkscape:pagecheckerboard="0"
   showgrid="false"
   inkscape:zoom="1.7031014"
   inkscape:cx="149.13968"
   inkscape:cy="164.69953"
   inkscape:window-width="1920"
   inkscape:window-height="1017"
   inkscape:window-x="-8"
   inkscape:window-y="-8"
   inkscape:window-maximized="1"
   inkscape:current-layer="Capa_1"
   inkscape:showpageshadow="2"
   inkscape:deskcolor="#d1d1d1" />&#10;<circle
   style="fill:#175dff;fill-opacity:1;stroke:#000000;stroke-width:7.3414"
   id="path859"
   cx="172.5105"
   cy="172.5105"
   r="168.82565" />&#10;<g
   id="g8">&#10;</g>&#10;<g
   id="g10">&#10;</g>&#10;<g
   id="g12">&#10;</g>&#10;<g
   id="g14">&#10;</g>&#10;<g
   id="g16">&#10;</g>&#10;<g
   id="g18">&#10;</g>&#10;<g
   id="g20">&#10;</g>&#10;<g
   id="g22">&#10;</g>&#10;<g
   id="g24">&#10;</g>&#10;<g
   id="g26">&#10;</g>&#10;<g
   id="g28">&#10;</g>&#10;<g
   id="g30">&#10;</g>&#10;<g
   id="g32">&#10;</g>&#10;<g
   id="g34">&#10;</g>&#10;<g
   id="g36">&#10;</g>&#10;<g
   id="g2"
   transform="matrix(10.372648,0,0,10.372648,48.038722,48.038722)"
   style="fill:none"><path
     d="m 9.5,22 h 5 M 8,2 h 8 M 12,5 V 2 M 4,12 h 16 m -3,7 1.5,3 M 7,19 5.5,22 m 3,-6.5 h 0.01 m 6.99,0 h 0.01 M 8.8,19 h 6.4 c 1.6802,0 2.5202,0 3.162,-0.327 0.5645,-0.2876 1.0234,-0.7465 1.311,-1.311 C 20,16.7202 20,15.8802 20,14.2 V 9.8 C 20,8.11984 20,7.27976 19.673,6.63803 19.3854,6.07354 18.9265,5.6146 18.362,5.32698 17.7202,5 16.8802,5 15.2,5 H 8.8 C 7.11984,5 6.27976,5 5.63803,5.32698 5.07354,5.6146 4.6146,6.07354 4.32698,6.63803 4,7.27976 4,8.11984 4,9.8 v 4.4 c 0,1.6802 0,2.5202 0.32698,3.162 0.28762,0.5645 0.74656,1.0234 1.31105,1.311 C 6.27976,19 7.11984,19 8.8,19 Z M 9,15.5 C 9,15.7761 8.77614,16 8.5,16 8.22386,16 8,15.7761 8,15.5 8,15.2239 8.22386,15 8.5,15 8.77614,15 9,15.2239 9,15.5 Z m 7,0 C 16,15.7761 15.7761,16 15.5,16 15.2239,16 15,15.7761 15,15.5 15,15.2239 15.2239,15 15.5,15 c 0.2761,0 0.5,0.2239 0.5,0.5 z"
     stroke="#000000"
     stroke-width="2"
     stroke-linecap="round"
     stroke-linejoin="round"
     id="path1"
     style="fill:none" /></g></svg>
